<?xml version="1.0" encoding="UTF-8" standalone="no"?>
<svg
   xmlns:dc="http://purl.org/dc/elements/1.1/"
   xmlns:cc="http://creativecommons.org/ns#"
   xmlns:rdf="http://www.w3.org/1999/02/22-rdf-syntax-ns#"
   xmlns:svg="http://www.w3.org/2000/svg"
   xmlns="http://www.w3.org/2000/svg"
   xmlns:xlink="http://www.w3.org/1999/xlink"
   xmlns:sodipodi="http://sodipodi.sourceforge.net/DTD/sodipodi-0.dtd"
   xmlns:inkscape="http://www.inkscape.org/namespaces/inkscape"
   inkscape:export-ydpi="96"
   inkscape:export-xdpi="96"
   inkscape:export-filename="G:\OneDrive - University of Bristol\Projects\TreeViewer\Icons\Installers\HeaderBanner.png"
   sodipodi:docname="HeaderBanner.svg"
   inkscape:version="1.0 (4035a4fb49, 2020-05-01)"
   id="svg1002"
   version="1.1"
   viewBox="0 0 130.43959 15.345834"
   height="15.345834mm"
   width="130.43959mm">
  <defs
     id="defs996">
    <mask
       id="mask1374"
       maskUnits="userSpaceOnUse">
      <path
         id="path1376"
         style="font-variation-settings:normal;opacity:1;vector-effect:none;fill:#ffffff;fill-opacity:1;stroke:none;stroke-width:2.80395;stroke-linecap:round;stroke-linejoin:round;stroke-miterlimit:4;stroke-dasharray:none;stroke-dashoffset:0;stroke-opacity:0.2;stop-color:#000000;stop-opacity:1"
         d="M 192.06857,7.5597467 V 64.384701 c 9.52671,1.874207 21.12797,6.931972 31.25391,15.156698 10.27368,8.344723 21.18274,19.700965 29.03337,33.250171 -13.46326,9.69322 -28.51612,16.41861 -45.14764,20.19773 9.3355,-4.14961 17.69865,-9.97761 24.71219,-18.13791 C 224.18074,95.733992 207.72551,79.847374 192.06857,75.772118 V 86.76318 a 15.450965,15.450965 0 0 1 7.68067,13.35474 15.450965,15.450965 0 0 1 -7.68067,13.35526 v 11.60084 a 25.477655,26.204447 0 0 0 17.70745,-24.9561 25.477655,26.204447 0 0 0 -1.54306,-8.981365 c -0.001,-2.65e-4 -0.002,-0.0013 -0.002,-0.0016 h 0.002 a 25.477655,26.204447 0 0 1 5.3e-4,0.0011 c 3.27886,2.444895 6.43662,5.311092 9.38082,8.504906 a 33.319074,34.269556 0 0 1 0.004,0.476979 33.319074,34.269556 0 0 1 -25.54935,33.32508 V 164.0417 H 484.24403 V 7.5597467 Z" />
    </mask>
    <filter
       height="1.0203218"
       y="-0.01016092"
       width="1.0293039"
       x="-0.014651934"
       id="filter1251"
       style="color-interpolation-filters:sRGB"
       inkscape:collect="always">
      <feGaussianBlur
         id="feGaussianBlur1253"
         stdDeviation="2.21"
         inkscape:collect="always" />
    </filter>
    <mask
       maskUnits="userSpaceOnUse"
       id="mask1132">
      <path
         style="fill:#ffffff;fill-opacity:1;stroke:none;stroke-width:0.1;stroke-linecap:round;stroke-miterlimit:4;stroke-dasharray:none;stroke-opacity:1"
         d="m 73.270097,119.62215 v 2.64584 2.64583 c -16.182758,-3.67715 -32.483293,-5.49618 -45.583264,-14.92785 -1.305999,-0.91076 -0.25065,-6.101 -0.25065,-6.101 0,0 0.865807,-1.85325 1.904296,-3.915362 C 36.97927,86.786003 47.593448,75.736106 57.589917,67.616544 70.336997,57.262816 85.490095,52.061938 95.561243,52.061938 c 0.0716,0 0.145965,0.0031 0.218074,0.0036 V 35.917187 L 59.861979,0 H 7.9375 C 3.540125,0 0,3.540125 0,7.9375 v 119.59166 c 0,4.39738 3.540125,7.9375 7.9375,7.9375 h 79.904167 c 4.397375,0 7.9375,-3.54012 7.9375,-7.9375 v -1.25522 c -0.07252,5.3e-4 -0.14504,0.001 -0.217559,0.001 -7.922483,2.3e-4 -15.181287,-2.9224 -20.812702,-7.77667"
         id="path1134"
         sodipodi:nodetypes="ccccccsscccssssssccc" />
    </mask>
    <filter
       height="1.0223012"
       y="-0.011150602"
       width="1.0259789"
       x="-0.012989474"
       id="filter1247"
       style="color-interpolation-filters:sRGB"
       inkscape:collect="always">
      <feGaussianBlur
         id="feGaussianBlur1249"
         stdDeviation="0.38143385"
         inkscape:collect="always" />
    </filter>
    <mask
       maskUnits="userSpaceOnUse"
       id="mask1136">
      <path
         sodipodi:nodetypes="ccccccsscccssssssccc"
         id="path1138"
         d="m 73.270097,119.62215 v 2.64584 2.64583 c -16.182758,-3.67715 -32.483293,-5.49618 -45.583264,-14.92785 -1.305999,-0.91076 -0.25065,-6.101 -0.25065,-6.101 0,0 0.865807,-1.85325 1.904296,-3.915362 C 36.97927,86.786003 47.593448,75.736106 57.589917,67.616544 70.336997,57.262816 85.490095,52.061938 95.561243,52.061938 c 0.0716,0 0.145965,0.0031 0.218074,0.0036 V 35.917187 L 59.861979,0 H 7.9375 C 3.540125,0 0,3.540125 0,7.9375 v 119.59166 c 0,4.39738 3.540125,7.9375 7.9375,7.9375 h 79.904167 c 4.397375,0 7.9375,-3.54012 7.9375,-7.9375 v -1.25522 c -0.07252,5.3e-4 -0.14504,0.001 -0.217559,0.001 -7.922483,2.3e-4 -15.181287,-2.9224 -20.812702,-7.77667"
         style="fill:#ffffff;fill-opacity:1;stroke:none;stroke-width:0.1;stroke-linecap:round;stroke-miterlimit:4;stroke-dasharray:none;stroke-opacity:1" />
    </mask>
    <radialGradient
       inkscape:collect="always"
       xlink:href="#linearGradient897"
       id="radialGradient907"
       gradientUnits="userSpaceOnUse"
       gradientTransform="matrix(1.6208894,1.6208896,-0.69733304,0.69733304,-25.481736,-113.24858)"
       cx="72.266945"
       cy="27.698498"
       fx="72.266945"
       fy="27.698498"
       r="17.958595" />
    <linearGradient
       inkscape:collect="always"
       id="linearGradient897">
      <stop
         style="stop-color:#000000;stop-opacity:0.2"
         offset="0"
         id="stop893" />
      <stop
         style="stop-color:#000000;stop-opacity:0"
         offset="1"
         id="stop895" />
    </linearGradient>
    <clipPath
       id="clipPath1273"
       clipPathUnits="userSpaceOnUse">
      <path
         id="path1275"
         style="fill:#ffffff;fill-opacity:1;stroke:none;stroke-width:0.964312;stroke-linecap:round;stroke-opacity:1"
         d="m 362.00001,135.75 v 346.24998 c 0,16.62002 -13.38,30 -30,30 H 30 C 13.38,511.99998 -5.9127449e-7,498.62 -5.9127449e-7,481.99998 V 30.000017 C -5.9127449e-7,13.380017 13.38,1.7730124e-5 30,1.7730124e-5 h 196.25 z"
         sodipodi:nodetypes="csssssscc" />
    </clipPath>
    <filter
       height="1.0927067"
       y="-0.046353344"
       width="1.0995359"
       x="-0.049767956"
       id="filter1263"
       style="color-interpolation-filters:sRGB"
       inkscape:collect="always">
      <feGaussianBlur
         id="feGaussianBlur1265"
         stdDeviation="2.815"
         inkscape:collect="always" />
    </filter>
    <mask
       id="mask1303"
       maskUnits="userSpaceOnUse">
      <path
         id="path1305"
         style="fill:#ffffff;fill-opacity:1;stroke:none;stroke-width:0.964312;stroke-linecap:round;stroke-opacity:1"
         d="m 95.779167,35.917188 v 91.611972 c 0,4.39738 -3.540124,7.9375 -7.9375,7.9375 H 7.9374998 c -4.3973749,0 -7.93749995644137,-3.54012 -7.93749995644137,-7.9375 V 7.9375045 C -1.5644137e-7,3.5401295 3.5401249,4.6910952e-6 7.9374998,4.6910952e-6 H 59.861979 Z"
         sodipodi:nodetypes="csssssscc" />
    </mask>
    <filter
       height="1.2250727"
       y="-0.11253636"
       width="1.0610116"
       x="-0.030505801"
       id="filter1297"
       style="color-interpolation-filters:sRGB"
       inkscape:collect="always">
      <feGaussianBlur
         id="feGaussianBlur1299"
         stdDeviation="0.76089069"
         inkscape:collect="always" />
    </filter>
    <linearGradient
       inkscape:collect="always"
       xlink:href="#linearGradient897"
       id="linearGradient874"
       x1="92.604164"
       y1="133.87917"
       x2="33.224106"
       y2="52.803268"
       gradientUnits="userSpaceOnUse" />
    <linearGradient
       y2="52.047314"
       x2="39.460712"
       y1="1.9654751"
       x1="2.8348188"
       gradientUnits="userSpaceOnUse"
       id="linearGradient1465"
       xlink:href="#linearGradient884"
       inkscape:collect="always" />
    <linearGradient
       id="linearGradient884"
       inkscape:collect="always">
      <stop
         id="stop880"
         offset="0"
         style="stop-color:#79bffe;stop-opacity:0.2" />
      <stop
         id="stop882"
         offset="1"
         style="stop-color:#77bcf9;stop-opacity:0" />
    </linearGradient>
    <filter
       height="1.0788841"
       y="-0.039442047"
       width="1.0410506"
       x="-0.020525275"
       id="filter1285"
       style="color-interpolation-filters:sRGB"
       inkscape:collect="always">
      <feGaussianBlur
         id="feGaussianBlur1287"
         stdDeviation="1.1326661"
         inkscape:collect="always" />
    </filter>
    <linearGradient
       inkscape:collect="always"
       xlink:href="#linearGradient1072"
       id="linearGradient1074"
       x1="104.94875"
       y1="128.23151"
       x2="81.110832"
       y2="55.172665"
       gradientUnits="userSpaceOnUse" />
    <linearGradient
       inkscape:collect="always"
       id="linearGradient1072">
      <stop
         style="stop-color:#77bbf9;stop-opacity:0.30000001"
         offset="0"
         id="stop1068" />
      <stop
         style="stop-color:#79befc;stop-opacity:0"
         offset="1"
         id="stop1070" />
    </linearGradient>
    <linearGradient
       inkscape:collect="always"
       xlink:href="#linearGradient1082"
       id="linearGradient1148"
       gradientUnits="userSpaceOnUse"
       x1="104.80307"
       y1="130.93242"
       x2="87.128555"
       y2="69.59893" />
    <linearGradient
       inkscape:collect="always"
       id="linearGradient1082">
      <stop
         style="stop-color:#78bdfb;stop-opacity:0.5"
         offset="0"
         id="stop1078" />
      <stop
         style="stop-color:#7ac0ff;stop-opacity:0"
         offset="1"
         id="stop1080" />
    </linearGradient>
  </defs>
  <sodipodi:namedview
     inkscape:snap-page="true"
     inkscape:window-maximized="1"
     inkscape:window-y="-8"
     inkscape:window-x="-8"
     inkscape:window-height="1377"
     inkscape:window-width="2560"
     showgrid="false"
     inkscape:document-rotation="0"
     inkscape:current-layer="layer1"
     inkscape:document-units="mm"
     inkscape:cy="104.52054"
     inkscape:cx="463.58614"
     inkscape:zoom="1.979899"
     inkscape:pageshadow="2"
     inkscape:pageopacity="0.0"
     borderopacity="1.0"
     bordercolor="#666666"
     pagecolor="#ffffff"
     id="base" />
  <metadata
     id="metadata999">
    <rdf:RDF>
      <cc:Work
         rdf:about="">
        <dc:format>image/svg+xml</dc:format>
        <dc:type
           rdf:resource="http://purl.org/dc/dcmitype/StillImage" />
        <dc:title></dc:title>
      </cc:Work>
    </rdf:RDF>
  </metadata>
  <g
     transform="translate(-37.589729,-198.70209)"
     id="layer1"
     inkscape:groupmode="layer"
     inkscape:label="Livello 1">
    <rect
       y="198.70209"
       x="37.589729"
       height="15.345833"
       width="130.43959"
       id="rect1839"
       style="opacity:1;fill:#ffffff;stroke:none;stroke-width:3;stroke-linecap:round;stroke-linejoin:round;stroke-miterlimit:4;stroke-dasharray:none" />
    <g
       id="g1165"
       transform="matrix(0.09750467,0,0,0.09750467,151.26847,199.6417)"
       style="stroke-width:1.03116">
      <path
         transform="scale(0.26458333)"
         d="M 30,0 C 13.38,0 0,13.38 0,30 v 452 10 c 0,16.62002 13.38,30 30,30 h 302 c 16.62,0 30,-13.37998 30,-30 V 482 135.75 L 226.25,0 Z"
         style="fill:#000000;fill-opacity:0.2;stroke:none;stroke-width:3.75819;stroke-linecap:round;stroke-opacity:1;filter:url(#filter1251)"
         id="path860" />
      <path
         sodipodi:nodetypes="csssssscc"
         d="m 95.779167,35.917187 v 91.611973 c 0,4.39738 -3.540125,7.9375 -7.9375,7.9375 H 7.9375 C 3.540125,135.46666 0,131.92654 0,127.52916 V 7.9375046 C 0,3.5401296 3.540125,4.6173732e-6 7.9375,4.6173732e-6 h 51.924479 z"
         style="fill:#0072b2;fill-opacity:1;stroke:none;stroke-width:0.994356;stroke-linecap:round;stroke-opacity:1"
         id="rect837" />
      <path
         mask="url(#mask1132)"
         id="path962"
         style="fill:none;stroke:#000000;stroke-width:2.48889;stroke-linecap:round;stroke-linejoin:round;stroke-miterlimit:4;stroke-dasharray:none;stroke-opacity:0.2;filter:url(#filter1247)"
         d="m 71.586679,74.723007 -4.698356,8.531259 12.36414,-2.596468 m -50.322073,0.741848 11.375023,6.552996 -9.891312,20.277198 m -6.429367,-47.849241 5.934797,2.225546 -1.730985,4.080167 m 3.832891,-12.240501 -2.101906,8.160334 10.138583,0.247271 m 26.706562,-0.247271 -9.396742,-4.574734 m -17.30982,4.822016 17.30982,-4.822016 3.33832,-8.283976 m -10.880453,-0.741849 -11.49867,0.989131 m 20.029919,-10.509523 -10.509531,2.101905 6.553016,3.709244 m -0.618221,-10.633165 -5.934795,6.923921 -9.520388,8.407618 M 24.726576,45.667266 38.327131,49.994717 M 18.173585,43.194439 22.006477,54.693093 8.776845,53.085755 M 38.327131,49.994717 22.006477,54.693093 9.8896104,64.089843 M 25.468445,33.426762 37.338013,36.146876 m 5.316578,-8.160336 -5.316578,8.160336 12.487788,-5.19294 m -17.309793,-4.822018 4.822005,10.014958 0.989118,13.847841 1.730983,12.85871 0.247299,25.099215 26.58291,-4.698376 11.004077,8.036695"
         sodipodi:nodetypes="ccccccccccccccccccccccccccccccccccccccccccccc" />
      <path
         mask="url(#mask1136)"
         sodipodi:nodetypes="ccccccccccccccccccccccccccccccccccccccccccccc"
         d="m 71.5862,72.871042 -4.698356,8.531259 12.36414,-2.596468 m -50.322073,0.741848 11.375023,6.552996 -9.891312,20.277203 m -6.429367,-47.849246 5.934797,2.225546 -1.730985,4.080167 m 3.832891,-12.240501 -2.101906,8.160334 10.138583,0.247271 M 66.764197,60.75418 57.367455,56.179446 m -17.30982,4.822016 17.30982,-4.822016 3.33832,-8.283976 M 49.825322,47.153621 38.326652,48.142752 M 58.356571,37.633229 47.84704,39.735134 54.400056,43.444378 M 53.781835,32.811213 47.84704,39.735134 38.326652,48.142752 M 24.726097,43.815301 38.326652,48.142752 M 18.173106,41.342474 22.005998,52.841128 8.7763656,51.23379 M 38.326652,48.142752 22.005998,52.841128 9.889131,62.237878 m 15.578835,-30.663081 11.869568,2.720114 m 5.316578,-8.160336 -5.316578,8.160336 12.487788,-5.19294 m -17.309793,-4.822018 4.822005,10.014958 0.989118,13.847841 1.730983,12.85871 0.247299,25.099215 26.58291,-4.698376 11.004077,8.036695"
         style="fill:none;stroke:#ffffff;stroke-width:2.48889;stroke-linecap:round;stroke-linejoin:round;stroke-miterlimit:4;stroke-dasharray:none;stroke-opacity:1"
         id="path957" />
      <path
         sodipodi:nodetypes="ccccccsc"
         d="m 62.181453,36.243289 33.597714,33.597714 -2e-6,-31.277983 V 35.917187 L 59.861978,0 v 27.979687 2.645833 c 0,2.198691 0.884902,4.183066 2.319475,5.617769"
         style="fill:url(#radialGradient907);fill-opacity:1;stroke:none;stroke-width:0.272826px;stroke-linecap:butt;stroke-linejoin:miter;stroke-opacity:1"
         id="path890" />
      <path
         clip-path="url(#clipPath1273)"
         transform="scale(0.26458333)"
         d="m 226.25,0 v 105.75 10 c 0,16.62002 13.37805,30 29.99805,30 H 362 v -10 z"
         style="fill:#000000;fill-opacity:0.2;stroke:none;stroke-width:3.75819;stroke-linecap:round;stroke-opacity:1;filter:url(#filter1263)"
         id="path852" />
      <path
         id="path840"
         style="fill:#7ac0ff;fill-opacity:1;stroke:none;stroke-width:0.994356;stroke-linecap:round;stroke-opacity:1"
         d="M 95.779167,35.917187 H 67.799146 c -4.397375,0 -7.937167,-3.54012 -7.937167,-7.9375 V 4.6173732e-6 Z"
         sodipodi:nodetypes="csscc" />
      <path
         mask="url(#mask1303)"
         sodipodi:nodetypes="csccscc"
         d="m 0,2.2937433 c 0,-4.397375 3.540125,-7.9374999 7.9375,-7.9374999 H 59.861979 V 2.6458333 H 7.9375 C 3.540125,2.6458333 0,6.1859583 0,10.583333 Z"
         style="mix-blend-mode:normal;fill:#4b98dc;fill-opacity:0.679612;stroke:none;stroke-width:0.994356;stroke-linecap:round;stroke-opacity:1;filter:url(#filter1297)"
         id="path845" />
      <path
         id="path866"
         style="fill:url(#linearGradient874);fill-opacity:1;stroke:none;stroke-width:0.994356;stroke-linecap:round;stroke-opacity:1"
         d="m 95.779167,35.917187 v 91.611973 c 0,4.39738 -3.540125,7.9375 -7.9375,7.9375 H 7.9375 C 3.540125,135.46666 0,131.92654 0,127.52916 V 7.9375046 C 0,3.5401296 3.540125,4.6173732e-6 7.9375,4.6173732e-6 h 51.924479 z"
         sodipodi:nodetypes="csssssscc" />
      <path
         sodipodi:nodetypes="csssssscc"
         d="m 95.779167,35.917187 v 91.611973 c 0,4.39738 -3.540125,7.9375 -7.9375,7.9375 H 7.9374998 c -4.397375,0 -7.93749996666667,-3.54012 -7.93749996666667,-7.9375 V 7.9375046 C -1.6666667e-7,3.5401296 3.5401248,4.6173732e-6 7.9374998,4.6173732e-6 H 59.861979 Z"
         style="fill:url(#linearGradient1465);fill-opacity:1;stroke:none;stroke-width:0.994356;stroke-linecap:round;stroke-opacity:1"
         id="path876" />
      <g
         transform="matrix(0.94398212,0,0,0.94398212,5.3531295,5.0691207)"
         id="g1144"
         style="stroke-width:1.03116">
        <path
           d="m 95.561092,57.353392 c -10.071148,0 -25.224245,5.200877 -37.971325,15.554605 -9.996469,8.119562 -20.610647,19.169454 -28.249438,32.353063 13.099971,9.43167 27.746859,15.9754 43.929617,19.65255 -9.083598,-4.03765 -17.221787,-9.70843 -24.046076,-17.64854 8.757451,-21.631377 29.419179,-39.011567 46.555297,-39.011567 17.136123,0 37.361193,17.38019 46.118633,39.011567 -6.82429,7.94011 -14.96196,13.61089 -24.04556,17.64854 16.18276,-3.67715 30.82964,-10.22088 43.92962,-19.65255 C 154.14306,92.077451 143.52837,81.027559 133.5319,72.907997 120.78482,62.554269 105.63223,57.353392 95.561092,57.353392 Z m 0,20.541898 A 15.034061,15.034061 0 0 0 80.526869,92.929515 15.034061,15.034061 0 0 0 95.561092,107.96374 15.034061,15.034061 0 0 0 110.5948,92.929515 15.034061,15.034061 0 0 0 95.561092,77.89529 Z m 23.286438,6.293672 c 4.9e-4,3.71e-4 10e-4,6.67e-4 0.002,10e-4 a 24.790206,25.497387 0 0 0 -5.2e-4,-10e-4 z m 0.002,10e-4 a 24.790206,25.497387 0 0 1 1.50171,8.739518 24.790206,25.497387 0 0 1 -24.78918,25.49715 24.790206,25.497387 0 0 1 -24.790735,-25.49715 24.790206,25.497387 0 0 1 1.41025,-8.477001 c -3.157379,2.35976 -6.201034,5.105691 -9.038725,8.160742 a 32.420044,33.344879 0 0 0 -0.0021,0.316259 32.420044,33.344879 0 0 0 32.420758,33.34525 32.420044,33.344879 0 0 0 32.419732,-33.34525 32.420044,33.344879 0 0 0 -0.004,-0.464571 c -2.86467,-3.10759 -5.93722,-5.89602 -9.12761,-8.274947 z"
           style="fill:#000000;fill-opacity:0.2;stroke:none;stroke-width:3.15494;stroke-linecap:round;stroke-linejoin:round;stroke-miterlimit:4;stroke-dasharray:none;stroke-opacity:0.2;filter:url(#filter1285)"
           id="path1058" />
        <path
           id="circle1015"
           style="fill:#fffffd;fill-opacity:1;stroke:none;stroke-width:3.15494;stroke-linecap:round;stroke-linejoin:round;stroke-miterlimit:4;stroke-dasharray:none;stroke-opacity:0.2"
           d="m 95.561092,54.707523 c -10.071148,0 -25.224245,5.200877 -37.971325,15.554605 -9.996469,8.119562 -20.610647,19.169454 -28.249438,32.353062 13.099971,9.43167 27.746859,15.9754 43.929617,19.65255 -9.083598,-4.03765 -17.221787,-9.70843 -24.046076,-17.64854 8.757451,-21.631376 29.419179,-39.011566 46.555297,-39.011566 17.136123,0 37.361193,17.38019 46.118633,39.011566 -6.82429,7.94011 -14.96196,13.61089 -24.04556,17.64854 16.18276,-3.67715 30.82964,-10.22088 43.92962,-19.65255 C 154.14306,89.431582 143.52837,78.38169 133.5319,70.262128 120.78482,59.9084 105.63223,54.707523 95.561092,54.707523 Z m 0,20.541898 A 15.034061,15.034061 0 0 0 80.526869,90.283646 15.034061,15.034061 0 0 0 95.561092,105.31787 15.034061,15.034061 0 0 0 110.5948,90.283646 15.034061,15.034061 0 0 0 95.561092,75.249421 Z m 23.286438,6.293672 c 4.9e-4,3.71e-4 10e-4,6.67e-4 0.002,0.001 a 24.790206,25.497387 0 0 0 -5.2e-4,-0.001 z m 0.002,0.001 a 24.790206,25.497387 0 0 1 1.50171,8.739518 24.790206,25.497387 0 0 1 -24.78918,25.497149 24.790206,25.497387 0 0 1 -24.790735,-25.497149 24.790206,25.497387 0 0 1 1.41025,-8.477001 c -3.157379,2.35976 -6.201034,5.105691 -9.038725,8.160742 a 32.420044,33.344879 0 0 0 -0.0021,0.316259 32.420044,33.344879 0 0 0 32.420758,33.345249 32.420044,33.344879 0 0 0 32.419732,-33.345249 32.420044,33.344879 0 0 0 -0.004,-0.464571 c -2.86467,-3.10759 -5.93722,-5.89602 -9.12761,-8.274947 z" />
        <path
           d="m 95.561092,54.707523 c -10.071148,0 -25.224245,5.200877 -37.971325,15.554605 -9.996469,8.119562 -20.610647,19.169454 -28.249438,32.353062 13.099971,9.43167 27.746859,15.9754 43.929617,19.65255 -9.083598,-4.03765 -17.221787,-9.70843 -24.046076,-17.64854 8.757451,-21.631376 29.419179,-39.011566 46.555297,-39.011566 17.136123,0 37.361193,17.38019 46.118633,39.011566 -6.82429,7.94011 -14.96196,13.61089 -24.04556,17.64854 16.18276,-3.67715 30.82964,-10.22088 43.92962,-19.65255 C 154.14306,89.431582 143.52837,78.38169 133.5319,70.262128 120.78482,59.9084 105.63223,54.707523 95.561092,54.707523 Z"
           style="fill:url(#linearGradient1074);fill-opacity:1;stroke:none;stroke-width:3.15494;stroke-linecap:round;stroke-linejoin:round;stroke-miterlimit:4;stroke-dasharray:none;stroke-opacity:0.2"
           id="path1066"
           sodipodi:nodetypes="sscccscccss" />
        <path
           d="m 95.561092,75.249421 c -8.30321,-8.9e-5 -15.034314,6.731015 -15.034223,15.034225 -9e-5,8.30321 6.731013,15.034314 15.034223,15.034224 8.303008,-1.9e-4 15.033798,-6.731216 15.033708,-15.034224 9e-5,-8.303009 -6.7307,-15.03403 -15.033708,-15.034225 z m 23.286438,6.293672 c 4.9e-4,3.71e-4 10e-4,6.67e-4 0.002,0.001 l -5.2e-4,-0.001 z m 0.002,0.001 c 0.99345,2.800481 1.50172,5.758453 1.50171,8.739518 -1.3e-4,14.081309 -11.09842,25.496569 -24.78918,25.497149 -13.691369,3e-4 -24.790607,-11.41521 -24.790735,-25.497149 2.2e-5,-2.887413 0.476888,-5.753846 1.41025,-8.477001 -3.157379,2.35976 -6.201034,5.105691 -9.038725,8.160742 -0.0012,0.105416 -0.0019,0.210837 -0.0021,0.316259 -1.99e-4,18.416299 14.515243,33.345659 32.420758,33.345249 17.905112,-1.8e-4 32.419932,-14.92936 32.419732,-33.345249 -2.8e-4,-0.154865 -0.002,-0.309725 -0.004,-0.464571 -2.86467,-3.10759 -5.93722,-5.89602 -9.12761,-8.274947 z"
           style="fill:url(#linearGradient1148);fill-opacity:1;stroke:none;stroke-width:3.15494;stroke-linecap:round;stroke-linejoin:round;stroke-miterlimit:4;stroke-dasharray:none;stroke-opacity:0.2"
           id="path1076"
           sodipodi:nodetypes="ccccccccccccccccccccc" />
      </g>
    </g>
  </g>
</svg>
