<?xml version="1.0" encoding="UTF-8"?>
<svg width="1536" height="512" version="1.1" viewBox="0 0 406.4 135.47" xmlns="http://www.w3.org/2000/svg" xmlns:cc="http://creativecommons.org/ns#" xmlns:dc="http://purl.org/dc/elements/1.1/" xmlns:rdf="http://www.w3.org/1999/02/22-rdf-syntax-ns#" xmlns:xlink="http://www.w3.org/1999/xlink">
 <defs>
  <linearGradient id="linearGradient874" x1="92.604" x2="33.224" y1="133.88" y2="52.803" gradientUnits="userSpaceOnUse">
   <stop stop-opacity=".2" offset="0"/>
   <stop stop-opacity="0" offset="1"/>
  </linearGradient>
  <radialGradient id="radialGradient907" cx="72.267" cy="27.698" r="17.959" gradientTransform="matrix(1.6209 1.6209 -.69733 .69733 -25.482 -113.25)" gradientUnits="userSpaceOnUse">
   <stop stop-opacity=".2" offset="0"/>
   <stop stop-opacity="0" offset="1"/>
  </radialGradient>
  <linearGradient id="linearGradient1074" x1="104.95" x2="81.111" y1="128.23" y2="55.173" gradientUnits="userSpaceOnUse">
   <stop stop-color="#77bbf9" stop-opacity=".3" offset="0"/>
   <stop stop-color="#79befc" stop-opacity="0" offset="1"/>
  </linearGradient>
  <mask id="mask1132" maskUnits="userSpaceOnUse">
   <path d="m73.27 119.62v5.2917c-16.183-3.6772-32.483-5.4962-45.583-14.928-1.306-0.91076-0.25065-6.101-0.25065-6.101s0.86581-1.8532 1.9043-3.9154c7.6388-13.184 18.253-24.234 28.249-32.353 12.747-10.354 27.9-15.555 37.971-15.555 0.0716 0 0.14596 0.0031 0.21807 0.0036v-16.148l-35.917-35.917h-51.924c-4.3974 0-7.9375 3.5401-7.9375 7.9375v119.59c0 4.3974 3.5401 7.9375 7.9375 7.9375h79.904c4.3974 0 7.9375-3.5401 7.9375-7.9375v-1.2552c-0.07252 5.3e-4 -0.14504 1e-3 -0.21756 1e-3 -7.9225 2.3e-4 -15.181-2.9224-20.813-7.7767" fill="#fff"/>
  </mask>
  <mask id="mask1136" maskUnits="userSpaceOnUse">
   <path d="m73.27 119.62v5.2917c-16.183-3.6772-32.483-5.4962-45.583-14.928-1.306-0.91076-0.25065-6.101-0.25065-6.101s0.86581-1.8532 1.9043-3.9154c7.6388-13.184 18.253-24.234 28.249-32.353 12.747-10.354 27.9-15.555 37.971-15.555 0.0716 0 0.14596 0.0031 0.21807 0.0036v-16.148l-35.917-35.917h-51.924c-4.3974 0-7.9375 3.5401-7.9375 7.9375v119.59c0 4.3974 3.5401 7.9375 7.9375 7.9375h79.904c4.3974 0 7.9375-3.5401 7.9375-7.9375v-1.2552c-0.07252 5.3e-4 -0.14504 1e-3 -0.21756 1e-3 -7.9225 2.3e-4 -15.181-2.9224-20.813-7.7767" fill="#fff"/>
  </mask>
  <linearGradient id="linearGradient1148" x1="104.8" x2="87.129" y1="130.93" y2="69.599" gradientUnits="userSpaceOnUse">
   <stop stop-color="#78bdfb" stop-opacity=".5" offset="0"/>
   <stop stop-color="#7ac0ff" stop-opacity="0" offset="1"/>
  </linearGradient>
  <filter id="filter1235" x="-.0082071" y="-.022311" width="1.0164" height="1.0446" color-interpolation-filters="sRGB">
   <feGaussianBlur stdDeviation="0.88616576"/>
  </filter>
  <filter id="filter1239" x="-.0068378" y="-.048972" width="1.0137" height="1.0979" color-interpolation-filters="sRGB">
   <feGaussianBlur stdDeviation="0.80117591"/>
  </filter>
  <filter id="filter1247" x="-.012989" y="-.011151" width="1.026" height="1.0223" color-interpolation-filters="sRGB">
   <feGaussianBlur stdDeviation="0.38143385"/>
  </filter>
  <filter id="filter1251" x="-.014652" y="-.010161" width="1.0293" height="1.0203" color-interpolation-filters="sRGB">
   <feGaussianBlur stdDeviation="2.21"/>
  </filter>
  <filter id="filter1263" x="-.049768" y="-.046353" width="1.0995" height="1.0927" color-interpolation-filters="sRGB">
   <feGaussianBlur stdDeviation="2.815"/>
  </filter>
  <clipPath id="clipPath1273">
   <path d="m362 135.75v346.25c0 16.62-13.38 30-30 30h-302c-16.62 0-30-13.38-30-30v-452c0-16.62 13.38-30 30-30h196.25z" fill="#fff"/>
  </clipPath>
  <filter id="filter1285" x="-.020525" y="-.039442" width="1.0411" height="1.0789" color-interpolation-filters="sRGB">
   <feGaussianBlur stdDeviation="1.1326661"/>
  </filter>
  <filter id="filter1297" x="-.030506" y="-.11254" width="1.061" height="1.2251" color-interpolation-filters="sRGB">
   <feGaussianBlur stdDeviation="0.76089069"/>
  </filter>
  <mask id="mask1303" maskUnits="userSpaceOnUse">
   <path d="m95.779 35.917v91.612c0 4.3974-3.5401 7.9375-7.9375 7.9375h-79.904c-4.3974 0-7.9375-3.5401-7.9375-7.9375v-119.59c0-4.3974 3.5401-7.9375 7.9375-7.9375h51.924z" fill="#fff"/>
  </mask>
  <radialGradient id="radialGradient1315" cx="1562" cy="-615" r="531.41" gradientTransform="matrix(-.22491 -.83939 2.4119 -.64627 3627.8 1405.1)" gradientUnits="userSpaceOnUse">
   <stop stop-color="#00639b" stop-opacity=".2" offset="0"/>
   <stop stop-color="#00639b" stop-opacity="0" offset="1"/>
  </radialGradient>
  <radialGradient id="radialGradient1317" cx="1562" cy="-615" r="531.41" gradientTransform="matrix(-.17376 -.93347 2.8351 -.52774 3808.1 1625)" gradientUnits="userSpaceOnUse">
   <stop stop-opacity=".5" offset="0"/>
   <stop stop-opacity="0" offset="1"/>
  </radialGradient>
  <mask id="mask1374" maskUnits="userSpaceOnUse">
   <path d="m192.07 7.5597v56.825c9.5267 1.8742 21.128 6.932 31.254 15.157 10.274 8.3447 21.183 19.701 29.033 33.25-13.463 9.6932-28.516 16.419-45.148 20.198 9.3355-4.1496 17.699-9.9776 24.712-18.138-7.7397-19.117-24.195-35.004-39.852-39.079v10.991a15.451 15.451 0 0 1 7.6807 13.355 15.451 15.451 0 0 1-7.6807 13.355v11.601a25.478 26.204 0 0 0 17.707-24.956 25.478 26.204 0 0 0-1.5431-8.9814c-1e-3 -2.65e-4 -2e-3 -0.0013-2e-3 -0.0016h2e-3a25.478 26.204 0 0 1 5.3e-4 0.0011c3.2789 2.4449 6.4366 5.3111 9.3808 8.5049a33.319 34.27 0 0 1 4e-3 0.47698 33.319 34.27 0 0 1-25.549 33.325v30.599h292.18v-156.48z" fill="#fff" stop-color="#000000" style="font-variation-settings:normal"/>
  </mask>
  <linearGradient id="linearGradient1465" x1="2.8348" x2="39.461" y1="1.9655" y2="52.047" gradientUnits="userSpaceOnUse">
   <stop stop-color="#79bffe" stop-opacity=".2" offset="0"/>
   <stop stop-color="#77bcf9" stop-opacity="0" offset="1"/>
  </linearGradient>
 </defs>
 <metadata>
  <rdf:RDF>
   <cc:Work rdf:about="">
    <dc:format>image/svg+xml</dc:format>
    <dc:type rdf:resource="http://purl.org/dc/dcmitype/StillImage"/>
    <dc:title/>
   </cc:Work>
  </rdf:RDF>
 </metadata>
 <g transform="translate(-1.2834 -10.972)">
  <g transform="matrix(.96979 0 0 .96979 13.598 .33151)" stroke-width="1.0312">
   <g transform="translate(-88.881)" mask="url(#mask1374)">
    <path d="m348.55 14.451c-1.0808 0-1.9168 0.28674-2.5078 0.86093-0.57418 0.57418-0.86093 1.3933-0.86093 2.4572 0 1.0133 0.28675 1.8155 0.86093 2.4066 0.59108 0.57418 1.427 0.86145 2.5078 0.86145 1.047 0 1.8577-0.28726 2.4319-0.86145 0.59108-0.59107 0.88678-1.3933 0.88678-2.4066 0-1.0639-0.2957-1.883-0.88678-2.4572-0.57417-0.57418-1.3848-0.86093-2.4319-0.86093zm-150.42 1.7224v5.193h10.893v31.842h6.0539v-31.842h10.893v-5.193zm110.83 0 12.919 37.035h6.3836l12.97-37.035h-6.2823l-7.7262 22.925c-0.28707 0.81062-0.65868 2.0604-1.1146 3.7491-0.45599 1.6888-0.79386 3.1747-1.0134 4.4581-0.13513-0.84439-0.4308-2.1279-0.88678-3.8504-0.45596-1.7394-0.88662-3.1578-1.2919-4.2556l-7.7262-23.026zm-63.709 8.5116c-1.7226 0-3.3355 0.48967-4.8385 1.4692-1.4861 0.97949-2.6937 2.3051-3.6225 3.977h-0.30385l-0.78549-4.9398h-4.6607v28.017h5.9526v-14.642c0-2.4825 0.73476-4.5002 2.204-6.0539 1.4861-1.5537 3.42-2.3306 5.8012-2.3306 0.91194 0 1.7901 0.1012 2.6345 0.30386l0.58239-5.5475c-0.77684-0.16888-1.7646-0.25322-2.9636-0.25322zm19.328 0c-3.9855 0-7.118 1.3088-9.3979 3.9264-2.2798 2.6176-3.42 6.2145-3.42 10.791 0 4.4584 1.2244 7.9625 3.6732 10.513 2.4656 2.5332 5.877 3.7998 10.234 3.7998 1.9083 0 3.6056-0.14337 5.0917-0.43047 1.4861-0.28709 2.9552-0.77676 4.4075-1.4692v-4.8385c-1.6381 0.72618-3.1746 1.2496-4.61 1.5704-1.4186 0.30398-2.9556 0.4563-4.6106 0.4563-2.5163 0-4.467-0.72633-5.8518-2.1787-1.3848-1.4692-2.119-3.5634-2.2035-6.2823h18.669v-3.2174c0-3.9349-1.0721-7.0252-3.2169-9.2713-2.1448-2.2461-5.0664-3.3688-8.7648-3.3688zm29.891 0c-3.9855 0-7.118 1.3088-9.3979 3.9264-2.2798 2.6176-3.42 6.2145-3.42 10.791 0 4.4584 1.2244 7.9625 3.6732 10.513 2.4656 2.5332 5.877 3.7998 10.234 3.7998 1.9083 0 3.6056-0.14337 5.0917-0.43047 1.4861-0.28709 2.9551-0.77676 4.4075-1.4692v-4.8385c-1.6381 0.72618-3.1746 1.2496-4.6101 1.5704-1.4186 0.30398-2.9556 0.4563-4.6106 0.4563-2.5163 0-4.4665-0.72633-5.8513-2.1787-1.3848-1.4692-2.1196-3.5634-2.204-6.2823h18.67v-3.2174c0-3.9349-1.0726-7.0252-3.2174-9.2713s-5.0664-3.3688-8.7648-3.3688zm76.704 0c-3.9855 0-7.118 1.3088-9.3979 3.9264-2.2798 2.6176-3.4199 6.2145-3.4199 10.791 0 4.4584 1.2244 7.9625 3.6732 10.513 2.4656 2.5332 5.877 3.7998 10.234 3.7998 1.9083 0 3.6056-0.14337 5.0917-0.43047 1.4861-0.28709 2.9551-0.77676 4.4075-1.4692v-4.8385c-1.6381 0.72618-3.1746 1.2496-4.61 1.5704-1.4186 0.30398-2.9556 0.4563-4.6106 0.4563-2.5163 0-4.467-0.72633-5.8518-2.1787-1.3848-1.4692-2.119-3.5634-2.2035-6.2823h18.669v-3.2174c0-3.9349-1.0721-7.0252-3.2168-9.2713-2.1447-2.2461-5.0664-3.3688-8.7648-3.3688zm72.246 0c-3.9855 0-7.118 1.3088-9.3979 3.9264-2.2798 2.6176-3.4199 6.2145-3.4199 10.791 0 4.4584 1.2244 7.9625 3.6732 10.513 2.4656 2.5332 5.877 3.7998 10.234 3.7998 1.9083 0 3.6056-0.14337 5.0917-0.43047 1.4861-0.28709 2.9556-0.77676 4.408-1.4692v-4.8385c-1.6381 0.72618-3.1751 1.2496-4.6106 1.5704-1.4186 0.30398-2.9556 0.4563-4.6106 0.4563-2.5163 0-4.4665-0.72633-5.8513-2.1787-1.3848-1.4692-2.1196-3.5634-2.204-6.2823h18.67v-3.2174c0-3.9349-1.0726-7.0252-3.2174-9.2713-2.1447-2.2461-5.0664-3.3688-8.7648-3.3688zm32.957 0c-1.7226 0-3.3354 0.48967-4.8385 1.4692-1.4861 0.97949-2.6937 2.3051-3.6225 3.977h-0.30385l-0.78497-4.9398h-4.6612v28.017h5.9531v-14.642c0-2.4825 0.73425-4.5002 2.2035-6.0539 1.4861-1.5537 3.42-2.3306 5.8012-2.3306 0.91194 0 1.7901 0.1012 2.6345 0.30386l0.5824-5.5475c-0.77685-0.16888-1.7646-0.25322-2.9636-0.25322zm-130.84 0.50643v28.017h5.9531v-28.017zm40.632 0 7.8528 28.017h6.5861l3.7238-13.02c0.5742-1.9083 1.3511-5.1426 2.3306-9.7022h0.22791c1.1484 5.0494 1.9422 8.2668 2.3812 9.6516l3.622 13.071h6.688l7.9034-28.017h-5.9784l-3.6225 13.806c-0.92882 3.7322-1.5197 6.637-1.773 8.7142h-0.20256c-0.0676-0.94571-0.29578-2.2719-0.68422-3.9775-0.37152-1.7057-0.68357-2.9723-0.93688-3.7998l-4.1295-14.743h-6.5355l-4.2556 14.743c-0.25331 0.79373-0.55745 1.9929-0.91207 3.5972-0.33777 1.5874-0.59076 2.9979-0.75964 4.2307h-0.15195c-0.33774-2.4318-0.91226-5.3535-1.7229-8.7648l-3.5719-13.806zm-121.59 4.0023c1.8914 0 3.3773 0.59931 4.4581 1.7983 1.0808 1.1821 1.6385 2.9305 1.6722 5.2441h-12.717c0.21953-2.2967 0.89474-4.0451 2.0262-5.2441 1.1484-1.199 2.6685-1.7983 4.5599-1.7983zm29.891 0c1.8914 0 3.3778 0.59931 4.4586 1.7983 1.0808 1.1821 1.6379 2.9305 1.6717 5.2441h-12.717c0.21955-2.2967 0.89527-4.0451 2.0268-5.2441 1.1484-1.199 2.668-1.7983 4.5594-1.7983zm76.704 0c1.8914 0 3.3773 0.59931 4.4581 1.7983 1.0808 1.1821 1.6384 2.9305 1.6722 5.2441h-12.717c0.21956-2.2967 0.89475-4.0451 2.0262-5.2441 1.1484-1.199 2.6685-1.7983 4.5599-1.7983zm72.246 0c1.8914 0 3.3778 0.59931 4.4586 1.7983 1.0808 1.1821 1.6379 2.9305 1.6717 5.2441h-12.717c0.21952-2.2967 0.89527-4.0451 2.0267-5.2441 1.1484-1.199 2.668-1.7983 4.5594-1.7983z" fill-opacity=".2" filter="url(#filter1239)" stroke-width="1.3374"/>
    <g shape-rendering="auto">
     <path d="m209.03 53.209v17.586c5.3e-4 2.3812 1.0984 4.4089 2.6035 5.9139 1.505 1.5049 3.5324 2.6014 5.9138 2.6014h2.465v14.559c0 2.3815 1.0964 4.4088 2.6014 5.9138 1.505 1.505 3.5329 2.6019 5.9144 2.6019h48.41v14.556c0 2.3815 1.0969 4.4114 2.6019 5.9164 1.505 1.505 3.5324 2.6014 5.9139 2.6014h69.483v20.047c-1.1e-4 1.6719 1.3553 3.0273 3.0272 3.0272 1.6719 1.2e-4 3.0273-1.3553 3.0272-3.0272v-20.047h69.483c2.3815 0 4.4088-1.0964 5.9138-2.6014 1.505-1.505 2.6035-3.5349 2.6035-5.9164v-14.556h20.664c2.3815 0 4.4109-1.0969 5.9159-2.6019s2.6014-3.5344 2.6014-5.9159l-0.0504-40.658h-5.9529l-0.0511 40.658c0 0.36352-0.27464 1.0813-0.82836 1.635-0.55375 0.55373-1.271 0.82992-1.6345 0.82992h-47.383c-0.36351 0-1.0808-0.27619-1.6345-0.82992-0.55372-0.55373-0.82836-1.2715-0.82836-1.635v-14.557h0.94361c2.3815 0 4.4088-1.0984 5.9139-2.6035 1.505-1.505 2.6034-3.5323 2.6034-5.9138l0.31663-17.584h-6.6876l0.31652 17.584c7e-3 0.36346-0.2762 1.0808-0.82992 1.6345-0.55374 0.55373-1.2695 0.82837-1.633 0.82837h-7.9432c-0.36348 0-1.0793-0.27464-1.633-0.82837-0.55372-0.55373-0.82992-1.271-0.82992-1.6345l0.26662-17.584h-6.5862l0.26676 17.584c0.0361 2.3812 1.0964 4.4088 2.6014 5.9138 1.505 1.505 3.5328 2.6035 5.9144 2.6035h0.94517v14.557c0 2.3815 1.0964 4.4109 2.6014 5.9159 1.505 1.505 3.5344 2.6019 5.9159 2.6019h20.664v14.556c0 0.36351-0.27464 1.0813-0.82836 1.635-0.55375 0.55374-1.271 0.82785-1.6345 0.82785h-145.02c-0.36352 0-1.0793-0.27411-1.633-0.82785-0.55372-0.55373-0.82992-1.2715-0.82992-1.635v-14.556h48.41c2.3815 0 4.4093-1.0969 5.9144-2.6019 1.505-1.505 2.6014-3.5344 2.6014-5.9159 2e-5 -0.0052 2e-5 -0.01035 0-0.0155l-0.0775-14.541h3.191c2.3815 0 4.4088-1.0984 5.9139-2.6035 1.505-1.505 2.6014-3.5323 2.6014-5.9139l-0.0503-17.584h-5.9529l-0.0491 17.584c0 0.36352-0.2767 1.0808-0.83045 1.6345-0.55372 0.55373-1.2689 0.82837-1.6324 0.82837h-12.465c-0.36351 0-1.0813-0.27464-1.635-0.82837-0.55372-0.55373-0.82992-1.271-0.82992-1.6345l0.16565-17.584h-6.3836l0.16508 17.584c0.0222 2.3814 1.0969 4.4088 2.6019 5.9139 1.505 1.505 3.5344 2.6035 5.9159 2.6035h3.221l0.0775 14.557c0 0.36352-0.2762 1.0813-0.82992 1.635-0.55374 0.55373-1.2695 0.82992-1.633 0.82992h-102.87c-0.3635 0-1.0792-0.2762-1.633-0.82992-0.55372-0.55373-0.82992-1.2695-0.82992-1.633v-14.559h2.465c2.3816 0 4.4087-1.0963 5.9138-2.6014 1.5052-1.5051 2.6035-3.5344 2.6035-5.9159l-0.0514-17.584h-5.953l-0.05 17.584c1e-5 0.36348-0.27463 1.0808-0.82837 1.6345-0.55374 0.5537-1.2704 0.82837-1.6345 0.82837h-10.983c-0.3635 0-1.0786-0.27454-1.6325-0.82837-0.55389-0.55383-0.83035-1.2708-0.83044-1.6345v-17.584z" color="#000000" color-rendering="auto" dominant-baseline="auto" fill-opacity=".2" filter="url(#filter1235)" image-rendering="auto" solid-color="#000000" stop-color="#000000" style="font-feature-settings:normal;font-variant-alternates:normal;font-variant-caps:normal;font-variant-east-asian:normal;font-variant-ligatures:normal;font-variant-numeric:normal;font-variant-position:normal;font-variation-settings:normal;inline-size:0;isolation:auto;mix-blend-mode:normal;shape-margin:0;shape-padding:0;text-decoration-color:#000000;text-decoration-line:none;text-decoration-style:solid;text-indent:0;text-orientation:mixed;text-transform:none;white-space:normal"/>
     <path transform="scale(.26458)" d="m790.02 193.1v66.467c2e-3 8.9999 4.1515 16.664 9.8398 22.352 5.6884 5.6879 13.351 9.832 22.352 9.832h9.3164v55.025c0 9.0009 4.1437 16.663 9.832 22.352 5.6883 5.6883 13.353 9.834 22.354 9.834h182.97v55.016c0 9.0009 4.1457 16.673 9.834 22.361 5.6883 5.6883 13.351 9.832 22.352 9.832h262.61v75.768c-4e-4 6.3191 5.1223 11.442 11.441 11.441 6.3191 4.3e-4 11.442-5.1223 11.441-11.441v-75.768h262.61c9.0009 0 16.663-4.1437 22.352-9.832 5.6883-5.6883 9.8399-13.36 9.8399-22.361v-55.016h78.102c9.001 0 16.671-4.1457 22.359-9.834s9.832-13.358 9.832-22.359l-0.1903-153.67h-22.499l-0.1932 153.67c0 1.3739-1.038 4.0868-3.1308 6.1797-2.0929 2.0928-4.8039 3.1367-6.1778 3.1367h-179.09c-1.3739 0-4.0849-1.0439-6.1778-3.1367-2.0928-2.0928-3.1308-4.8058-3.1308-6.1797v-55.018h3.5664c9.0009 0 16.663-4.1516 22.352-9.8398 5.6882-5.6883 9.8398-13.351 9.8398-22.352l1.1967-66.459h-25.276l1.1963 66.459c0.025 1.3737-1.0439 4.0849-3.1367 6.1777-2.0929 2.0928-4.7981 3.1309-6.1719 3.1309h-30.022c-1.3738 0-4.0791-1.038-6.1719-3.1309-2.0928-2.0928-3.1367-4.8038-3.1367-6.1777l1.0077-66.459h-24.893l1.0082 66.459c0.1365 8.9999 4.1437 16.663 9.832 22.352s13.352 9.8398 22.354 9.8398h3.5723v55.018c0 9.001 4.1437 16.671 9.832 22.359s13.358 9.834 22.359 9.834h78.102v55.016c0 1.3739-1.038 4.0868-3.1308 6.1797-2.0929 2.0929-4.8039 3.1289-6.1777 3.1289h-548.11c-1.3739 0-4.0791-1.036-6.1719-3.1289-2.0928-2.0928-3.1367-4.8058-3.1367-6.1797v-55.016h182.97c9.001 0 16.665-4.1457 22.354-9.834s9.832-13.358 9.832-22.359c1e-4 -0.0195 1e-4 -0.0391 0-0.0586l-0.2929-54.959h12.06c9.001 0 16.663-4.1516 22.352-9.8398 5.6882-5.6883 9.832-13.351 9.832-22.352l-0.1901-66.459h-22.499l-0.1856 66.459c0 1.3739-1.0458 4.0849-3.1387 6.1777-2.0928 2.0928-4.796 3.1309-6.1699 3.1309h-47.111c-1.3739 0-4.0869-1.038-6.1797-3.1309-2.0928-2.0928-3.1367-4.8038-3.1367-6.1777l0.6261-66.459h-24.127l0.6239 66.459c0.084 9.0006 4.1457 16.663 9.834 22.352s13.358 9.8398 22.359 9.8398h12.174l0.293 55.018c0 1.3739-1.0439 4.0868-3.1367 6.1797-2.0929 2.0928-4.7981 3.1367-6.1719 3.1367h-388.81c-1.3739 0-4.079-1.0439-6.1719-3.1367-2.0928-2.0928-3.1367-4.798-3.1367-6.1719v-55.025h9.3164c9.0013 0 16.663-4.1437 22.352-9.832 5.6888-5.6884 9.84-13.358 9.8398-22.359l-0.19445-66.459h-22.499l-0.18905 66.459c4e-5 1.3738-1.038 4.085-3.1309 6.1777-2.0929 2.0927-4.8017 3.1309-6.1777 3.1309h-41.51c-1.3738 0-4.0765-1.0376-6.1699-3.1309-2.0934-2.0932-3.1383-4.8029-3.1387-6.1777v-66.459z" color="#000000" color-rendering="auto" dominant-baseline="auto" fill="#c4e3fe" image-rendering="auto" solid-color="#000000" stop-color="#000000" style="font-feature-settings:normal;font-variant-alternates:normal;font-variant-caps:normal;font-variant-east-asian:normal;font-variant-ligatures:normal;font-variant-numeric:normal;font-variant-position:normal;font-variation-settings:normal;inline-size:0;isolation:auto;mix-blend-mode:normal;shape-margin:0;shape-padding:0;text-decoration-color:#000000;text-decoration-line:none;text-decoration-style:solid;text-indent:0;text-orientation:mixed;text-transform:none;white-space:normal"/>
     <path transform="scale(.26458)" d="m790.02 193.1v66.467c2e-3 8.9999 4.1515 16.664 9.8398 22.352 5.6884 5.6879 13.351 9.832 22.352 9.832h9.3164v55.025c0 9.0009 4.1437 16.663 9.832 22.352 5.6883 5.6883 13.353 9.834 22.354 9.834h182.97v55.016c0 9.0009 4.1457 16.673 9.834 22.361 5.6883 5.6883 13.351 9.832 22.352 9.832h262.61v75.768c-4e-4 6.3191 5.1223 11.442 11.441 11.441 6.3191 4.3e-4 11.442-5.1223 11.441-11.441v-75.768h262.61c9.0008 0 16.663-4.1437 22.352-9.832 5.6883-5.6883 9.8399-13.36 9.8399-22.361v-55.016h78.102c9.001 0 16.671-4.1457 22.359-9.834s9.832-13.358 9.832-22.359l-0.1894-153.67h-22.5l-0.1934 153.67c0 1.3739-1.038 4.0868-3.1308 6.1797-2.0929 2.0928-4.8039 3.1367-6.1778 3.1367h-179.09c-1.3739 0-4.0849-1.0439-6.1778-3.1367-2.0928-2.0928-3.1308-4.8058-3.1308-6.1797v-55.018h3.5664c9.0009 0 16.663-4.1516 22.352-9.8398 5.6882-5.6883 9.8398-13.351 9.8398-22.352l1.1973-66.459h-96.604l1.0078 66.459c0.1365 8.9999 4.1437 16.663 9.832 22.352s13.352 9.8398 22.354 9.8398h3.5723v55.018c0 9.001 4.1437 16.671 9.832 22.359s13.358 9.834 22.359 9.834h78.102v55.016c0 1.3739-1.038 4.0868-3.1308 6.1797-2.0929 2.0929-4.804 3.1289-6.1777 3.1289h-548.11c-1.3739 0-4.0791-1.036-6.1719-3.1289-2.0928-2.0928-3.1367-4.8058-3.1367-6.1797v-55.016h182.97c9.001 0 16.665-4.1457 22.354-9.834s9.832-13.358 9.832-22.359c1e-4 -0.0195 1e-4 -0.0391 0-0.0586l-0.2929-54.959h12.06c9.001 0 16.663-4.1516 22.352-9.8398 5.6882-5.6883 9.832-13.351 9.832-22.352l-0.1894-66.459h-22.5l-0.1856 66.459c0 1.3739-1.0458 4.0849-3.1387 6.1777-2.0928 2.0928-4.796 3.1309-6.1699 3.1309h-47.111c-1.3739 0-4.0869-1.038-6.1797-3.1309-2.0928-2.0928-3.1367-4.8038-3.1367-6.1777l0.625-66.459h-24.127l0.625 66.459c0.084 9.0006 4.1457 16.663 9.834 22.352s13.358 9.8398 22.359 9.8398h12.174l0.293 55.018c0 1.3739-1.0439 4.0868-3.1367 6.1797-2.0929 2.0928-4.7981 3.1367-6.1719 3.1367h-388.81c-1.3739 0-4.079-1.0439-6.1719-3.1367-2.0928-2.0928-3.1367-4.798-3.1367-6.1719v-55.025h9.3164c9.0013 0 16.663-4.1437 22.352-9.832 5.6888-5.6884 9.84-13.358 9.8398-22.359l-0.19532-66.459h-22.498l-0.18946 66.459c4e-5 1.3738-1.038 4.085-3.1309 6.1777-2.0929 2.0927-4.8017 3.1309-6.1777 3.1309h-41.51c-1.3738 0-4.0765-1.0376-6.1699-3.1309-2.0934-2.0932-3.1383-4.8029-3.1387-6.1777v-66.459h-2e-3zm770.53 0 1.1973 66.459c0.025 1.3737-1.0439 4.0849-3.1367 6.1777-2.0929 2.0928-4.7981 3.1309-6.1719 3.1309h-30.022c-1.3738 0-4.0791-1.038-6.1719-3.1309-2.0928-2.0928-3.1367-4.8038-3.1367-6.1777l1.0078-66.459z" color="#000000" color-rendering="auto" dominant-baseline="auto" fill="url(#radialGradient1315)" image-rendering="auto" solid-color="#000000" stop-color="#000000" style="font-feature-settings:normal;font-variant-alternates:normal;font-variant-caps:normal;font-variant-east-asian:normal;font-variant-ligatures:normal;font-variant-numeric:normal;font-variant-position:normal;font-variation-settings:normal;inline-size:0;isolation:auto;mix-blend-mode:normal;shape-margin:0;shape-padding:0;text-decoration-color:#000000;text-decoration-line:none;text-decoration-style:solid;text-indent:0;text-orientation:mixed;text-transform:none;white-space:normal"/>
    </g>
    <path transform="scale(.26458)" d="m1317.4 46.619c-4.085 0-7.2445 1.0838-9.4785 3.2539-2.1701 2.1701-3.2539 5.266-3.2539 9.2871 0 3.8297 1.0838 6.8617 3.2539 9.0957 2.234 2.1701 5.3935 3.2559 9.4785 3.2559 3.9573 0 7.0213-1.0857 9.1914-3.2559 2.234-2.234 3.3516-5.266 3.3516-9.0957 0-4.0212-1.1176-7.117-3.3516-9.2871-2.1701-2.1701-5.2341-3.2539-9.1914-3.2539zm-568.51 6.5098v19.627h41.17v120.35h22.881v-120.35h41.17v-19.627zm418.87 0 48.828 139.97h24.127l49.02-139.97h-23.744l-29.201 86.646c-1.085 3.0637-2.4895 7.7872-4.2128 14.17-1.7234 6.3828-3.0004 11.999-3.8301 16.85-0.5107-3.1914-1.6282-8.0423-3.3516-14.553-1.7233-6.5743-3.351-11.935-4.8828-16.084l-29.201-87.029zm-240.79 32.17c-6.5104 0-12.606 1.8507-18.287 5.5527-5.6169 3.702-10.181 8.7123-13.691 15.031h-1.1484l-2.9688-18.67h-17.615v105.89h22.498v-55.34c0-9.3827 2.7771-17.009 8.3301-22.881 5.6169-5.8722 12.926-8.8086 21.926-8.8086 3.4467 0 6.7656 0.3825 9.957 1.1484l2.2012-20.967c-2.9361-0.63828-6.6694-0.95703-11.201-0.95703zm73.051 0c-15.063 0-26.903 4.9465-35.52 14.84-8.6168 9.8933-12.926 23.488-12.926 40.785 0 16.851 4.6278 30.094 13.883 39.732 9.3188 9.5742 22.212 14.361 38.68 14.361 7.2126 0 13.627-0.54188 19.244-1.627 5.6169-1.0851 11.169-2.9358 16.658-5.5527v-18.287c-6.1913 2.7446-11.998 4.7228-17.424 5.9356-5.3615 1.1489-11.171 1.7246-17.426 1.7246-9.5103 0-16.883-2.7452-22.117-8.2344-5.2339-5.553-8.009-13.468-8.3281-23.744h70.561v-12.16c0-14.872-4.0521-26.552-12.158-35.041-8.1062-8.4891-19.149-12.732-33.127-12.732zm112.97 0c-15.063 0-26.903 4.9465-35.52 14.84-8.6167 9.8933-12.926 23.488-12.926 40.785 0 16.851 4.6278 30.094 13.883 39.732 9.3189 9.5742 22.212 14.361 38.68 14.361 7.2126 0 13.627-0.54188 19.244-1.627 5.6168-1.0851 11.169-2.9358 16.658-5.5527v-18.287c-6.1913 2.7446-11.998 4.7228-17.424 5.9356-5.3615 1.1489-11.171 1.7246-17.426 1.7246-9.5103 0-16.881-2.7452-22.115-8.2344-5.2339-5.553-8.0109-13.468-8.3301-23.744h70.562v-12.16c0-14.872-4.054-26.552-12.16-35.041-8.1061-8.4891-19.149-12.732-33.127-12.732zm289.91 0c-15.063 0-26.903 4.9465-35.52 14.84-8.6167 9.8933-12.926 23.488-12.926 40.785 0 16.851 4.6277 30.094 13.883 39.732 9.3188 9.5742 22.212 14.361 38.68 14.361 7.2125 0 13.627-0.54188 19.244-1.627 5.6168-1.0851 11.169-2.9358 16.658-5.5527v-18.287c-6.1913 2.7446-11.998 4.7228-17.424 5.9356-5.3615 1.1489-11.171 1.7246-17.426 1.7246-9.5103 0-16.883-2.7452-22.117-8.2344-5.2339-5.553-8.009-13.468-8.3281-23.744h70.56v-12.16c0-14.872-4.052-26.552-12.158-35.041-8.1061-8.4891-19.149-12.732-33.127-12.732zm273.05 0c-15.063 0-26.903 4.9465-35.52 14.84-8.6167 9.8933-12.926 23.488-12.926 40.785 0 16.851 4.6277 30.094 13.883 39.732 9.3188 9.5742 22.212 14.361 38.68 14.361 7.2126 0 13.627-0.54188 19.244-1.627 5.6168-1.0851 11.171-2.9358 16.66-5.5527v-18.287c-6.1912 2.7446-12 4.7228-17.426 5.9356-5.3616 1.1489-11.171 1.7246-17.426 1.7246-9.5103 0-16.881-2.7452-22.115-8.2344-5.2339-5.553-8.011-13.468-8.3301-23.744h70.562v-12.16c0-14.872-4.054-26.552-12.16-35.041-8.1061-8.4891-19.149-12.732-33.127-12.732zm124.56 0c-6.5104 0-12.606 1.8507-18.287 5.5527-5.6168 3.702-10.181 8.7123-13.691 15.031h-1.1484l-2.9668-18.67h-17.617v105.89h22.5v-55.34c0-9.3827 2.7751-17.009 8.3281-22.881 5.6169-5.8722 12.926-8.8086 21.926-8.8086 3.4467 0 6.7656 0.3825 9.957 1.1484l2.2012-20.967c-2.9361-0.63828-6.6694-0.95703-11.201-0.95703zm-494.51 1.9141v105.89h22.5v-105.89zm153.57 0 29.68 105.89h24.892l14.074-49.211c2.1702-7.2125 5.1066-19.436 8.8086-36.67h0.8614c4.3403 19.084 7.3404 31.245 9 36.479l13.689 49.402h25.277l29.871-105.89h-22.596l-13.692 52.18c-3.5105 14.106-5.7437 25.085-6.7011 32.936h-0.7656c-0.2553-3.5744-1.1179-8.5866-2.586-15.033-1.4042-6.4466-2.5836-11.234-3.541-14.361l-15.607-55.721h-24.701l-16.084 55.721c-0.9574 2.9999-2.1069 7.5321-3.4472 13.596-1.2766 5.9998-2.2328 11.331-2.8711 15.99h-0.5743c-1.2765-9.1912-3.4479-20.234-6.5117-33.127l-13.5-52.18zm-459.56 15.127c7.1487 0 12.765 2.2651 16.85 6.7969 4.0849 4.468 6.1926 11.076 6.3203 19.82h-48.062c0.82975-8.6806 3.3817-15.289 7.6582-19.82 4.3403-4.5318 10.086-6.7969 17.234-6.7969zm112.97 0c7.1487 0 12.767 2.2651 16.852 6.7969 4.0849 4.468 6.1906 11.076 6.3183 19.82h-48.062c0.8298-8.6806 3.3837-15.289 7.6602-19.82 4.3403-4.5318 10.084-6.7969 17.232-6.7969zm289.91 0c7.1487 0 12.765 2.2651 16.85 6.7969 4.0849 4.468 6.1925 11.076 6.3203 19.82h-48.062c0.8298-8.6806 3.3817-15.289 7.6582-19.82 4.3403-4.5318 10.086-6.7969 17.234-6.7969zm273.05 0c7.1487 0 12.767 2.2651 16.852 6.7969 4.0849 4.468 6.1906 11.076 6.3184 19.82h-48.062c0.8297-8.6806 3.3837-15.289 7.6601-19.82 4.3403-4.5318 10.084-6.7969 17.232-6.7969z" fill="#4b98dc" stroke-width="5.0547"/>
    <path transform="scale(.26458)" d="m1317.4 46.619c-4.085 0-7.2445 1.0838-9.4785 3.2539-2.1701 2.1701-3.2539 5.266-3.2539 9.2871 0 3.8297 1.0838 6.8617 3.2539 9.0957 2.234 2.1701 5.3935 3.2559 9.4785 3.2559 3.9573 0 7.0213-1.0857 9.1914-3.2559 2.234-2.234 3.3516-5.266 3.3516-9.0957 0-4.0212-1.1176-7.117-3.3516-9.2871-2.1701-2.1701-5.2341-3.2539-9.1914-3.2539zm-568.51 6.5098v19.627h41.17v120.35h979.25v-55.34c0-9.3827 2.7751-17.009 8.3281-22.881 5.6169-5.8722 12.926-8.8086 21.926-8.8086 3.4467 0 6.7656 0.3825 9.957 1.1484l2.2012-20.967c-2.9361-0.63828-6.6694-0.95703-11.201-0.95703-6.5104 0-12.606 1.8507-18.287 5.5527-5.6168 3.702-10.181 8.7123-13.691 15.031h-1.1484l-2.9668-18.67h-17.617v105.89h-160.94l29.871-105.89h-22.596l-13.692 52.18c-3.5105 14.106-5.7437 25.085-6.7011 32.936h-0.7656c-0.2553-3.5744-1.1179-8.5866-2.586-15.033-1.4042-6.4466-2.5836-11.234-3.541-14.361l-15.607-55.721h-24.701l-16.084 55.721c-0.9574 2.9999-2.1069 7.5321-3.4472 13.596-1.2766 5.9998-2.2328 11.331-2.8711 15.99h-0.5743c-1.2765-9.1912-3.4479-20.234-6.5117-33.127l-13.5-52.18h-22.976l29.68 105.89h-160.75v-105.89h-22.5v105.89h-65.297l49.02-139.97h-23.744l-29.201 86.646c-1.085 3.0637-2.4895 7.7872-4.2128 14.17-1.7234 6.3828-3.0004 11.999-3.8301 16.85-0.5107-3.1914-1.6282-8.0423-3.3516-14.553-1.7233-6.5743-3.351-11.935-4.8828-16.084l-29.201-87.029h-23.551l48.828 139.97h-320.83v-55.34c0-9.3827 2.7771-17.009 8.3301-22.881 5.6169-5.8722 12.926-8.8086 21.926-8.8086 3.4467 0 6.7656 0.3825 9.957 1.1484l2.2012-20.967c-2.9361-0.63828-6.6694-0.95703-11.201-0.95703-6.5104 0-12.606 1.8507-18.287 5.5527-5.6169 3.702-10.181 8.7123-13.691 15.031h-1.1484l-2.9688-18.67h-17.615v105.89h-60.318v-120.35h41.17v-19.627zm251.13 32.17c-15.063 0-26.903 4.9465-35.52 14.84-8.6168 9.8933-12.926 23.488-12.926 40.785 0 16.851 4.6278 30.094 13.883 39.732 9.3188 9.5742 22.212 14.361 38.68 14.361 7.2126 0 13.627-0.54188 19.244-1.627 5.6169-1.0851 11.169-2.9358 16.658-5.5527v-18.287c-6.1913 2.7446-11.998 4.7228-17.424 5.9356-5.3615 1.1489-11.171 1.7246-17.426 1.7246-9.5103 0-16.883-2.7452-22.117-8.2344-5.2339-5.553-8.009-13.468-8.3281-23.744h70.561v-12.16c0-14.872-4.0521-26.552-12.158-35.041-8.1062-8.4891-19.149-12.732-33.127-12.732zm112.97 0c-15.063 0-26.903 4.9465-35.52 14.84-8.6167 9.8933-12.926 23.488-12.926 40.785 0 16.851 4.6278 30.094 13.883 39.732 9.3189 9.5742 22.212 14.361 38.68 14.361 7.2126 0 13.627-0.54188 19.244-1.627 5.6168-1.0851 11.169-2.9358 16.658-5.5527v-18.287c-6.1913 2.7446-11.998 4.7228-17.424 5.9356-5.3615 1.1489-11.171 1.7246-17.426 1.7246-9.5103 0-16.881-2.7452-22.115-8.2344-5.2339-5.553-8.0109-13.468-8.3301-23.744h70.562v-12.16c0-14.872-4.054-26.552-12.16-35.041-8.1061-8.4891-19.149-12.732-33.127-12.732zm289.91 0c-15.063 0-26.903 4.9465-35.52 14.84-8.6167 9.8933-12.926 23.488-12.926 40.785 0 16.851 4.6277 30.094 13.883 39.732 9.3188 9.5742 22.212 14.361 38.68 14.361 7.2125 0 13.627-0.54188 19.244-1.627 5.6168-1.0851 11.169-2.9358 16.658-5.5527v-18.287c-6.1913 2.7446-11.998 4.7228-17.424 5.9356-5.3615 1.1489-11.171 1.7246-17.426 1.7246-9.5103 0-16.883-2.7452-22.117-8.2344-5.2339-5.553-8.009-13.468-8.3281-23.744h70.56v-12.16c0-14.872-4.052-26.552-12.158-35.041-8.1061-8.4891-19.149-12.732-33.127-12.732zm273.05 0c-15.063 0-26.903 4.9465-35.52 14.84-8.6167 9.8933-12.926 23.488-12.926 40.785 0 16.851 4.6277 30.094 13.883 39.732 9.3188 9.5742 22.212 14.361 38.68 14.361 7.2126 0 13.627-0.54188 19.244-1.627 5.6168-1.0851 11.171-2.9358 16.66-5.5527v-18.287c-6.1912 2.7446-12 4.7228-17.426 5.9356-5.3616 1.1489-11.171 1.7246-17.426 1.7246-9.5103 0-16.881-2.7452-22.115-8.2344-5.2339-5.553-8.011-13.468-8.3301-23.744h70.562v-12.16c0-14.872-4.054-26.552-12.16-35.041-8.1061-8.4891-19.149-12.732-33.127-12.732zm-675.94 17.041c7.1487 0 12.765 2.2651 16.85 6.7969 4.0849 4.468 6.1926 11.076 6.3203 19.82h-48.062c0.82975-8.6806 3.3817-15.289 7.6582-19.82 4.3403-4.5318 10.086-6.7969 17.234-6.7969zm112.97 0c7.1487 0 12.767 2.2651 16.852 6.7969 4.0849 4.468 6.1906 11.076 6.3183 19.82h-48.062c0.8298-8.6806 3.3837-15.289 7.6602-19.82 4.3403-4.5318 10.084-6.7969 17.232-6.7969zm289.91 0c7.1487 0 12.765 2.2651 16.85 6.7969 4.0849 4.468 6.1925 11.076 6.3203 19.82h-48.062c0.8298-8.6806 3.3817-15.289 7.6582-19.82 4.3403-4.5318 10.086-6.7969 17.234-6.7969zm273.05 0c7.1487 0 12.767 2.2651 16.852 6.7969 4.0849 4.468 6.1906 11.076 6.3184 19.82h-48.062c0.8297-8.6806 3.3837-15.289 7.6601-19.82 4.3403-4.5318 10.084-6.7969 17.232-6.7969zm-138.92 4.8828h0.8614c4.3403 19.084 7.3404 31.245 9 36.479l13.689 49.402h-46.434l14.074-49.211c2.1702-7.2125 5.1066-19.436 8.8086-36.67z" color="#000000" color-rendering="auto" dominant-baseline="auto" fill="url(#radialGradient1317)" image-rendering="auto" shape-rendering="auto" solid-color="#000000" stop-color="#000000" style="font-feature-settings:normal;font-variant-alternates:normal;font-variant-caps:normal;font-variant-east-asian:normal;font-variant-ligatures:normal;font-variant-numeric:normal;font-variant-position:normal;font-variation-settings:normal;inline-size:0;isolation:auto;mix-blend-mode:normal;shape-margin:0;shape-padding:0;text-decoration-color:#000000;text-decoration-line:none;text-decoration-style:solid;text-indent:0;text-orientation:mixed;text-transform:none;white-space:normal"/>
   </g>
   <g transform="matrix(.97081 0 0 .97081 2.6458 12.334)">
    <path transform="scale(.26458)" d="m30 0c-16.62 0-30 13.38-30 30v462c0 16.62 13.38 30 30 30h302c16.62 0 30-13.38 30-30v-356.25l-135.75-135.75z" fill-opacity=".2" filter="url(#filter1251)"/>
    <path d="m95.779 35.917v91.612c0 4.3974-3.5401 7.9375-7.9375 7.9375h-79.904c-4.3974 0-7.9375-3.5401-7.9375-7.9375v-119.59c0-4.3974 3.5401-7.9375 7.9375-7.9375h51.924z" fill="#0072b2"/>
    <path d="m71.587 74.723-4.6984 8.5313 12.364-2.5965m-50.322 0.74185 11.375 6.553-9.8913 20.277m-6.4294-47.849 5.9348 2.2255-1.731 4.0802m3.8329-12.241-2.1019 8.1603 10.139 0.24727m26.707-0.24727-9.3967-4.5747m-17.31 4.822 17.31-4.822 3.3383-8.284m-10.88-0.74185-11.499 0.98913m20.03-10.51-10.51 2.1019 6.553 3.7092m-0.61822-10.633-5.9348 6.9239-9.5204 8.4076m-13.601-4.3275 13.601 4.3275m-20.154-6.8003 3.8329 11.499-13.23-1.6073m29.55-3.091-16.321 4.6984-12.117 9.3968m15.579-30.663 11.87 2.7201m5.3166-8.1603-5.3166 8.1603 12.488-5.1929m-17.31-4.822 4.822 10.015 0.98912 13.848 1.731 12.859 0.2473 25.099 26.583-4.6984 11.004 8.0367" fill="none" filter="url(#filter1247)" mask="url(#mask1132)" stroke="#000" stroke-linecap="round" stroke-linejoin="round" stroke-opacity=".2" stroke-width="2.4889"/>
    <path d="m71.586 72.871-4.6984 8.5313 12.364-2.5965m-50.322 0.74185 11.375 6.553-9.8913 20.277m-6.4294-47.849 5.9348 2.2255-1.731 4.0802m3.8329-12.241-2.1019 8.1603 10.139 0.24727m26.707-0.24727-9.3967-4.5747m-17.31 4.822 17.31-4.822 3.3383-8.284m-10.88-0.74185-11.499 0.98913m20.03-10.51-10.51 2.1019 6.553 3.7092m-0.61822-10.633-5.9348 6.9239-9.5204 8.4076m-13.601-4.3275 13.601 4.3275m-20.154-6.8003 3.8329 11.499-13.23-1.6073m29.55-3.091-16.321 4.6984-12.117 9.3968m15.579-30.663 11.87 2.7201m5.3166-8.1603-5.3166 8.1603 12.488-5.1929m-17.31-4.822 4.822 10.015 0.98912 13.848 1.731 12.859 0.2473 25.099 26.583-4.6984 11.004 8.0367" fill="none" mask="url(#mask1136)" stroke="#fff" stroke-linecap="round" stroke-linejoin="round" stroke-width="2.4889"/>
    <path d="m62.181 36.243 33.598 33.598-2e-6 -31.278v-2.6458l-35.917-35.917v30.626c0 2.1987 0.8849 4.1831 2.3195 5.6178" fill="url(#radialGradient907)"/>
    <path transform="scale(.26458)" d="m226.25 0v115.75c0 16.62 13.378 30 29.998 30h105.75v-10z" clip-path="url(#clipPath1273)" fill-opacity=".2" filter="url(#filter1263)"/>
    <path d="m95.779 35.917h-27.98c-4.3974 0-7.9372-3.5401-7.9372-7.9375v-27.98z" fill="#7ac0ff"/>
    <path d="m0 2.2937c0-4.3974 3.5401-7.9375 7.9375-7.9375h51.924v8.2896h-51.924c-4.3974 0-7.9375 3.5401-7.9375 7.9375z" fill="#4b98dc" fill-opacity=".67961" filter="url(#filter1297)" mask="url(#mask1303)" style="mix-blend-mode:normal"/>
    <path d="m95.779 35.917v91.612c0 4.3974-3.5401 7.9375-7.9375 7.9375h-79.904c-4.3974 0-7.9375-3.5401-7.9375-7.9375v-119.59c0-4.3974 3.5401-7.9375 7.9375-7.9375h51.924z" fill="url(#linearGradient874)"/>
    <path d="m95.779 35.917v91.612c0 4.3974-3.5401 7.9375-7.9375 7.9375h-79.904c-4.3974 0-7.9375-3.5401-7.9375-7.9375v-119.59c0-4.3974 3.5401-7.9375 7.9375-7.9375h51.924z" fill="url(#linearGradient1465)"/>
    <g transform="matrix(.94398 0 0 .94398 5.3531 5.0691)" stroke-width="1.0312">
     <path d="m95.561 57.353c-10.071 0-25.224 5.2009-37.971 15.555-9.9965 8.1196-20.611 19.169-28.249 32.353 13.1 9.4317 27.747 15.975 43.93 19.653-9.0836-4.0376-17.222-9.7084-24.046-17.649 8.7575-21.631 29.419-39.012 46.555-39.012 17.136 0 37.361 17.38 46.119 39.012-6.8243 7.9401-14.962 13.611-24.046 17.649 16.183-3.6772 30.83-10.221 43.93-19.653-7.6388-13.184-18.253-24.234-28.25-32.353-12.747-10.354-27.9-15.555-37.971-15.555zm0 20.542a15.034 15.034 0 0 0-15.034 15.034 15.034 15.034 0 0 0 15.034 15.034 15.034 15.034 0 0 0 15.034-15.034 15.034 15.034 0 0 0-15.034-15.034zm23.286 6.2937c4.9e-4 3.71e-4 1e-3 6.67e-4 2e-3 1e-3a24.79 25.497 0 0 0-5.2e-4 -1e-3zm2e-3 1e-3a24.79 25.497 0 0 1 1.5017 8.7395 24.79 25.497 0 0 1-24.789 25.497 24.79 25.497 0 0 1-24.791-25.497 24.79 25.497 0 0 1 1.4102-8.477c-3.1574 2.3598-6.201 5.1057-9.0387 8.1607a32.42 33.345 0 0 0-0.0021 0.31626 32.42 33.345 0 0 0 32.421 33.345 32.42 33.345 0 0 0 32.42-33.345 32.42 33.345 0 0 0-4e-3 -0.46457c-2.8647-3.1076-5.9372-5.896-9.1276-8.2749z" fill-opacity=".2" filter="url(#filter1285)"/>
     <g>
      <path d="m95.561 54.708c-10.071 0-25.224 5.2009-37.971 15.555-9.9965 8.1196-20.611 19.169-28.249 32.353 13.1 9.4317 27.747 15.975 43.93 19.653-9.0836-4.0376-17.222-9.7084-24.046-17.649 8.7575-21.631 29.419-39.012 46.555-39.012 17.136 0 37.361 17.38 46.119 39.012-6.8243 7.9401-14.962 13.611-24.046 17.649 16.183-3.6772 30.83-10.221 43.93-19.653-7.6388-13.184-18.253-24.234-28.25-32.353-12.747-10.354-27.9-15.555-37.971-15.555zm0 20.542a15.034 15.034 0 0 0-15.034 15.034 15.034 15.034 0 0 0 15.034 15.034 15.034 15.034 0 0 0 15.034-15.034 15.034 15.034 0 0 0-15.034-15.034zm23.286 6.2937c4.9e-4 3.71e-4 1e-3 6.67e-4 2e-3 1e-3a24.79 25.497 0 0 0-5.2e-4 -1e-3zm2e-3 1e-3a24.79 25.497 0 0 1 1.5017 8.7395 24.79 25.497 0 0 1-24.789 25.497 24.79 25.497 0 0 1-24.791-25.497 24.79 25.497 0 0 1 1.4102-8.477c-3.1574 2.3598-6.201 5.1057-9.0387 8.1607a32.42 33.345 0 0 0-0.0021 0.31626 32.42 33.345 0 0 0 32.421 33.345 32.42 33.345 0 0 0 32.42-33.345 32.42 33.345 0 0 0-4e-3 -0.46457c-2.8647-3.1076-5.9372-5.896-9.1276-8.2749z" fill="#fffffd"/>
      <path d="m95.561 54.708c-10.071 0-25.224 5.2009-37.971 15.555-9.9965 8.1196-20.611 19.169-28.249 32.353 13.1 9.4317 27.747 15.975 43.93 19.653-9.0836-4.0376-17.222-9.7084-24.046-17.649 8.7575-21.631 29.419-39.012 46.555-39.012 17.136 0 37.361 17.38 46.119 39.012-6.8243 7.9401-14.962 13.611-24.046 17.649 16.183-3.6772 30.83-10.221 43.93-19.653-7.6388-13.184-18.253-24.234-28.25-32.353-12.747-10.354-27.9-15.555-37.971-15.555z" fill="url(#linearGradient1074)"/>
      <path d="m95.561 75.249c-8.3032-8.9e-5 -15.034 6.731-15.034 15.034-9e-5 8.3032 6.731 15.034 15.034 15.034 8.303-1.9e-4 15.034-6.7312 15.034-15.034 9e-5 -8.303-6.7307-15.034-15.034-15.034zm23.286 6.2937c4.9e-4 3.71e-4 1e-3 6.67e-4 2e-3 1e-3l-5.2e-4 -1e-3zm2e-3 1e-3c0.99345 2.8005 1.5017 5.7585 1.5017 8.7395-1.3e-4 14.081-11.098 25.497-24.789 25.497-13.691 3e-4 -24.791-11.415-24.791-25.497 2.2e-5 -2.8874 0.47689-5.7538 1.4102-8.477-3.1574 2.3598-6.201 5.1057-9.0387 8.1607-0.0012 0.10542-0.0019 0.21084-0.0021 0.31626-1.99e-4 18.416 14.515 33.346 32.421 33.345 17.905-1.8e-4 32.42-14.929 32.42-33.345-2.8e-4 -0.15486-2e-3 -0.30972-4e-3 -0.46457-2.8647-3.1076-5.9372-5.896-9.1276-8.2749z" fill="url(#linearGradient1148)"/>
     </g>
    </g>
   </g>
  </g>
 </g>
</svg>
