<?xml version="1.0" encoding="UTF-8" standalone="no"?>
<svg
   xmlns:dc="http://purl.org/dc/elements/1.1/"
   xmlns:cc="http://creativecommons.org/ns#"
   xmlns:rdf="http://www.w3.org/1999/02/22-rdf-syntax-ns#"
   xmlns:svg="http://www.w3.org/2000/svg"
   xmlns="http://www.w3.org/2000/svg"
   xmlns:xlink="http://www.w3.org/1999/xlink"
   xmlns:sodipodi="http://sodipodi.sourceforge.net/DTD/sodipodi-0.dtd"
   xmlns:inkscape="http://www.inkscape.org/namespaces/inkscape"
   width="76.111549mm"
   height="53.768185mm"
   viewBox="0 0 76.111549 53.768185"
   version="1.1"
   id="svg8"
   sodipodi:docname="ActionTemplate.svg"
   inkscape:version="1.0 (4035a4fb49, 2020-05-01)"
   inkscape:export-filename="G:\OneDrive - University of Bristol\Projects\TreeViewer\src\TreeViewer\Assets\ActionTemplate.png"
   inkscape:export-xdpi="60.466984"
   inkscape:export-ydpi="60.466984">
  <defs
     id="defs2">
    <linearGradient
       id="linearGradient1057"
       inkscape:collect="always">
      <stop
         id="stop1053"
         offset="0"
         style="stop-color:#d6d33e;stop-opacity:1;" />
      <stop
         id="stop1055"
         offset="1"
         style="stop-color:#d6d33e;stop-opacity:0;" />
    </linearGradient>
    <linearGradient
       id="linearGradient1047"
       inkscape:collect="always">
      <stop
         id="stop1043"
         offset="0"
         style="stop-color:#7f8300;stop-opacity:1;" />
      <stop
         id="stop1045"
         offset="1"
         style="stop-color:#7f8300;stop-opacity:0;" />
    </linearGradient>
    <linearGradient
       inkscape:collect="always"
       id="linearGradient991">
      <stop
         style="stop-color:#000000;stop-opacity:0.2"
         offset="0"
         id="stop987" />
      <stop
         style="stop-color:#000000;stop-opacity:0;"
         offset="1"
         id="stop989" />
    </linearGradient>
    <linearGradient
       gradientTransform="translate(41.955357,14.552083)"
       inkscape:collect="always"
       xlink:href="#linearGradient991"
       id="linearGradient993"
       x1="86.089073"
       y1="234.36729"
       x2="70.258736"
       y2="216.59386"
       gradientUnits="userSpaceOnUse" />
    <filter
       inkscape:collect="always"
       style="color-interpolation-filters:sRGB"
       id="filter1001"
       x="-0.063716084"
       width="1.2002316"
       y="-0.038502939"
       height="1.129796">
      <feGaussianBlur
         inkscape:collect="always"
         stdDeviation="0.5168996"
         id="feGaussianBlur1003" />
    </filter>
    <linearGradient
       gradientUnits="userSpaceOnUse"
       y2="195.17174"
       x2="88.503021"
       y1="225.31534"
       x1="93.038734"
       id="linearGradient1049"
       xlink:href="#linearGradient1047"
       inkscape:collect="always" />
    <linearGradient
       gradientUnits="userSpaceOnUse"
       y2="206.7"
       x2="38.704659"
       y1="181.3756"
       x1="30.578171"
       id="linearGradient1059"
       xlink:href="#linearGradient1057"
       inkscape:collect="always" />
    <filter
       height="1.1543059"
       y="-0.077152938"
       width="1.0696733"
       x="-0.034836654"
       id="filter1067"
       style="color-interpolation-filters:sRGB"
       inkscape:collect="always">
      <feGaussianBlur
         id="feGaussianBlur1069"
         stdDeviation="1.0328199"
         inkscape:collect="always" />
    </filter>
  </defs>
  <sodipodi:namedview
     id="base"
     pagecolor="#ffffff"
     bordercolor="#666666"
     borderopacity="1.0"
     inkscape:pageopacity="0.0"
     inkscape:pageshadow="2"
     inkscape:zoom="2.8"
     inkscape:cx="227.91713"
     inkscape:cy="116.86561"
     inkscape:document-units="mm"
     inkscape:current-layer="layer1"
     inkscape:document-rotation="0"
     showgrid="false"
     inkscape:window-width="2560"
     inkscape:window-height="1377"
     inkscape:window-x="-8"
     inkscape:window-y="-8"
     inkscape:window-maximized="1" />
  <metadata
     id="metadata5">
    <rdf:RDF>
      <cc:Work
         rdf:about="">
        <dc:format>image/svg+xml</dc:format>
        <dc:type
           rdf:resource="http://purl.org/dc/dcmitype/StillImage" />
        <dc:title></dc:title>
      </cc:Work>
    </rdf:RDF>
  </metadata>
  <g
     inkscape:label="Livello 1"
     inkscape:groupmode="layer"
     id="layer1"
     transform="translate(-26.606397,-184.83103)">
    <rect
       rx="5.6110983"
       y="187.3098"
       x="29.085165"
       height="32.127975"
       width="71.154015"
       id="rect1065"
       style="opacity:0.3;fill:#000000;fill-opacity:1;stroke:#000000;stroke-width:1.5;stroke-linecap:butt;stroke-linejoin:round;stroke-miterlimit:4;stroke-dasharray:none;stroke-opacity:1;filter:url(#filter1067)" />
    <rect
       rx="5.6110983"
       y="185.72232"
       x="28.026831"
       height="32.127975"
       width="71.154015"
       id="rect1033"
       style="opacity:1;fill:#aaaa00;fill-opacity:1;stroke:none;stroke-width:1.5;stroke-linecap:butt;stroke-linejoin:round;stroke-miterlimit:4;stroke-dasharray:none;stroke-opacity:1" />
    <rect
       style="opacity:1;fill:url(#linearGradient1049);fill-opacity:1;stroke:none;stroke-width:1.5;stroke-linecap:butt;stroke-linejoin:round;stroke-miterlimit:4;stroke-dasharray:none;stroke-opacity:1"
       id="rect1041"
       width="71.154015"
       height="32.127975"
       x="28.026831"
       y="185.72232"
       rx="5.6110983" />
    <rect
       rx="5.6110983"
       y="185.72232"
       x="28.026831"
       height="32.127975"
       width="71.154015"
       id="rect1051"
       style="opacity:1;fill:url(#linearGradient1059);fill-opacity:1;stroke:none;stroke-width:1.5;stroke-linecap:butt;stroke-linejoin:round;stroke-miterlimit:4;stroke-dasharray:none;stroke-opacity:1" />
    <rect
       style="opacity:1;fill:none;fill-opacity:1;stroke:#6d7000;stroke-width:1.5;stroke-linecap:butt;stroke-linejoin:round;stroke-miterlimit:4;stroke-dasharray:none;stroke-opacity:1"
       id="rect1061"
       width="71.154015"
       height="32.127975"
       x="28.026831"
       y="185.72232"
       rx="5.6110983" />
    <g
       transform="translate(-47.813988,-13.229167)"
       id="g1039">
      <path
         id="path999"
         style="opacity:0.3;fill:#000000;fill-opacity:1;stroke:#000000;stroke-width:2;stroke-linecap:butt;stroke-linejoin:round;stroke-miterlimit:4;stroke-dasharray:none;stroke-opacity:1;filter:url(#filter1001)"
         d="m 109.0685,217.02058 c 0,9.22591 0,18.45182 0,27.67773 0.5917,0.42381 1.12043,0.42821 1.55445,-0.19819 1.78719,-1.57326 3.57438,-3.14652 5.36157,-4.71978 1.05664,2.95182 2.11328,5.90365 3.16992,8.85547 0.55391,0.47306 1.13485,0.17785 1.71423,-0.0732 0.75504,-0.33891 1.65605,-0.52288 2.32279,-0.95552 0.47698,-0.55636 0.027,-1.1377 -0.16571,-1.71212 -0.97794,-2.5382 -1.95587,-5.0764 -2.93381,-7.61461 2.71745,0 5.4349,0 8.15235,0 0.42069,-0.59498 0.42377,-1.12383 -0.2093,-1.55195 -6.01487,-6.68711 -12.02974,-13.37422 -18.04461,-20.06133 -0.30729,0.11784 -0.61458,0.23568 -0.92188,0.35352 z" />
      <path
         sodipodi:nodetypes="cccccccc"
         id="path983"
         d="m 109.06829,215.96208 v 27.67808 l 6.62174,-5.82971 3.43277,9.58846 3.31019,-1.25291 -3.64121,-9.45384 h 8.92394 z"
         style="opacity:1;fill:#ffffff;fill-opacity:1;stroke:none;stroke-width:1;stroke-linecap:butt;stroke-linejoin:round;stroke-miterlimit:4;stroke-dasharray:none;stroke-opacity:1" />
      <path
         style="opacity:1;fill:url(#linearGradient993);fill-opacity:1;stroke:none;stroke-width:1;stroke-linecap:butt;stroke-linejoin:round;stroke-miterlimit:4;stroke-dasharray:none;stroke-opacity:1"
         d="m 109.06829,215.96208 v 27.67808 l 6.62174,-5.82971 3.43277,9.58846 3.31019,-1.25291 -3.64121,-9.45384 h 8.92394 z"
         id="path985"
         sodipodi:nodetypes="cccccccc" />
      <path
         d="m 108.53934,215.96224 c 0,9.22591 0,18.45182 0,27.67773 0.59169,0.42381 1.12042,0.42821 1.55445,-0.19819 1.78718,-1.57326 3.57437,-3.14652 5.36156,-4.71978 1.05664,2.95182 2.11328,5.90365 3.16992,8.85547 0.55391,0.47306 1.13485,0.17785 1.71424,-0.0732 0.75503,-0.33891 1.65604,-0.52288 2.32279,-0.95552 0.47697,-0.55636 0.027,-1.1377 -0.16572,-1.71212 -0.97794,-2.5382 -1.95587,-5.0764 -2.93381,-7.61461 2.71745,0 5.4349,0 8.15235,0 0.4207,-0.59498 0.42378,-1.12383 -0.2093,-1.55195 -6.01487,-6.68711 -12.02974,-13.37422 -18.04461,-20.06133 -0.30729,0.11784 -0.61458,0.23568 -0.92187,0.35352 z"
         style="opacity:1;fill:none;fill-opacity:1;stroke:#000000;stroke-width:1.5;stroke-linecap:butt;stroke-linejoin:round;stroke-miterlimit:4;stroke-dasharray:none;stroke-opacity:1"
         id="path995" />
    </g>
  </g>
</svg>
