<?xml version="1.0" encoding="UTF-8" standalone="no"?>
<svg
   xmlns:dc="http://purl.org/dc/elements/1.1/"
   xmlns:cc="http://creativecommons.org/ns#"
   xmlns:rdf="http://www.w3.org/1999/02/22-rdf-syntax-ns#"
   xmlns:svg="http://www.w3.org/2000/svg"
   xmlns="http://www.w3.org/2000/svg"
   xmlns:sodipodi="http://sodipodi.sourceforge.net/DTD/sodipodi-0.dtd"
   xmlns:inkscape="http://www.inkscape.org/namespaces/inkscape"
   inkscape:export-ydpi="37.912502"
   inkscape:export-xdpi="37.912502"
   inkscape:export-filename="G:\OneDrive - University of Bristol\Projects\TreeViewer\src\TreeViewer\Assets\CoordinatesTemplate.png"
   inkscape:version="1.0 (4035a4fb49, 2020-05-01)"
   sodipodi:docname="CoordinatesTemplate.svg"
   id="svg8"
   version="1.1"
   viewBox="0 0 81.249054 85.755356"
   height="85.755356mm"
   width="81.249054mm">
  <defs
     id="defs2">
    <filter
       height="1.0759552"
       y="-0.037977576"
       width="1.045511"
       x="-0.036427855"
       id="filter887"
       style="color-interpolation-filters:sRGB"
       inkscape:collect="always">
      <feGaussianBlur
         id="feGaussianBlur889"
         stdDeviation="0.37030029"
         inkscape:collect="always" />
    </filter>
    <filter
       height="1.3187407"
       y="-0.11260009"
       width="1.468913"
       x="-0.22709584"
       id="filter897"
       style="color-interpolation-filters:sRGB"
       inkscape:collect="always">
      <feGaussianBlur
         id="feGaussianBlur899"
         stdDeviation="0.26980406"
         inkscape:collect="always" />
    </filter>
    <filter
       height="1.2112708"
       y="-0.092927575"
       width="1.1646057"
       x="-0.06992662"
       id="filter903"
       style="color-interpolation-filters:sRGB"
       inkscape:collect="always">
      <feGaussianBlur
         id="feGaussianBlur905"
         stdDeviation="0.67919027"
         inkscape:collect="always" />
    </filter>
  </defs>
  <sodipodi:namedview
     inkscape:window-maximized="1"
     inkscape:window-y="-8"
     inkscape:window-x="-8"
     inkscape:window-height="1377"
     inkscape:window-width="2560"
     showgrid="false"
     inkscape:document-rotation="0"
     inkscape:current-layer="layer1"
     inkscape:document-units="mm"
     inkscape:cy="194.06375"
     inkscape:cx="92.514005"
     inkscape:zoom="1.979899"
     inkscape:pageshadow="2"
     inkscape:pageopacity="0.0"
     borderopacity="1.0"
     bordercolor="#666666"
     pagecolor="#ffffff"
     id="base" />
  <metadata
     id="metadata5">
    <rdf:RDF>
      <cc:Work
         rdf:about="">
        <dc:format>image/svg+xml</dc:format>
        <dc:type
           rdf:resource="http://purl.org/dc/dcmitype/StillImage" />
      </cc:Work>
    </rdf:RDF>
  </metadata>
  <g
     transform="translate(-24.530551,-166.06757)"
     id="layer1"
     inkscape:groupmode="layer"
     inkscape:label="Livello 1">
    <rect
       style="opacity:0.3;fill:#000000;fill-opacity:1;stroke:#000000;stroke-width:2;stroke-linecap:round;stroke-linejoin:round;stroke-miterlimit:4;stroke-dasharray:none;stroke-opacity:1;filter:url(#filter903)"
       id="rect901"
       width="38.175594"
       height="29.743433"
       x="63.989578"
       y="212.3607"
       rx="5.6111112" />
    <path
       mask="none"
       sodipodi:nodetypes="ccccccccccccccccccccccccccccccccccccccccccccc"
       d="m 87.999376,216.26724 -4.561229,8.28224 12.003249,-2.52068 m -48.85322,0.72019 11.042989,6.36172 -9.602589,19.68534 m -6.241696,-46.45258 5.761566,2.16058 -1.680456,3.96107 m 3.721006,-11.88321 -2.04055,7.92214 9.842642,0.24006 m 25.927028,-0.24006 -9.12246,-4.4412 m -16.804568,4.68127 16.804568,-4.68127 3.240881,-8.04217 m -10.56287,-0.7202 -11.16303,0.96026 m 19.445269,-10.20279 -10.202781,2.04055 6.361743,3.60101 m -0.600181,-10.32283 -5.761562,6.72182 -9.242488,8.16224 m -13.203567,-4.20114 13.203567,4.20114 m -19.565287,-6.6018 3.72102,11.16304 -12.84348,-1.56043 m 28.687747,-3.00081 -15.844267,4.56124 -11.76319,9.12246 m 15.1241,-29.76808 11.523107,2.64071 m 5.161389,-7.92214 -5.161389,7.92214 12.12328,-5.04136 m -16.804541,-4.68127 4.681261,9.72263 0.96025,13.44367 1.680451,12.48338 0.240077,24.36659 25.806982,-4.56123 10.682881,7.80211"
       style="fill:none;fill-opacity:1;stroke:#000000;stroke-width:2.34324;stroke-linecap:round;stroke-linejoin:round;stroke-miterlimit:4;stroke-dasharray:none;stroke-opacity:0.2;filter:url(#filter887)"
       id="path885" />
    <path
       id="path957-9-5"
       style="fill:none;stroke:#2b65a3;stroke-width:2.34324;stroke-linecap:round;stroke-linejoin:round;stroke-miterlimit:4;stroke-dasharray:none;stroke-opacity:1"
       d="m 87.999376,215.2089 -4.561229,8.28224 12.003249,-2.52068 m -48.85322,0.72019 11.042989,6.36172 -9.602589,19.68534 m -6.241696,-46.45258 5.761566,2.16058 -1.680456,3.96107 m 3.721006,-11.88321 -2.04055,7.92214 9.842642,0.24006 m 25.927028,-0.24006 -9.12246,-4.4412 m -16.804568,4.68127 16.804568,-4.68127 3.240881,-8.04217 m -10.56287,-0.7202 -11.16303,0.96026 m 19.445269,-10.20279 -10.202781,2.04055 6.361743,3.60101 m -0.600181,-10.32283 -5.761562,6.72182 -9.242488,8.16224 m -13.203567,-4.20114 13.203567,4.20114 m -19.565287,-6.6018 3.72102,11.16304 -12.84348,-1.56043 m 28.687747,-3.00081 -15.844267,4.56124 -11.76319,9.12246 m 15.1241,-29.76808 11.523107,2.64071 m 5.161389,-7.92214 -5.161389,7.92214 12.12328,-5.04136 m -16.804541,-4.68127 4.681261,9.72263 0.96025,13.44367 1.680451,12.48338 0.240077,24.36659 25.806982,-4.56123 10.682881,7.80211"
       sodipodi:nodetypes="ccccccccccccccccccccccccccccccccccccccccccccc"
       mask="none" />
    <path
       d="m 60.287201,208.0003 5.291666,6.23661 m -3.537865,-9.49279 a 4.6499157,4.6499157 0 0 1 -4.649915,4.64991 4.6499157,4.6499157 0 0 1 -4.649916,-4.64991 4.6499157,4.6499157 0 0 1 4.649916,-4.64992 4.6499157,4.6499157 0 0 1 4.649915,4.64992"
       style="opacity:1;fill:none;fill-opacity:0.3;stroke:#000000;stroke-width:2;stroke-linecap:butt;stroke-linejoin:round;stroke-miterlimit:4;stroke-dasharray:none;stroke-opacity:0.3;filter:url(#filter897)"
       id="path893" />
    <rect
       rx="5.6111112"
       y="211.30238"
       x="63.989582"
       height="29.743433"
       width="38.175594"
       id="rect847"
       style="fill:#ffffff;fill-opacity:1;stroke:#99ddff;stroke-width:2;stroke-linecap:round;stroke-linejoin:round;stroke-miterlimit:4;stroke-dasharray:none;stroke-opacity:1" />
    <g
       transform="translate(2.0201809,0.05827722)"
       id="g871">
      <text
         xml:space="preserve"
         style="font-style:normal;font-weight:normal;font-size:10.5833px;line-height:1.25;font-family:sans-serif;fill:#000000;fill-opacity:1;stroke:none;stroke-width:0.264583"
         x="66.642105"
         y="222.73729"
         id="text841"><tspan
           sodipodi:role="line"
           id="tspan839"
           x="66.642105"
           y="222.73729"
           style="font-style:normal;font-variant:normal;font-weight:normal;font-stretch:normal;font-family:Consolas;-inkscape-font-specification:Consolas;stroke-width:0.264583">X = …</tspan></text>
      <text
         id="text845"
         y="236.15544"
         x="66.642105"
         style="font-style:normal;font-weight:normal;font-size:10.5833px;line-height:1.25;font-family:sans-serif;fill:#000000;fill-opacity:1;stroke:none;stroke-width:0.264583"
         xml:space="preserve"><tspan
           style="font-style:normal;font-variant:normal;font-weight:normal;font-stretch:normal;font-family:Consolas;-inkscape-font-specification:Consolas;stroke-width:0.264583"
           y="236.15544"
           x="66.642105"
           id="tspan843"
           sodipodi:role="line">Y = …</tspan></text>
    </g>
    <circle
       r="4.6499157"
       cy="203.68578"
       cx="57.391087"
       id="path873"
       style="opacity:1;fill:none;fill-opacity:0.3;stroke:#99ddff;stroke-width:2;stroke-linecap:round;stroke-linejoin:round;stroke-miterlimit:4;stroke-dasharray:none;stroke-opacity:1" />
    <path
       id="path877"
       d="m 60.287201,206.94196 5.291666,6.23661"
       style="opacity:1;fill:none;fill-opacity:0.3;stroke:#99ddff;stroke-width:2;stroke-linecap:butt;stroke-linejoin:round;stroke-miterlimit:4;stroke-dasharray:none;stroke-opacity:1" />
  </g>
</svg>
