<?xml version="1.0" encoding="UTF-8" standalone="no"?>
<svg
   xmlns:dc="http://purl.org/dc/elements/1.1/"
   xmlns:cc="http://creativecommons.org/ns#"
   xmlns:rdf="http://www.w3.org/1999/02/22-rdf-syntax-ns#"
   xmlns:svg="http://www.w3.org/2000/svg"
   xmlns="http://www.w3.org/2000/svg"
   xmlns:xlink="http://www.w3.org/1999/xlink"
   xmlns:sodipodi="http://sodipodi.sourceforge.net/DTD/sodipodi-0.dtd"
   xmlns:inkscape="http://www.inkscape.org/namespaces/inkscape"
   inkscape:export-ydpi="14.59373"
   inkscape:export-xdpi="14.59373"
   inkscape:export-filename="G:\OneDrive - University of Bristol\Projects\TreeViewer\src\TreeViewer\Assets\FurtherTransformationTemplate.png"
   sodipodi:docname="FurtherTransformationTemplate.svg"
   inkscape:version="1.0 (4035a4fb49, 2020-05-01)"
   id="svg880"
   version="1.1"
   viewBox="0 0 417.07828 222.78061"
   height="222.78061mm"
   width="417.07828mm">
  <defs
     id="defs874">
    <linearGradient
       id="linearGradient1897"
       inkscape:collect="always">
      <stop
         id="stop1893"
         offset="0"
         style="stop-color:#ffd4e5;stop-opacity:1;" />
      <stop
         id="stop1895"
         offset="1"
         style="stop-color:#ffd4e5;stop-opacity:0;" />
    </linearGradient>
    <linearGradient
       id="linearGradient1879"
       inkscape:collect="always">
      <stop
         id="stop1875"
         offset="0"
         style="stop-color:#d38293;stop-opacity:1;" />
      <stop
         id="stop1877"
         offset="1"
         style="stop-color:#d38293;stop-opacity:0;" />
    </linearGradient>
    <marker
       inkscape:isstock="true"
       style="overflow:visible"
       id="TriangleOutS"
       refX="0"
       refY="0"
       orient="auto"
       inkscape:stockid="TriangleOutS">
      <path
         transform="scale(0.2)"
         style="fill:#000000;fill-opacity:1;fill-rule:evenodd;stroke:#000000;stroke-width:1pt;stroke-opacity:1"
         d="M 5.77,0 -2.88,5 V -5 Z"
         id="path1617" />
    </marker>
    <filter
       height="1.1068928"
       y="-0.055012941"
       width="1.1318202"
       x="-0.064085245"
       id="filter1247-4"
       style="color-interpolation-filters:sRGB"
       inkscape:collect="always">
      <feGaussianBlur
         id="feGaussianBlur1249-7"
         stdDeviation="0.38143385"
         inkscape:collect="always" />
    </filter>
    <linearGradient
       gradientUnits="userSpaceOnUse"
       y2="172.73489"
       x2="226.30882"
       y1="242.66049"
       x1="240.77136"
       id="linearGradient1881"
       xlink:href="#linearGradient1879"
       inkscape:collect="always" />
    <linearGradient
       gradientUnits="userSpaceOnUse"
       y2="209.39857"
       x2="225.93085"
       y1="147.41049"
       x1="181.42909"
       id="linearGradient1899"
       xlink:href="#linearGradient1897"
       inkscape:collect="always" />
    <filter
       height="1.1122881"
       y="-0.056144037"
       width="1.0838387"
       x="-0.041919342"
       id="filter1905"
       style="color-interpolation-filters:sRGB"
       inkscape:collect="always">
      <feGaussianBlur
         id="feGaussianBlur1907"
         stdDeviation="1.7279558"
         inkscape:collect="always" />
    </filter>
  </defs>
  <sodipodi:namedview
     inkscape:window-maximized="1"
     inkscape:window-y="-8"
     inkscape:window-x="-8"
     inkscape:window-height="1377"
     inkscape:window-width="2560"
     inkscape:snap-smooth-nodes="true"
     inkscape:snap-intersection-paths="false"
     showgrid="false"
     inkscape:document-rotation="0"
     inkscape:current-layer="layer1"
     inkscape:document-units="mm"
     inkscape:cy="450.74768"
     inkscape:cx="775.02438"
     inkscape:zoom="0.7"
     inkscape:pageshadow="2"
     inkscape:pageopacity="0.0"
     borderopacity="1.0"
     bordercolor="#666666"
     pagecolor="#ffffff"
     id="base" />
  <metadata
     id="metadata877">
    <rdf:RDF>
      <cc:Work
         rdf:about="">
        <dc:format>image/svg+xml</dc:format>
        <dc:type
           rdf:resource="http://purl.org/dc/dcmitype/StillImage" />
        <dc:title></dc:title>
      </cc:Work>
    </rdf:RDF>
  </metadata>
  <g
     transform="translate(-6.0077904,-87.206793)"
     id="layer1"
     inkscape:groupmode="layer"
     inkscape:label="Livello 1">
    <path
       sodipodi:nodetypes="cccccccc"
       d="m 165.4785,186.99119 v 30.00023 h 50.15715 v 21.93148 l 48.77317,-36.93159 -48.77317,-36.93367 v 21.93355 z"
       style="color:#000000;font-style:normal;font-variant:normal;font-weight:normal;font-stretch:normal;font-size:medium;line-height:normal;font-family:sans-serif;font-variant-ligatures:normal;font-variant-position:normal;font-variant-caps:normal;font-variant-numeric:normal;font-variant-alternates:normal;font-variant-east-asian:normal;font-feature-settings:normal;font-variation-settings:normal;text-indent:0;text-align:start;text-decoration:none;text-decoration-line:none;text-decoration-style:solid;text-decoration-color:#000000;letter-spacing:normal;word-spacing:normal;text-transform:none;writing-mode:lr-tb;direction:ltr;text-orientation:mixed;dominant-baseline:auto;baseline-shift:baseline;text-anchor:start;white-space:normal;shape-padding:0;shape-margin:0;inline-size:0;clip-rule:nonzero;display:inline;overflow:visible;visibility:visible;opacity:0.2;isolation:auto;mix-blend-mode:normal;color-interpolation:sRGB;color-interpolation-filters:linearRGB;solid-color:#000000;solid-opacity:1;vector-effect:none;fill:#000000;fill-opacity:1;fill-rule:nonzero;stroke:#000000;stroke-width:7;stroke-linecap:butt;stroke-linejoin:round;stroke-miterlimit:4;stroke-dasharray:none;stroke-dashoffset:0;stroke-opacity:1;filter:url(#filter1905);color-rendering:auto;image-rendering:auto;shape-rendering:auto;text-rendering:auto;enable-background:accumulate;stop-color:#000000"
       id="path1903" />
    <path
       sodipodi:nodetypes="cccccccc"
       d="m 164.42016,183.81617 v 30.00023 l 50.15715,0 v 21.93148 l 48.77317,-36.93159 -48.77317,-36.93367 v 21.93355 z"
       style="color:#000000;font-style:normal;font-variant:normal;font-weight:normal;font-stretch:normal;font-size:medium;line-height:normal;font-family:sans-serif;font-variant-ligatures:normal;font-variant-position:normal;font-variant-caps:normal;font-variant-numeric:normal;font-variant-alternates:normal;font-variant-east-asian:normal;font-feature-settings:normal;font-variation-settings:normal;text-indent:0;text-align:start;text-decoration:none;text-decoration-line:none;text-decoration-style:solid;text-decoration-color:#000000;letter-spacing:normal;word-spacing:normal;text-transform:none;writing-mode:lr-tb;direction:ltr;text-orientation:mixed;dominant-baseline:auto;baseline-shift:baseline;text-anchor:start;white-space:normal;shape-padding:0;shape-margin:0;inline-size:0;clip-rule:nonzero;display:inline;overflow:visible;visibility:visible;isolation:auto;mix-blend-mode:normal;color-interpolation:sRGB;color-interpolation-filters:linearRGB;solid-color:#000000;solid-opacity:1;vector-effect:none;fill:#ffaabb;fill-opacity:1;fill-rule:nonzero;stroke:none;stroke-width:30;stroke-linecap:butt;stroke-linejoin:round;stroke-miterlimit:4;stroke-dasharray:none;stroke-dashoffset:0;stroke-opacity:1;color-rendering:auto;image-rendering:auto;shape-rendering:auto;text-rendering:auto;enable-background:accumulate;stop-color:#000000"
       id="path1812" />
    <g
       transform="translate(0,5.5652445)"
       id="g1871">
      <path
         sodipodi:nodetypes="ccccccccccccccccccccccccccccccccccccccccccccc"
         d="m 74.506734,68.688227 -4.698356,8.531259 12.36414,-2.596468 m -50.322073,0.741848 11.375023,6.552996 -9.891312,20.277198 m -6.429367,-47.849241 5.934797,2.225546 -1.730985,4.080167 m 3.832891,-12.240501 -2.101906,8.160334 10.138583,0.247271 m 26.706562,-0.247271 -9.396742,-4.574734 m -17.30982,4.822016 17.30982,-4.822016 3.33832,-8.283976 m -10.880453,-0.741849 -11.49867,0.989131 m 20.029919,-10.509523 -10.509531,2.101905 6.553016,3.709244 m -0.618221,-10.633165 -5.934795,6.923921 -9.520388,8.407618 M 27.646631,39.632486 41.247186,43.959937 M 21.09364,37.159659 24.926532,48.658313 11.6969,47.050975 m 29.550286,-3.091038 -16.320654,4.698376 -12.116867,9.39675 M 28.3885,27.391982 40.258068,30.112096 m 5.316578,-8.160336 -5.316578,8.160336 12.487788,-5.19294 m -17.309793,-4.822018 4.822005,10.014958 0.989118,13.847841 1.730983,12.85871 0.247299,25.099215 26.58291,-4.698376 11.004077,8.036695"
         style="fill:none;stroke:#000000;stroke-width:2.41369;stroke-linecap:round;stroke-linejoin:round;stroke-miterlimit:4;stroke-dasharray:none;stroke-opacity:0.2;filter:url(#filter1247-4)"
         id="path1753"
         mask="none"
         transform="matrix(2.0781803,0,0,2.0781803,242.39623,66.226507)" />
      <path
         id="path1755"
         style="fill:none;stroke:#009e73;stroke-width:5.01609;stroke-linecap:round;stroke-linejoin:round;stroke-miterlimit:4;stroke-dasharray:none;stroke-opacity:1"
         d="m 397.23369,205.12438 -9.76406,17.7295 25.69492,-5.39593 m -104.57836,1.54168 23.63936,13.61831 -20.55595,42.13968 m -13.36136,-99.43935 12.33357,4.62507 -3.59728,8.47933 m 7.96541,-25.43797 -4.36813,16.95864 21.06981,0.51389 m 55.50106,-0.51389 -19.52812,-9.50711 m -35.97294,10.02102 35.97294,-10.02102 6.93763,-17.21559 m -22.61155,-1.54171 -23.8963,2.0556 m 41.62579,-21.84075 -21.84073,4.36813 13.61835,7.70856 m -1.28478,-22.09772 -12.33357,14.38916 -19.78506,17.47262 m -28.26441,-8.99323 28.26441,8.99323 m -41.88272,-14.13224 7.96545,23.89632 -27.49357,-3.34035 m 61.41084,-6.42373 -33.91727,9.76408 -25.18104,19.52813 m 32.37562,-63.72347 24.66709,5.65288 m 11.04883,-16.95865 -11.04883,16.95865 25.9519,-10.79186 m -35.9729,-10.02103 10.021,20.81289 2.0556,28.77838 3.59728,26.72272 0.51393,52.16069 55.24408,-9.76406 22.86845,16.7017"
         sodipodi:nodetypes="ccccccccccccccccccccccccccccccccccccccccccccc"
         mask="none" />
    </g>
    <g
       transform="translate(5.2916667,-4.7913005)"
       id="g1867">
      <path
         transform="matrix(2.0781803,0,0,2.0781803,-10.091863,76.583052)"
         mask="none"
         id="path1861"
         style="fill:none;stroke:#000000;stroke-width:2.41369;stroke-linecap:round;stroke-linejoin:round;stroke-miterlimit:4;stroke-dasharray:none;stroke-opacity:0.2;filter:url(#filter1247-4)"
         d="m 74.506734,68.688227 -4.698356,8.531259 12.36414,-2.596468 m -50.322073,0.741848 11.375023,6.552996 -9.891312,20.277198 m -6.429367,-47.849241 5.934797,2.225546 -1.730985,4.080167 m 3.832891,-12.240501 -2.101906,8.160334 10.138583,0.247271 m 26.706562,-0.247271 -9.396742,-4.574734 m -17.30982,4.822016 17.30982,-4.822016 3.33832,-8.283976 m -10.880453,-0.741849 -11.49867,0.989131 m 20.029919,-10.509523 -10.509531,2.101905 6.553016,3.709244 m -0.618221,-10.633165 -5.934795,6.923921 -9.520388,8.407618 M 27.646631,39.632486 41.247186,43.959937 M 21.09364,37.159659 24.926532,48.658313 11.6969,47.050975 m 29.550286,-3.091038 -16.320654,4.698376 -12.116867,9.39675 M 28.3885,27.391982 40.258068,30.112096 m 5.316578,-8.160336 -5.316578,8.160336 12.487788,-5.19294 m -17.309793,-4.822018 4.822005,10.014958 0.989118,13.847841 1.730983,12.85871 0.247299,25.099215 26.58291,-4.698376 11.004077,8.036695"
         sodipodi:nodetypes="ccccccccccccccccccccccccccccccccccccccccccccc" />
      <path
         mask="none"
         sodipodi:nodetypes="ccccccccccccccccccccccccccccccccccccccccccccc"
         d="m 144.74559,215.4809 -9.76406,17.7295 25.69492,-5.39593 m -104.578355,1.54168 23.63936,13.61831 -20.55595,42.13968 m -13.36136,-99.43935 12.33357,4.62507 -3.59728,8.47933 m 7.96541,-25.43797 -4.36813,16.95864 21.06981,0.51389 m 55.501055,-0.51389 -19.52812,-9.50711 m -35.972935,10.02102 35.972935,-10.02102 6.93763,-17.21559 m -22.611545,-1.54171 -23.8963,2.0556 m 41.625785,-21.84075 -21.840725,4.36813 13.618345,7.70856 m -1.28478,-22.09772 -12.333565,14.38916 -19.78506,17.47262 m -28.26441,-8.99323 28.26441,8.99323 m -41.88272,-14.13224 7.96545,23.89632 -27.49357,-3.34035 m 61.41084,-6.42373 -33.91727,9.76408 -25.18104,19.52813 m 32.37562,-63.72347 24.66709,5.65288 m 11.04883,-16.95865 -11.04883,16.95865 25.9519,-10.79186 m -35.9729,-10.02103 10.021,20.81289 2.0556,28.77838 3.59728,26.72272 0.51393,52.16069 55.244075,-9.76406 22.86845,16.7017"
         style="fill:none;stroke:#2b65a3;stroke-width:5.01609;stroke-linecap:round;stroke-linejoin:round;stroke-miterlimit:4;stroke-dasharray:none;stroke-opacity:1"
         id="path1863" />
    </g>
    <path
       id="path1873"
       style="color:#000000;font-style:normal;font-variant:normal;font-weight:normal;font-stretch:normal;font-size:medium;line-height:normal;font-family:sans-serif;font-variant-ligatures:normal;font-variant-position:normal;font-variant-caps:normal;font-variant-numeric:normal;font-variant-alternates:normal;font-variant-east-asian:normal;font-feature-settings:normal;font-variation-settings:normal;text-indent:0;text-align:start;text-decoration:none;text-decoration-line:none;text-decoration-style:solid;text-decoration-color:#000000;letter-spacing:normal;word-spacing:normal;text-transform:none;writing-mode:lr-tb;direction:ltr;text-orientation:mixed;dominant-baseline:auto;baseline-shift:baseline;text-anchor:start;white-space:normal;shape-padding:0;shape-margin:0;inline-size:0;clip-rule:nonzero;display:inline;overflow:visible;visibility:visible;isolation:auto;mix-blend-mode:normal;color-interpolation:sRGB;color-interpolation-filters:linearRGB;solid-color:#000000;solid-opacity:1;vector-effect:none;fill:url(#linearGradient1881);fill-opacity:1;fill-rule:nonzero;stroke:none;stroke-width:30;stroke-linecap:butt;stroke-linejoin:round;stroke-miterlimit:4;stroke-dasharray:none;stroke-dashoffset:0;stroke-opacity:1;color-rendering:auto;image-rendering:auto;shape-rendering:auto;text-rendering:auto;enable-background:accumulate;stop-color:#000000"
       d="m 164.42016,183.81617 v 30.00023 l 50.15715,0 v 21.93148 l 48.77317,-36.93159 -48.77317,-36.93367 v 21.93355 z"
       sodipodi:nodetypes="cccccccc" />
    <path
       sodipodi:nodetypes="cccccccc"
       d="m 164.42016,183.81617 v 30.00023 l 50.15715,0 v 21.93148 l 48.77317,-36.93159 -48.77317,-36.93367 v 21.93355 z"
       style="color:#000000;font-style:normal;font-variant:normal;font-weight:normal;font-stretch:normal;font-size:medium;line-height:normal;font-family:sans-serif;font-variant-ligatures:normal;font-variant-position:normal;font-variant-caps:normal;font-variant-numeric:normal;font-variant-alternates:normal;font-variant-east-asian:normal;font-feature-settings:normal;font-variation-settings:normal;text-indent:0;text-align:start;text-decoration:none;text-decoration-line:none;text-decoration-style:solid;text-decoration-color:#000000;letter-spacing:normal;word-spacing:normal;text-transform:none;writing-mode:lr-tb;direction:ltr;text-orientation:mixed;dominant-baseline:auto;baseline-shift:baseline;text-anchor:start;white-space:normal;shape-padding:0;shape-margin:0;inline-size:0;clip-rule:nonzero;display:inline;overflow:visible;visibility:visible;isolation:auto;mix-blend-mode:normal;color-interpolation:sRGB;color-interpolation-filters:linearRGB;solid-color:#000000;solid-opacity:1;vector-effect:none;fill:url(#linearGradient1899);fill-opacity:1;fill-rule:nonzero;stroke:none;stroke-width:30;stroke-linecap:butt;stroke-linejoin:round;stroke-miterlimit:4;stroke-dasharray:none;stroke-dashoffset:0;stroke-opacity:1;color-rendering:auto;image-rendering:auto;shape-rendering:auto;text-rendering:auto;enable-background:accumulate;stop-color:#000000"
       id="path1883" />
    <path
       id="path1901"
       style="color:#000000;font-style:normal;font-variant:normal;font-weight:normal;font-stretch:normal;font-size:medium;line-height:normal;font-family:sans-serif;font-variant-ligatures:normal;font-variant-position:normal;font-variant-caps:normal;font-variant-numeric:normal;font-variant-alternates:normal;font-variant-east-asian:normal;font-feature-settings:normal;font-variation-settings:normal;text-indent:0;text-align:start;text-decoration:none;text-decoration-line:none;text-decoration-style:solid;text-decoration-color:#000000;letter-spacing:normal;word-spacing:normal;text-transform:none;writing-mode:lr-tb;direction:ltr;text-orientation:mixed;dominant-baseline:auto;baseline-shift:baseline;text-anchor:start;white-space:normal;shape-padding:0;shape-margin:0;inline-size:0;clip-rule:nonzero;display:inline;overflow:visible;visibility:visible;isolation:auto;mix-blend-mode:normal;color-interpolation:sRGB;color-interpolation-filters:linearRGB;solid-color:#000000;solid-opacity:1;vector-effect:none;fill:none;fill-opacity:1;fill-rule:nonzero;stroke:#ffffff;stroke-width:7;stroke-linecap:butt;stroke-linejoin:round;stroke-miterlimit:4;stroke-dasharray:none;stroke-dashoffset:0;stroke-opacity:1;color-rendering:auto;image-rendering:auto;shape-rendering:auto;text-rendering:auto;enable-background:accumulate;stop-color:#000000"
       d="m 164.42016,183.81617 v 30.00023 l 50.15715,0 v 21.93148 l 48.77317,-36.93159 -48.77317,-36.93367 v 21.93355 z"
       sodipodi:nodetypes="cccccccc" />
  </g>
</svg>
