<?xml version="1.0" encoding="UTF-8" standalone="no"?>
<svg
   xmlns:dc="http://purl.org/dc/elements/1.1/"
   xmlns:cc="http://creativecommons.org/ns#"
   xmlns:rdf="http://www.w3.org/1999/02/22-rdf-syntax-ns#"
   xmlns:svg="http://www.w3.org/2000/svg"
   xmlns="http://www.w3.org/2000/svg"
   xmlns:xlink="http://www.w3.org/1999/xlink"
   xmlns:sodipodi="http://sodipodi.sourceforge.net/DTD/sodipodi-0.dtd"
   xmlns:inkscape="http://www.inkscape.org/namespaces/inkscape"
   inkscape:export-ydpi="16.873861"
   inkscape:export-xdpi="16.873861"
   inkscape:export-filename="O:\Projects\TreeViewer\src\TreeViewer\Assets\LoadFileTemplate.png"
   sodipodi:docname="LoadFileTemplate.svg"
   inkscape:version="1.0 (4035a4fb49, 2020-05-01)"
   id="svg930"
   version="1.1"
   viewBox="0 0 183.68474 192.67671"
   height="192.67671mm"
   width="183.68474mm">
  <defs
     id="defs924">
    <linearGradient
       id="linearGradient2297"
       inkscape:collect="always">
      <stop
         id="stop2293"
         offset="0"
         style="stop-color:#ffffff;stop-opacity:0.2" />
      <stop
         id="stop2295"
         offset="1"
         style="stop-color:#ffffff;stop-opacity:0;" />
    </linearGradient>
    <linearGradient
       id="linearGradient2287"
       inkscape:collect="always">
      <stop
         id="stop2283"
         offset="0"
         style="stop-color:#000000;stop-opacity:0.2" />
      <stop
         id="stop2285"
         offset="1"
         style="stop-color:#000000;stop-opacity:0;" />
    </linearGradient>
    <marker
       inkscape:isstock="true"
       style="overflow:visible"
       id="TriangleOutS"
       refX="0"
       refY="0"
       orient="auto"
       inkscape:stockid="TriangleOutS">
      <path
         transform="scale(0.2)"
         style="fill:#163352;fill-opacity:1;fill-rule:evenodd;stroke:#163352;stroke-width:1pt;stroke-opacity:1"
         d="M 5.77,0 -2.88,5 V -5 Z"
         id="path1617" />
    </marker>
    <linearGradient
       id="linearGradient2003"
       inkscape:collect="always">
      <stop
         id="stop1999"
         offset="0"
         style="stop-color:#000000;stop-opacity:0.2" />
      <stop
         id="stop2001"
         offset="1"
         style="stop-color:#000000;stop-opacity:0;" />
    </linearGradient>
    <linearGradient
       id="linearGradient1985"
       inkscape:collect="always">
      <stop
         id="stop1981"
         offset="0"
         style="stop-color:#000000;stop-opacity:0.2" />
      <stop
         id="stop1983"
         offset="1"
         style="stop-color:#000000;stop-opacity:0;" />
    </linearGradient>
    <linearGradient
       id="linearGradient1975"
       inkscape:collect="always">
      <stop
         id="stop1971"
         offset="0"
         style="stop-color:#000000;stop-opacity:0.2" />
      <stop
         id="stop1973"
         offset="1"
         style="stop-color:#000000;stop-opacity:0;" />
    </linearGradient>
    <linearGradient
       id="linearGradient1965"
       inkscape:collect="always">
      <stop
         id="stop1961"
         offset="0"
         style="stop-color:#000000;stop-opacity:0.22653721" />
      <stop
         id="stop1963"
         offset="1"
         style="stop-color:#000000;stop-opacity:0;" />
    </linearGradient>
    <linearGradient
       id="linearGradient1588"
       inkscape:collect="always">
      <stop
         id="stop1584"
         offset="0"
         style="stop-color:#030303;stop-opacity:0.2" />
      <stop
         style="stop-color:#030303;stop-opacity:0.60000002"
         offset="0.41888624"
         id="stop1592" />
      <stop
         id="stop1594"
         offset="0.57194614"
         style="stop-color:#030303;stop-opacity:0.1" />
      <stop
         id="stop1586"
         offset="1"
         style="stop-color:#030303;stop-opacity:0;" />
    </linearGradient>
    <linearGradient
       id="linearGradient1527-8"
       inkscape:collect="always">
      <stop
         id="stop1523"
         offset="0"
         style="stop-color:#955400;stop-opacity:1" />
      <stop
         id="stop1525"
         offset="1"
         style="stop-color:#ae7700;stop-opacity:0" />
    </linearGradient>
    <linearGradient
       y2="135.52879"
       x2="111.80212"
       y1="134.80119"
       x1="112.69025"
       gradientUnits="userSpaceOnUse"
       id="linearGradient1533"
       xlink:href="#linearGradient1527-8"
       inkscape:collect="always" />
    <linearGradient
       gradientUnits="userSpaceOnUse"
       y2="0.071400329"
       x2="20.097427"
       y1="20.804068"
       x1="0.024381559"
       id="linearGradient1590"
       xlink:href="#linearGradient1588"
       inkscape:collect="always" />
    <filter
       inkscape:collect="always"
       style="color-interpolation-filters:sRGB"
       id="filter1247-4"
       x="-0.058365583"
       width="1.1247387"
       y="-0.054685593"
       height="1.1254104">
      <feGaussianBlur
         inkscape:collect="always"
         stdDeviation="0.38143385"
         id="feGaussianBlur1249-7" />
    </filter>
    <clipPath
       clipPathUnits="userSpaceOnUse"
       id="clipPath2011">
      <path
         id="path2013"
         style="opacity:1;fill:#ffffff;fill-opacity:1;stroke:none;stroke-width:1.2;stroke-miterlimit:4;stroke-dasharray:none;stroke-opacity:0.3"
         d="m -21.122381,115.15856 v 72.54855 h 66.493099 v -72.54855 z m 25.1669394,5.75521 c 4.1618694,-0.0419 8.6528226,2.29346 12.2137246,4.49223 5.29476,3.26938 9.413079,8.59956 12.110371,14.2074 3.461472,7.19661 6.055156,15.6815 4.541843,23.5226 -1.277284,6.61813 -4.610891,14.70209 -10.94662,17.00206 -7.72052,2.80267 -17.6663478,-1.57753 -23.522593,-7.33651 -3.2645376,-3.2103 -5.0620797,-8.52643 -4.3087819,-13.04261 0.8340805,-5.00048 8.5495421,-7.08315 9.1994382,-12.11089 0.845566,-6.54147 -8.1205229,-11.70981 -7.5690466,-18.2826 0.2566326,-3.05872 2.0455282,-6.65021 4.89065626,-7.80211 1.08616754,-0.43976 2.22568554,-0.63783 3.39100844,-0.64957 z" />
    </clipPath>
    <pattern
       id="EMFhbasepattern"
       patternUnits="userSpaceOnUse"
       width="6"
       height="6"
       x="0"
       y="0" />
    <linearGradient
       gradientTransform="translate(4.6111953,47.429481)"
       gradientUnits="userSpaceOnUse"
       y2="135.67775"
       x2="160.40698"
       y1="184.47046"
       x1="168.68016"
       id="linearGradient1967"
       xlink:href="#linearGradient1965"
       inkscape:collect="always" />
    <linearGradient
       gradientUnits="userSpaceOnUse"
       y2="132.36893"
       x2="130.01865"
       y1="183.60709"
       x1="113.25497"
       id="linearGradient1977"
       xlink:href="#linearGradient1975"
       inkscape:collect="always" />
    <linearGradient
       gradientTransform="translate(4.6111953,47.429481)"
       gradientUnits="userSpaceOnUse"
       y2="124.62392"
       x2="127.92424"
       y1="137.08412"
       x1="129.32513"
       id="linearGradient1987"
       xlink:href="#linearGradient1985"
       inkscape:collect="always" />
    <linearGradient
       gradientTransform="translate(4.6111953,47.429481)"
       gradientUnits="userSpaceOnUse"
       y2="121.65443"
       x2="147.48099"
       y1="141.33455"
       x1="143.52689"
       id="linearGradient2005"
       xlink:href="#linearGradient2003"
       inkscape:collect="always" />
    <mask
       id="mask2016"
       maskUnits="userSpaceOnUse">
      <path
         id="path2018"
         d="m 143.52688,133.41472 v 52.69942 l 36.56022,-19.26822 v -43.64171 z"
         style="opacity:1;fill:#ffffff;fill-opacity:1;stroke:none;stroke-width:0.4;stroke-linecap:round;stroke-linejoin:round" />
    </mask>
    <filter
       height="1.136701"
       y="-0.068350479"
       width="1.0739748"
       x="-0.036987457"
       id="filter2020"
       style="color-interpolation-filters:sRGB"
       inkscape:collect="always">
      <feGaussianBlur
         id="feGaussianBlur2022"
         stdDeviation="0.7790619"
         inkscape:collect="always" />
    </filter>
    <filter
       height="1.1357385"
       y="-0.067869239"
       width="1.0742599"
       x="-0.037129931"
       id="filter2026"
       style="color-interpolation-filters:sRGB"
       inkscape:collect="always">
      <feGaussianBlur
         id="feGaussianBlur2028"
         stdDeviation="0.77630474"
         inkscape:collect="always" />
    </filter>
    <mask
       id="mask2032"
       maskUnits="userSpaceOnUse">
      <path
         id="path2034"
         d="m 143.52688,133.41472 v 52.69942 l -36.56023,-19.59759 v -43.64171 z"
         style="opacity:1;fill:#ffffff;fill-opacity:1;stroke:none;stroke-width:0.4;stroke-linecap:round;stroke-linejoin:round" />
    </mask>
    <filter
       height="1.1090575"
       y="-0.054528818"
       width="1.0857348"
       x="-0.042867418"
       id="filter2094"
       style="color-interpolation-filters:sRGB"
       inkscape:collect="always">
      <feGaussianBlur
         id="feGaussianBlur2096"
         stdDeviation="1.6473413"
         inkscape:collect="always" />
    </filter>
    <linearGradient
       gradientTransform="translate(4.6111953,47.429481)"
       y2="132.36893"
       x2="130.01865"
       y1="183.60709"
       x1="113.25497"
       gradientUnits="userSpaceOnUse"
       id="linearGradient2119"
       xlink:href="#linearGradient1975"
       inkscape:collect="always" />
    <linearGradient
       gradientUnits="userSpaceOnUse"
       y2="134.48671"
       x2="33.809895"
       y1="190.14999"
       x1="60.945114"
       id="linearGradient2289"
       xlink:href="#linearGradient2287"
       inkscape:collect="always" />
    <linearGradient
       gradientUnits="userSpaceOnUse"
       y2="158.82484"
       x2="25.837074"
       y1="104.55897"
       x1="-2.403888"
       id="linearGradient2299"
       xlink:href="#linearGradient2297"
       inkscape:collect="always" />
    <filter
       height="1.109051"
       y="-0.054525498"
       width="1.0857389"
       x="-0.042869471"
       id="filter2305"
       style="color-interpolation-filters:sRGB"
       inkscape:collect="always">
      <feGaussianBlur
         id="feGaussianBlur2307"
         stdDeviation="1.4571196"
         inkscape:collect="always" />
    </filter>
  </defs>
  <sodipodi:namedview
     inkscape:object-paths="true"
     inkscape:window-maximized="1"
     inkscape:window-y="-8"
     inkscape:window-x="-8"
     inkscape:window-height="1377"
     inkscape:window-width="2560"
     inkscape:snap-global="false"
     showgrid="false"
     inkscape:document-rotation="0"
     inkscape:current-layer="layer1"
     inkscape:document-units="mm"
     inkscape:cy="224.24087"
     inkscape:cx="571.95477"
     inkscape:zoom="0.80329785"
     inkscape:pageshadow="2"
     inkscape:pageopacity="0.0"
     borderopacity="1.0"
     bordercolor="#666666"
     pagecolor="#ffffff"
     id="base" />
  <metadata
     id="metadata927">
    <rdf:RDF>
      <cc:Work
         rdf:about="">
        <dc:format>image/svg+xml</dc:format>
        <dc:type
           rdf:resource="http://purl.org/dc/dcmitype/StillImage" />
        <dc:title></dc:title>
      </cc:Work>
    </rdf:RDF>
  </metadata>
  <g
     transform="translate(53.609059,-87.314638)"
     id="layer1"
     inkscape:groupmode="layer"
     inkscape:label="Livello 1">
    <g
       transform="translate(-108.00912,39.848268)"
       id="g2143">
      <path
         id="path2061"
         style="opacity:0.2;fill:#000002;fill-opacity:1;stroke:none;stroke-width:0.4;stroke-linecap:round;stroke-linejoin:round;filter:url(#filter2094)"
         d="m 147.21824,163.68434 -34.58239,9.2661 -10.12497,9.75134 10.12497,4.2385 v 29.65194 l 36.56057,19.59725 36.56005,-19.26807 v -30.08964 l 8.98342,-3.66437 -8.98342,-9.88777 z" />
      <path
         style="fill:#f79d78;fill-opacity:1;stroke:none;stroke-width:0.4;stroke-linecap:round;stroke-linejoin:round"
         d="m 111.57785,170.30432 34.58229,-9.2663 v 19.23596 z"
         id="path1951" />
      <path
         id="path1979"
         d="m 111.57785,170.30432 34.58229,-9.2663 v 19.23596 z"
         style="fill:url(#linearGradient1987);fill-opacity:1;stroke:none;stroke-width:0.4;stroke-linecap:round;stroke-linejoin:round" />
      <path
         style="fill:#c16142;fill-opacity:1;stroke:none;stroke-width:0.4;stroke-linecap:round;stroke-linejoin:round"
         d="m 146.16014,161.03802 38.53816,9.59567 -38.53816,13.48315 z"
         id="path1953"
         sodipodi:nodetypes="cccc" />
      <path
         sodipodi:nodetypes="cccc"
         id="path1997"
         d="m 146.16014,161.03802 38.53816,9.59567 -38.53816,13.48315 z"
         style="fill:url(#linearGradient2005);fill-opacity:1;stroke:none;stroke-width:0.4;stroke-linecap:round;stroke-linejoin:round" />
      <path
         style="fill:#ee8866;fill-opacity:1;stroke:none;stroke-width:0.4;stroke-linecap:round;stroke-linejoin:round"
         d="m 148.13808,180.8442 v 52.69942 L 184.6983,214.2754 v -43.64171 z"
         id="path1947" />
      <path
         style="fill:#c16142;fill-opacity:1;stroke:none;stroke-width:0.4;stroke-linecap:round;stroke-linejoin:round"
         d="m 148.13808,180.8442 v 52.69942 l -36.56023,-19.59759 v -43.64171 z"
         id="path1949" />
      <path
         id="path1959"
         d="m 148.13808,180.8442 v 52.69942 L 184.6983,214.2754 v -43.64171 z"
         style="fill:url(#linearGradient1967);fill-opacity:1;stroke:none;stroke-width:0.4;stroke-linecap:round;stroke-linejoin:round" />
      <path
         id="path1969"
         d="m 148.13808,180.8442 v 52.69942 l -36.56023,-19.59759 v -43.64171 z"
         style="fill:url(#linearGradient2119);fill-opacity:1;stroke:none;stroke-width:0.4;stroke-linecap:round;stroke-linejoin:round" />
      <path
         id="path2007"
         d="m 143.52688,133.41472 7.93004,17.1448 42.62084,-14.3234 -13.99066,-13.03191 z"
         style="opacity:0.2;fill:#000000;fill-opacity:1;stroke:none;stroke-width:0.4;stroke-linecap:round;stroke-linejoin:round;filter:url(#filter2020)"
         sodipodi:nodetypes="ccccc"
         mask="url(#mask2016)"
         transform="translate(4.6111953,47.429481)" />
      <path
         style="fill:#f79d78;fill-opacity:1;stroke:none;stroke-width:0.4;stroke-linecap:round;stroke-linejoin:round"
         d="m 148.13808,180.8442 10.1426,14.11709 35.40091,-14.43985 -8.98329,-9.88775 z"
         id="path1957" />
      <path
         id="path2024"
         d="m 106.96665,122.87484 -13.618464,11.38163 34.003514,16.07015 16.17518,-16.9119 z"
         style="opacity:0.2;fill:#000000;fill-opacity:1;stroke:none;stroke-width:0.4;stroke-linecap:round;stroke-linejoin:round;filter:url(#filter2026)"
         sodipodi:nodetypes="ccccc"
         mask="url(#mask2032)"
         transform="translate(4.6111953,47.429481)" />
      <path
         style="fill:#ab5031;fill-opacity:1;stroke:none;stroke-width:0.4;stroke-linecap:round;stroke-linejoin:round"
         d="m 111.57785,170.30432 -10.12496,9.75132 35.05157,14.67275 11.63362,-13.88419 z"
         id="path1955" />
    </g>
    <g
       transform="matrix(0.6376596,0,0,0.6376596,48.454595,23.604782)"
       id="g2153">
      <path
         transform="matrix(0.97081097,0,0,0.97081097,-57.856605,84.760021)"
         mask="none"
         id="path2149"
         style="fill:none;stroke:#000000;stroke-width:2.41369;stroke-linecap:round;stroke-linejoin:round;stroke-miterlimit:4;stroke-dasharray:none;stroke-opacity:0.2;filter:url(#filter1247-4)"
         d="m 74.506734,68.688227 -4.698356,8.531259 12.36414,-2.596468 m -50.322073,0.741848 11.375023,6.552996 -9.891312,20.277198 m -6.429367,-47.849241 5.934797,2.225546 -1.730985,4.080167 m 3.832891,-12.240501 -2.101906,8.160334 10.138583,0.247271 m 26.706562,-0.247271 -9.396742,-4.574734 m -17.30982,4.822016 17.30982,-4.822016 3.33832,-8.283976 m -10.880453,-0.741849 -11.49867,0.989131 m 20.029919,-10.509523 -10.509531,2.101905 6.553016,3.709244 m -0.618221,-10.633165 -5.934795,6.923921 -9.520388,8.407618 M 27.646631,39.632486 41.247186,43.959937 M 21.09364,37.159659 24.926532,48.658313 11.6969,47.050975 m 29.550286,-3.091038 -16.320654,4.698376 -12.116867,9.39675 M 28.3885,27.391982 40.258068,30.112096 m 5.316578,-8.160336 -5.316578,8.160336 12.487788,-5.19294 m -17.309793,-4.822018 4.822005,10.014958 0.989118,13.847841 1.730983,12.85871 0.247299,25.099215 26.58291,-4.698376 11.004077,8.036695"
         sodipodi:nodetypes="ccccccccccccccccccccccccccccccccccccccccccccc" />
      <path
         mask="none"
         sodipodi:nodetypes="ccccccccccccccccccccccccccccccccccccccccccccc"
         d="m 14.474891,149.64543 -4.5612302,8.28224 12.0032502,-2.52068 m -48.85322,0.72019 11.04299,6.36172 -9.60259,19.68533 m -6.241696,-46.45257 5.761566,2.16058 -1.680456,3.96107 m 3.721006,-11.88321 -2.04055,7.92214 9.84264,0.24006 m 25.9270298,-0.24006 -9.12246003,-4.4412 m -16.80456977,4.68127 16.80456977,-4.68127 3.24088003,-8.04217 m -10.56287,-0.7202 -11.1630298,0.96026 m 19.4452698,-10.20279 -10.20278,2.04055 6.36174,3.60101 m -0.60018,-10.32283 -5.76156,6.72182 -9.2424898,8.16224 m -13.203566,-4.20114 13.203566,4.20114 m -19.565286,-6.6018 3.72102,11.16304 -12.84348,-1.56043 m 28.687746,-3.00081 -15.844266,4.56124 -11.76319,9.12246 m 15.1241,-29.76808 11.523106,2.64071 m 5.16139,-7.92214 -5.16139,7.92214 12.1232798,-5.04136 m -16.8045398,-4.68127 4.68126,9.72263 0.96025,13.44367 1.68045,12.48338 0.24008,24.36659 25.8069798,-4.56123 10.6828802,7.80211"
         style="fill:none;stroke:#2b65a3;stroke-width:2.34324;stroke-linecap:round;stroke-linejoin:round;stroke-miterlimit:4;stroke-dasharray:none;stroke-opacity:1"
         id="path2151" />
    </g>
    <g
       transform="matrix(0.6376596,0,0,0.6376596,-21.410812,47.651782)"
       id="g2147">
      <path
         sodipodi:nodetypes="ccccccccccccccccccccccccccccccccccccccccccccc"
         d="m 74.506734,68.688227 -4.698356,8.531259 12.36414,-2.596468 m -50.322073,0.741848 11.375023,6.552996 -9.891312,20.277198 m -6.429367,-47.849241 5.934797,2.225546 -1.730985,4.080167 m 3.832891,-12.240501 -2.101906,8.160334 10.138583,0.247271 m 26.706562,-0.247271 -9.396742,-4.574734 m -17.30982,4.822016 17.30982,-4.822016 3.33832,-8.283976 m -10.880453,-0.741849 -11.49867,0.989131 m 20.029919,-10.509523 -10.509531,2.101905 6.553016,3.709244 m -0.618221,-10.633165 -5.934795,6.923921 -9.520388,8.407618 M 27.646631,39.632486 41.247186,43.959937 M 21.09364,37.159659 24.926532,48.658313 11.6969,47.050975 m 29.550286,-3.091038 -16.320654,4.698376 -12.116867,9.39675 M 28.3885,27.391982 40.258068,30.112096 m 5.316578,-8.160336 -5.316578,8.160336 12.487788,-5.19294 m -17.309793,-4.822018 4.822005,10.014958 0.989118,13.847841 1.730983,12.85871 0.247299,25.099215 26.58291,-4.698376 11.004077,8.036695"
         style="fill:none;stroke:#000000;stroke-width:2.41369;stroke-linecap:round;stroke-linejoin:round;stroke-miterlimit:4;stroke-dasharray:none;stroke-opacity:0.2;filter:url(#filter1247-4)"
         id="path962-5-0"
         mask="none"
         transform="matrix(0.97081097,0,0,0.97081097,-57.856605,84.760021)" />
      <path
         id="path957-9-5"
         style="fill:none;stroke:#2b65a3;stroke-width:2.34324;stroke-linecap:round;stroke-linejoin:round;stroke-miterlimit:4;stroke-dasharray:none;stroke-opacity:1"
         d="m 14.474891,149.64543 -4.5612302,8.28224 12.0032502,-2.52068 m -48.85322,0.72019 11.04299,6.36172 -9.60259,19.68533 m -6.241696,-46.45257 5.761566,2.16058 -1.680456,3.96107 m 3.721006,-11.88321 -2.04055,7.92214 9.84264,0.24006 m 25.9270298,-0.24006 -9.12246003,-4.4412 m -16.80456977,4.68127 16.80456977,-4.68127 3.24088003,-8.04217 m -10.56287,-0.7202 -11.1630298,0.96026 m 19.4452698,-10.20279 -10.20278,2.04055 6.36174,3.60101 m -0.60018,-10.32283 -5.76156,6.72182 -9.2424898,8.16224 m -13.203566,-4.20114 13.203566,4.20114 m -19.565286,-6.6018 3.72102,11.16304 -12.84348,-1.56043 m 28.687746,-3.00081 -15.844266,4.56124 -11.76319,9.12246 m 15.1241,-29.76808 11.523106,2.64071 m 5.16139,-7.92214 -5.16139,7.92214 12.1232798,-5.04136 m -16.8045398,-4.68127 4.68126,9.72263 0.96025,13.44367 1.68045,12.48338 0.24008,24.36659 25.8069798,-4.56123 10.6828802,7.80211"
         sodipodi:nodetypes="ccccccccccccccccccccccccccccccccccccccccccccc"
         mask="none" />
    </g>
    <g
       id="g2159"
       transform="matrix(0.6376596,0,0,0.6376596,113.20415,47.651782)">
      <path
         sodipodi:nodetypes="ccccccccccccccccccccccccccccccccccccccccccccc"
         d="m 74.506734,68.688227 -4.698356,8.531259 12.36414,-2.596468 m -50.322073,0.741848 11.375023,6.552996 -9.891312,20.277198 m -6.429367,-47.849241 5.934797,2.225546 -1.730985,4.080167 m 3.832891,-12.240501 -2.101906,8.160334 10.138583,0.247271 m 26.706562,-0.247271 -9.396742,-4.574734 m -17.30982,4.822016 17.30982,-4.822016 3.33832,-8.283976 m -10.880453,-0.741849 -11.49867,0.989131 m 20.029919,-10.509523 -10.509531,2.101905 6.553016,3.709244 m -0.618221,-10.633165 -5.934795,6.923921 -9.520388,8.407618 M 27.646631,39.632486 41.247186,43.959937 M 21.09364,37.159659 24.926532,48.658313 11.6969,47.050975 m 29.550286,-3.091038 -16.320654,4.698376 -12.116867,9.39675 M 28.3885,27.391982 40.258068,30.112096 m 5.316578,-8.160336 -5.316578,8.160336 12.487788,-5.19294 m -17.309793,-4.822018 4.822005,10.014958 0.989118,13.847841 1.730983,12.85871 0.247299,25.099215 26.58291,-4.698376 11.004077,8.036695"
         style="fill:none;stroke:#000000;stroke-width:2.41369;stroke-linecap:round;stroke-linejoin:round;stroke-miterlimit:4;stroke-dasharray:none;stroke-opacity:0.2;filter:url(#filter1247-4)"
         id="path2155"
         mask="none"
         transform="matrix(0.97081097,0,0,0.97081097,-57.856605,84.760021)" />
      <path
         id="path2157"
         style="fill:none;stroke:#2b65a3;stroke-width:2.34324;stroke-linecap:round;stroke-linejoin:round;stroke-miterlimit:4;stroke-dasharray:none;stroke-opacity:1"
         d="m 14.474891,149.64543 -4.5612302,8.28224 12.0032502,-2.52068 m -48.85322,0.72019 11.04299,6.36172 -9.60259,19.68533 m -6.241696,-46.45257 5.761566,2.16058 -1.680456,3.96107 m 3.721006,-11.88321 -2.04055,7.92214 9.84264,0.24006 m 25.9270298,-0.24006 -9.12246003,-4.4412 m -16.80456977,4.68127 16.80456977,-4.68127 3.24088003,-8.04217 m -10.56287,-0.7202 -11.1630298,0.96026 m 19.4452698,-10.20279 -10.20278,2.04055 6.36174,3.60101 m -0.60018,-10.32283 -5.76156,6.72182 -9.2424898,8.16224 m -13.203566,-4.20114 13.203566,4.20114 m -19.565286,-6.6018 3.72102,11.16304 -12.84348,-1.56043 m 28.687746,-3.00081 -15.844266,4.56124 -11.76319,9.12246 m 15.1241,-29.76808 11.523106,2.64071 m 5.16139,-7.92214 -5.16139,7.92214 12.1232798,-5.04136 m -16.8045398,-4.68127 4.68126,9.72263 0.96025,13.44367 1.68045,12.48338 0.24008,24.36659 25.8069798,-4.56123 10.6828802,7.80211"
         sodipodi:nodetypes="ccccccccccccccccccccccccccccccccccccccccccccc"
         mask="none" />
    </g>
    <g
       transform="translate(3.5032117,21.373181)"
       id="g2314">
      <path
         id="path2303"
         style="color:#000000;font-style:normal;font-variant:normal;font-weight:normal;font-stretch:normal;font-size:medium;line-height:normal;font-family:sans-serif;font-variant-ligatures:normal;font-variant-position:normal;font-variant-caps:normal;font-variant-numeric:normal;font-variant-alternates:normal;font-variant-east-asian:normal;font-feature-settings:normal;font-variation-settings:normal;text-indent:0;text-align:start;text-decoration:none;text-decoration-line:none;text-decoration-style:solid;text-decoration-color:#000000;letter-spacing:normal;word-spacing:normal;text-transform:none;writing-mode:lr-tb;direction:ltr;text-orientation:mixed;dominant-baseline:auto;baseline-shift:baseline;text-anchor:start;white-space:normal;shape-padding:0;shape-margin:0;inline-size:0;clip-rule:nonzero;display:inline;overflow:visible;visibility:visible;opacity:0.2;isolation:auto;mix-blend-mode:normal;color-interpolation:sRGB;color-interpolation-filters:linearRGB;solid-color:#000000;solid-opacity:1;vector-effect:none;fill:#000000;fill-opacity:1;fill-rule:nonzero;stroke:#000000;stroke-width:3;stroke-linecap:butt;stroke-linejoin:round;stroke-miterlimit:4;stroke-dasharray:none;stroke-dashoffset:0;stroke-opacity:1;filter:url(#filter2305);color-rendering:auto;image-rendering:auto;shape-rendering:auto;text-rendering:auto;enable-background:accumulate;stop-color:#000000;stop-opacity:1"
         d="m 31.491166,124.86121 v 14.87657 c -3.734448,-4.10808 -8.022381,-7.15048 -12.25517,-9.25781 -11.5410625,-5.74582 -22.9105581,-5.61876 -22.9105581,-5.61876 l 0.048419,11.24356 c 0,0 9.0111981,0.0388 17.8520781,4.44026 8.768124,4.36529 18.125212,11.97441 18.262184,30.24708 h -9.217423 l 13.842555,18.20538 13.842167,-18.20538 h -9.217299 c 0.136972,-18.27267 9.493936,-25.88179 18.262062,-30.24708 8.840879,-4.40151 17.852462,-4.44026 17.852462,-4.44026 l 0.04803,-11.24378 c 0,0 -11.370659,-0.12684 -22.91172,5.61898 -4.232402,2.10714 -8.520048,5.14914 -12.254008,9.25665 v -14.87541 z"
         sodipodi:nodetypes="ccsccscccccsccsccc" />
      <path
         id="path2225"
         style="color:#000000;font-style:normal;font-variant:normal;font-weight:normal;font-stretch:normal;font-size:medium;line-height:normal;font-family:sans-serif;font-variant-ligatures:normal;font-variant-position:normal;font-variant-caps:normal;font-variant-numeric:normal;font-variant-alternates:normal;font-variant-east-asian:normal;font-feature-settings:normal;font-variation-settings:normal;text-indent:0;text-align:start;text-decoration:none;text-decoration-line:none;text-decoration-style:solid;text-decoration-color:#000000;letter-spacing:normal;word-spacing:normal;text-transform:none;writing-mode:lr-tb;direction:ltr;text-orientation:mixed;dominant-baseline:auto;baseline-shift:baseline;text-anchor:start;white-space:normal;shape-padding:0;shape-margin:0;inline-size:0;clip-rule:nonzero;display:inline;overflow:visible;visibility:visible;opacity:1;isolation:auto;mix-blend-mode:normal;color-interpolation:sRGB;color-interpolation-filters:linearRGB;solid-color:#000000;solid-opacity:1;vector-effect:none;fill:#ee8866;fill-opacity:1;fill-rule:nonzero;stroke:none;stroke-width:11.2437;stroke-linecap:butt;stroke-linejoin:round;stroke-miterlimit:4;stroke-dasharray:none;stroke-dashoffset:0;stroke-opacity:1;color-rendering:auto;image-rendering:auto;shape-rendering:auto;text-rendering:auto;enable-background:accumulate;stop-color:#000000;stop-opacity:1"
         d="m 30.432832,122.21536 v 14.87657 c -3.734448,-4.10808 -8.022381,-7.15048 -12.25517,-9.25781 -11.5410619,-5.74582 -22.9105575,-5.61876 -22.9105575,-5.61876 l 0.048419,11.24356 c 0,0 9.0111981,0.0388 17.8520775,4.44026 8.768124,4.36529 18.125212,11.97441 18.262184,30.24708 h -9.217423 l 13.842555,18.20538 13.842167,-18.20538 h -9.217299 c 0.136972,-18.27267 9.493936,-25.88179 18.262062,-30.24708 8.840879,-4.40151 17.852462,-4.44026 17.852462,-4.44026 l 0.04803,-11.24378 c 0,0 -11.370659,-0.12684 -22.91172,5.61898 -4.232402,2.10714 -8.520048,5.14914 -12.254008,9.25665 v -14.87541 z"
         sodipodi:nodetypes="ccsccscccccsccsccc" />
      <path
         sodipodi:nodetypes="ccsccscccccsccsccc"
         d="m 30.432832,122.21536 v 14.87657 c -3.734448,-4.10808 -8.022381,-7.15048 -12.25517,-9.25781 -11.5410619,-5.74582 -22.9105575,-5.61876 -22.9105575,-5.61876 l 0.048419,11.24356 c 0,0 9.0111981,0.0388 17.8520775,4.44026 8.768124,4.36529 18.125212,11.97441 18.262184,30.24708 h -9.217423 l 13.842555,18.20538 13.842167,-18.20538 h -9.217299 c 0.136972,-18.27267 9.493936,-25.88179 18.262062,-30.24708 8.840879,-4.40151 17.852462,-4.44026 17.852462,-4.44026 l 0.04803,-11.24378 c 0,0 -11.370659,-0.12684 -22.91172,5.61898 -4.232402,2.10714 -8.520048,5.14914 -12.254008,9.25665 v -14.87541 z"
         style="color:#000000;font-style:normal;font-variant:normal;font-weight:normal;font-stretch:normal;font-size:medium;line-height:normal;font-family:sans-serif;font-variant-ligatures:normal;font-variant-position:normal;font-variant-caps:normal;font-variant-numeric:normal;font-variant-alternates:normal;font-variant-east-asian:normal;font-feature-settings:normal;font-variation-settings:normal;text-indent:0;text-align:start;text-decoration:none;text-decoration-line:none;text-decoration-style:solid;text-decoration-color:#000000;letter-spacing:normal;word-spacing:normal;text-transform:none;writing-mode:lr-tb;direction:ltr;text-orientation:mixed;dominant-baseline:auto;baseline-shift:baseline;text-anchor:start;white-space:normal;shape-padding:0;shape-margin:0;inline-size:0;clip-rule:nonzero;display:inline;overflow:visible;visibility:visible;opacity:1;isolation:auto;mix-blend-mode:normal;color-interpolation:sRGB;color-interpolation-filters:linearRGB;solid-color:#000000;solid-opacity:1;vector-effect:none;fill:url(#linearGradient2289);fill-opacity:1;fill-rule:nonzero;stroke:none;stroke-width:11.2437;stroke-linecap:butt;stroke-linejoin:round;stroke-miterlimit:4;stroke-dasharray:none;stroke-dashoffset:0;stroke-opacity:1;color-rendering:auto;image-rendering:auto;shape-rendering:auto;text-rendering:auto;enable-background:accumulate;stop-color:#000000;stop-opacity:1"
         id="path2281" />
      <path
         id="path2291"
         style="color:#000000;font-style:normal;font-variant:normal;font-weight:normal;font-stretch:normal;font-size:medium;line-height:normal;font-family:sans-serif;font-variant-ligatures:normal;font-variant-position:normal;font-variant-caps:normal;font-variant-numeric:normal;font-variant-alternates:normal;font-variant-east-asian:normal;font-feature-settings:normal;font-variation-settings:normal;text-indent:0;text-align:start;text-decoration:none;text-decoration-line:none;text-decoration-style:solid;text-decoration-color:#000000;letter-spacing:normal;word-spacing:normal;text-transform:none;writing-mode:lr-tb;direction:ltr;text-orientation:mixed;dominant-baseline:auto;baseline-shift:baseline;text-anchor:start;white-space:normal;shape-padding:0;shape-margin:0;inline-size:0;clip-rule:nonzero;display:inline;overflow:visible;visibility:visible;opacity:1;isolation:auto;mix-blend-mode:normal;color-interpolation:sRGB;color-interpolation-filters:linearRGB;solid-color:#000000;solid-opacity:1;vector-effect:none;fill:url(#linearGradient2299);fill-opacity:1;fill-rule:nonzero;stroke:none;stroke-width:11.2437;stroke-linecap:butt;stroke-linejoin:round;stroke-miterlimit:4;stroke-dasharray:none;stroke-dashoffset:0;stroke-opacity:1;color-rendering:auto;image-rendering:auto;shape-rendering:auto;text-rendering:auto;enable-background:accumulate;stop-color:#000000;stop-opacity:1"
         d="m 30.432832,122.21536 v 14.87657 c -3.734448,-4.10808 -8.022381,-7.15048 -12.25517,-9.25781 -11.5410619,-5.74582 -22.9105575,-5.61876 -22.9105575,-5.61876 l 0.048419,11.24356 c 0,0 9.0111981,0.0388 17.8520775,4.44026 8.768124,4.36529 18.125212,11.97441 18.262184,30.24708 h -9.217423 l 13.842555,18.20538 13.842167,-18.20538 h -9.217299 c 0.136972,-18.27267 9.493936,-25.88179 18.262062,-30.24708 8.840879,-4.40151 17.852462,-4.44026 17.852462,-4.44026 l 0.04803,-11.24378 c 0,0 -11.370659,-0.12684 -22.91172,5.61898 -4.232402,2.10714 -8.520048,5.14914 -12.254008,9.25665 v -14.87541 z"
         sodipodi:nodetypes="ccsccscccccsccsccc" />
      <path
         sodipodi:nodetypes="ccsccscccccsccsccc"
         d="m 30.432832,122.21536 v 14.87657 c -3.734448,-4.10808 -8.022381,-7.15048 -12.25517,-9.25781 -11.5410619,-5.74582 -22.9105575,-5.61876 -22.9105575,-5.61876 l 0.048419,11.24356 c 0,0 9.0111981,0.0388 17.8520775,4.44026 8.768124,4.36529 18.125212,11.97441 18.262184,30.24708 h -9.217423 l 13.842555,18.20538 13.842167,-18.20538 h -9.217299 c 0.136972,-18.27267 9.493936,-25.88179 18.262062,-30.24708 8.840879,-4.40151 17.852462,-4.44026 17.852462,-4.44026 l 0.04803,-11.24378 c 0,0 -11.370659,-0.12684 -22.91172,5.61898 -4.232402,2.10714 -8.520048,5.14914 -12.254008,9.25665 v -14.87541 z"
         style="color:#000000;font-style:normal;font-variant:normal;font-weight:normal;font-stretch:normal;font-size:medium;line-height:normal;font-family:sans-serif;font-variant-ligatures:normal;font-variant-position:normal;font-variant-caps:normal;font-variant-numeric:normal;font-variant-alternates:normal;font-variant-east-asian:normal;font-feature-settings:normal;font-variation-settings:normal;text-indent:0;text-align:start;text-decoration:none;text-decoration-line:none;text-decoration-style:solid;text-decoration-color:#000000;letter-spacing:normal;word-spacing:normal;text-transform:none;writing-mode:lr-tb;direction:ltr;text-orientation:mixed;dominant-baseline:auto;baseline-shift:baseline;text-anchor:start;white-space:normal;shape-padding:0;shape-margin:0;inline-size:0;clip-rule:nonzero;display:inline;overflow:visible;visibility:visible;opacity:1;isolation:auto;mix-blend-mode:normal;color-interpolation:sRGB;color-interpolation-filters:linearRGB;solid-color:#000000;solid-opacity:1;vector-effect:none;fill:none;fill-opacity:1;fill-rule:nonzero;stroke:#feffff;stroke-width:3;stroke-linecap:butt;stroke-linejoin:round;stroke-miterlimit:4;stroke-dasharray:none;stroke-dashoffset:0;stroke-opacity:1;color-rendering:auto;image-rendering:auto;shape-rendering:auto;text-rendering:auto;enable-background:accumulate;stop-color:#000000;stop-opacity:1"
         id="path2301" />
    </g>
  </g>
</svg>
