<?xml version="1.0" encoding="UTF-8" standalone="no"?>
<svg
   xmlns:dc="http://purl.org/dc/elements/1.1/"
   xmlns:cc="http://creativecommons.org/ns#"
   xmlns:rdf="http://www.w3.org/1999/02/22-rdf-syntax-ns#"
   xmlns:svg="http://www.w3.org/2000/svg"
   xmlns="http://www.w3.org/2000/svg"
   xmlns:xlink="http://www.w3.org/1999/xlink"
   xmlns:sodipodi="http://sodipodi.sourceforge.net/DTD/sodipodi-0.dtd"
   xmlns:inkscape="http://www.inkscape.org/namespaces/inkscape"
   width="80.529205mm"
   height="81.615807mm"
   viewBox="0 0 80.529205 81.615807"
   version="1.1"
   id="svg8"
   sodipodi:docname="MenuActionTemplate.svg"
   inkscape:version="1.0 (4035a4fb49, 2020-05-01)"
   inkscape:export-filename="G:\OneDrive - University of Bristol\Projects\TreeViewer\src\TreeViewer\Assets\MenuActionTemplate.png"
   inkscape:export-xdpi="39.835423"
   inkscape:export-ydpi="39.835423">
  <defs
     id="defs2">
    <linearGradient
       id="linearGradient1171"
       inkscape:collect="always">
      <stop
         id="stop1167"
         offset="0"
         style="stop-color:#d5c5ff;stop-opacity:1;" />
      <stop
         id="stop1169"
         offset="1"
         style="stop-color:#d5c5ff;stop-opacity:0;" />
    </linearGradient>
    <linearGradient
       id="linearGradient1161"
       inkscape:collect="always">
      <stop
         id="stop1157"
         offset="0"
         style="stop-color:#5b5092;stop-opacity:1;" />
      <stop
         id="stop1159"
         offset="1"
         style="stop-color:#5b5092;stop-opacity:0;" />
    </linearGradient>
    <linearGradient
       id="linearGradient1118"
       inkscape:collect="always">
      <stop
         id="stop1114"
         offset="0"
         style="stop-color:#fefefe;stop-opacity:1;" />
      <stop
         id="stop1116"
         offset="1"
         style="stop-color:#fefefe;stop-opacity:0;" />
    </linearGradient>
    <linearGradient
       id="linearGradient1108"
       inkscape:collect="always">
      <stop
         id="stop1104"
         offset="0"
         style="stop-color:#bdbdbd;stop-opacity:1" />
      <stop
         id="stop1106"
         offset="1"
         style="stop-color:#b8b8b8;stop-opacity:0" />
    </linearGradient>
    <linearGradient
       id="linearGradient1098"
       inkscape:collect="always">
      <stop
         id="stop1094"
         offset="0"
         style="stop-color:#d5c5ff;stop-opacity:1;" />
      <stop
         id="stop1096"
         offset="1"
         style="stop-color:#d5c5ff;stop-opacity:0;" />
    </linearGradient>
    <linearGradient
       id="linearGradient1088"
       inkscape:collect="always">
      <stop
         id="stop1084"
         offset="0"
         style="stop-color:#5b5092;stop-opacity:1" />
      <stop
         id="stop1086"
         offset="1"
         style="stop-color:#8275ba;stop-opacity:0;" />
    </linearGradient>
    <linearGradient
       inkscape:collect="always"
       id="linearGradient991">
      <stop
         style="stop-color:#000000;stop-opacity:0.2"
         offset="0"
         id="stop987" />
      <stop
         style="stop-color:#000000;stop-opacity:0;"
         offset="1"
         id="stop989" />
    </linearGradient>
    <linearGradient
       gradientTransform="translate(41.955357,14.552083)"
       inkscape:collect="always"
       xlink:href="#linearGradient991"
       id="linearGradient993"
       x1="86.089073"
       y1="234.36729"
       x2="70.258736"
       y2="216.59386"
       gradientUnits="userSpaceOnUse" />
    <filter
       inkscape:collect="always"
       style="color-interpolation-filters:sRGB"
       id="filter1001"
       x="-0.063716084"
       width="1.2002316"
       y="-0.038502939"
       height="1.129796">
      <feGaussianBlur
         inkscape:collect="always"
         stdDeviation="0.5168996"
         id="feGaussianBlur1003" />
    </filter>
    <linearGradient
       gradientUnits="userSpaceOnUse"
       y2="179.21837"
       x2="55.660919"
       y1="196.6577"
       x1="57.657852"
       id="linearGradient1090"
       xlink:href="#linearGradient1088"
       inkscape:collect="always" />
    <linearGradient
       gradientUnits="userSpaceOnUse"
       y2="189.17415"
       x2="28.599878"
       y1="170.99983"
       x1="27.590031"
       id="linearGradient1100"
       xlink:href="#linearGradient1098"
       inkscape:collect="always" />
    <linearGradient
       gradientUnits="userSpaceOnUse"
       y2="202.43933"
       x2="80.126373"
       y1="217.00552"
       x1="81.444839"
       id="linearGradient1110"
       xlink:href="#linearGradient1108"
       inkscape:collect="always" />
    <linearGradient
       gradientUnits="userSpaceOnUse"
       y2="203.77568"
       x2="46.984951"
       y1="181.45868"
       x1="43.626202"
       id="linearGradient1120"
       xlink:href="#linearGradient1118"
       inkscape:collect="always" />
    <linearGradient
       gradientTransform="matrix(3.7795276,0,0,3.7795276,-100.55961,-561.43115)"
       y2="203.77568"
       x2="46.984951"
       y1="181.45868"
       x1="43.626202"
       gradientUnits="userSpaceOnUse"
       id="linearGradient1134"
       xlink:href="#linearGradient1118"
       inkscape:collect="always" />
    <linearGradient
       gradientTransform="matrix(3.7795276,0,0,3.7795276,-100.55961,-561.43115)"
       y2="202.43933"
       x2="80.126373"
       y1="217.00552"
       x1="81.444839"
       gradientUnits="userSpaceOnUse"
       id="linearGradient1136"
       xlink:href="#linearGradient1108"
       inkscape:collect="always" />
    <linearGradient
       gradientUnits="userSpaceOnUse"
       y2="216.57315"
       x2="78.25486"
       y1="238.75652"
       x1="80.776665"
       id="linearGradient1163"
       xlink:href="#linearGradient1161"
       inkscape:collect="always" />
    <linearGradient
       gradientUnits="userSpaceOnUse"
       y2="222.05217"
       x2="32.952675"
       y1="208.68869"
       x1="31.999979"
       id="linearGradient1173"
       xlink:href="#linearGradient1171"
       inkscape:collect="always" />
    <filter
       height="1.0966254"
       y="-0.048312746"
       width="1.0953826"
       x="-0.047691278"
       id="filter1203"
       style="color-interpolation-filters:sRGB"
       inkscape:collect="always">
      <feGaussianBlur
         id="feGaussianBlur1205"
         stdDeviation="5.5214454"
         inkscape:collect="always" />
    </filter>
  </defs>
  <sodipodi:namedview
     inkscape:snap-smooth-nodes="true"
     id="base"
     pagecolor="#ffffff"
     bordercolor="#666666"
     borderopacity="1.0"
     inkscape:pageopacity="0.0"
     inkscape:pageshadow="2"
     inkscape:zoom="1.4"
     inkscape:cx="188.39357"
     inkscape:cy="181.89311"
     inkscape:document-units="mm"
     inkscape:current-layer="layer1"
     inkscape:document-rotation="0"
     showgrid="false"
     inkscape:window-width="2560"
     inkscape:window-height="1377"
     inkscape:window-x="-8"
     inkscape:window-y="-8"
     inkscape:window-maximized="1" />
  <metadata
     id="metadata5">
    <rdf:RDF>
      <cc:Work
         rdf:about="">
        <dc:format>image/svg+xml</dc:format>
        <dc:type
           rdf:resource="http://purl.org/dc/dcmitype/StillImage" />
        <dc:title></dc:title>
      </cc:Work>
    </rdf:RDF>
  </metadata>
  <g
     inkscape:label="Livello 1"
     inkscape:groupmode="layer"
     id="layer1"
     transform="translate(-25.537858,-174.37031)">
    <path
       transform="matrix(0.26458333,0,0,0.26458333,28.193898,186.94771)"
       d="m 14.552734,-34.285156 c -6.2815744,0 -11.3377051,5.056316 -11.3378902,11.33789 l -0.00195,57.232422 v 68.572264 68.57031 57.23438 C 3.2128906,234.94368 8.2692067,240 14.550781,240 H 269.73047 c 6.28157,0 11.3399,-5.05632 11.33984,-11.33789 v -57.23438 -68.57031 h 0.002 V 45.625 c -8e-5,-6.281575 -5.05827,-11.339844 -11.33985,-11.339844 H 181.7832 l 0.002,-57.232422 c 1.9e-4,-6.281574 -5.05632,-11.33789 -11.33789,-11.33789 z"
       style="opacity:0.3;fill:#000000;fill-opacity:1;stroke:none;stroke-width:5.66929;stroke-linecap:butt;stroke-linejoin:round;stroke-miterlimit:4;stroke-dasharray:none;stroke-opacity:1;filter:url(#filter1203)"
       id="path1175" />
    <path
       sodipodi:nodetypes="csssscc"
       transform="matrix(0.26458333,0,0,0.26458333,26.606397,184.83103)"
       d="m 3.2128906,171.42773 v 57.23438 C 3.2128906,234.94368 8.2692064,240 14.550781,240 H 269.73047 c 6.28157,0 11.3399,-5.05632 11.33984,-11.33789 l -5.5e-4,-57.2336 z"
       style="opacity:1;fill:#f2f2f2;fill-opacity:1;stroke:none;stroke-width:5.66929;stroke-linecap:butt;stroke-linejoin:round;stroke-miterlimit:4;stroke-dasharray:none;stroke-opacity:1"
       id="path1128" />
    <path
       sodipodi:nodetypes="csssscc"
       transform="matrix(0.26458333,0,0,0.26458333,26.606397,184.83103)"
       d="m 3.2128906,171.42773 v 57.23438 C 3.2128906,234.94368 8.2692064,240 14.550781,240 H 269.73047 c 6.28157,0 11.3399,-5.05632 11.33984,-11.33789 l -5.5e-4,-57.2336 z"
       style="opacity:1;fill:url(#linearGradient1136);fill-opacity:1;stroke:none;stroke-width:5.66929;stroke-linecap:butt;stroke-linejoin:round;stroke-miterlimit:4;stroke-dasharray:none;stroke-opacity:1"
       id="path1130" />
    <path
       sodipodi:nodetypes="csssscc"
       transform="matrix(0.26458333,0,0,0.26458333,26.606397,184.83103)"
       d="m 3.2128906,171.42773 v 57.23438 C 3.2128906,234.94368 8.2692064,240 14.550781,240 H 269.73047 c 6.28157,0 11.3399,-5.05632 11.33984,-11.33789 l -5.5e-4,-57.2336 z"
       style="opacity:1;fill:url(#linearGradient1134);fill-opacity:1;stroke:none;stroke-width:5.66929;stroke-linecap:butt;stroke-linejoin:round;stroke-miterlimit:4;stroke-dasharray:none;stroke-opacity:1"
       id="path1132" />
    <path
       sodipodi:nodetypes="csssscc"
       d="m 27.456397,193.90245 4.47e-4,-15.14285 c 4.9e-5,-1.662 1.338,-3 3,-3 h 41.247029 c 1.662,0 3.000052,1.338 3,3 l -4.76e-4,15.14285 z"
       style="opacity:1;fill:#ab9ce4;fill-opacity:1;stroke:none;stroke-width:1.5;stroke-linecap:butt;stroke-linejoin:round;stroke-miterlimit:4;stroke-dasharray:none;stroke-opacity:1"
       id="rect1071" />
    <path
       sodipodi:nodetypes="cssccc"
       d="m 27.456397,193.90245 h 70.51682 c 1.662,0 2.999983,1.338 3.000003,3 l 1.8e-4,15.14286 H 27.456397 Z"
       style="opacity:1;fill:#f2f2f2;fill-opacity:1;stroke:none;stroke-width:1.5;stroke-linecap:butt;stroke-linejoin:round;stroke-miterlimit:4;stroke-dasharray:none;stroke-opacity:1"
       id="rect1073" />
    <rect
       y="212.0453"
       x="27.456396"
       height="18.142853"
       width="73.516373"
       id="rect1075"
       style="opacity:1;fill:#ab9ce4;fill-opacity:1;stroke:none;stroke-width:1.5;stroke-linecap:butt;stroke-linejoin:round;stroke-miterlimit:4;stroke-dasharray:none;stroke-opacity:1" />
    <path
       id="path1082"
       style="opacity:1;fill:url(#linearGradient1090);fill-opacity:1;stroke:none;stroke-width:1.5;stroke-linecap:butt;stroke-linejoin:round;stroke-miterlimit:4;stroke-dasharray:none;stroke-opacity:1"
       d="m 27.456397,193.90245 4.47e-4,-15.14285 c 4.9e-5,-1.662 1.338,-3 3,-3 h 41.247029 c 1.662,0 3.000052,1.338 3,3 l -4.76e-4,15.14285 z"
       sodipodi:nodetypes="csssscc" />
    <path
       sodipodi:nodetypes="csssscc"
       d="m 27.456397,193.90245 4.47e-4,-15.14285 c 4.9e-5,-1.662 1.338,-3 3,-3 h 41.247029 c 1.662,0 3.000052,1.338 3,3 l -4.76e-4,15.14285 z"
       style="opacity:1;fill:url(#linearGradient1100);fill-opacity:1;stroke:none;stroke-width:1.5;stroke-linecap:butt;stroke-linejoin:round;stroke-miterlimit:4;stroke-dasharray:none;stroke-opacity:1"
       id="path1092" />
    <path
       id="path1102"
       style="opacity:1;fill:url(#linearGradient1110);fill-opacity:1;stroke:none;stroke-width:1.5;stroke-linecap:butt;stroke-linejoin:round;stroke-miterlimit:4;stroke-dasharray:none;stroke-opacity:1"
       d="m 27.456397,193.90245 h 70.51682 c 1.662,0 2.999983,1.338 3.000003,3 l 1.8e-4,15.14286 H 27.456397 Z"
       sodipodi:nodetypes="cssccc" />
    <path
       sodipodi:nodetypes="cssccc"
       d="m 27.456397,193.90245 h 70.51682 c 1.662,0 2.999983,1.338 3.000003,3 l 1.8e-4,15.14286 H 27.456397 Z"
       style="opacity:1;fill:url(#linearGradient1120);fill-opacity:1;stroke:none;stroke-width:1.5;stroke-linecap:butt;stroke-linejoin:round;stroke-miterlimit:4;stroke-dasharray:none;stroke-opacity:1"
       id="path1112" />
    <rect
       style="opacity:1;fill:url(#linearGradient1163);fill-opacity:1;stroke:none;stroke-width:1.5;stroke-linecap:butt;stroke-linejoin:round;stroke-miterlimit:4;stroke-dasharray:none;stroke-opacity:1"
       id="rect1147"
       width="73.516373"
       height="18.142853"
       x="27.456396"
       y="212.0453" />
    <rect
       y="212.0453"
       x="27.456396"
       height="18.142853"
       width="73.516373"
       id="rect1165"
       style="opacity:1;fill:url(#linearGradient1173);fill-opacity:1;stroke:none;stroke-width:1.5;stroke-linecap:butt;stroke-linejoin:round;stroke-miterlimit:4;stroke-dasharray:none;stroke-opacity:1" />
    <g
       transform="translate(-46.113096,4.1577382)"
       id="g1039">
      <path
         id="path999"
         style="opacity:0.3;fill:#000000;fill-opacity:1;stroke:#000000;stroke-width:2;stroke-linecap:butt;stroke-linejoin:round;stroke-miterlimit:4;stroke-dasharray:none;stroke-opacity:1;filter:url(#filter1001)"
         d="m 109.0685,217.02058 c 0,9.22591 0,18.45182 0,27.67773 0.5917,0.42381 1.12043,0.42821 1.55445,-0.19819 1.78719,-1.57326 3.57438,-3.14652 5.36157,-4.71978 1.05664,2.95182 2.11328,5.90365 3.16992,8.85547 0.55391,0.47306 1.13485,0.17785 1.71423,-0.0732 0.75504,-0.33891 1.65605,-0.52288 2.32279,-0.95552 0.47698,-0.55636 0.027,-1.1377 -0.16571,-1.71212 -0.97794,-2.5382 -1.95587,-5.0764 -2.93381,-7.61461 2.71745,0 5.4349,0 8.15235,0 0.42069,-0.59498 0.42377,-1.12383 -0.2093,-1.55195 -6.01487,-6.68711 -12.02974,-13.37422 -18.04461,-20.06133 -0.30729,0.11784 -0.61458,0.23568 -0.92188,0.35352 z" />
      <path
         sodipodi:nodetypes="cccccccc"
         id="path983"
         d="m 109.06829,215.96208 v 27.67808 l 6.62174,-5.82971 3.43277,9.58846 3.31019,-1.25291 -3.64121,-9.45384 h 8.92394 z"
         style="opacity:1;fill:#ffffff;fill-opacity:1;stroke:none;stroke-width:1;stroke-linecap:butt;stroke-linejoin:round;stroke-miterlimit:4;stroke-dasharray:none;stroke-opacity:1" />
      <path
         style="opacity:1;fill:url(#linearGradient993);fill-opacity:1;stroke:none;stroke-width:1;stroke-linecap:butt;stroke-linejoin:round;stroke-miterlimit:4;stroke-dasharray:none;stroke-opacity:1"
         d="m 109.06829,215.96208 v 27.67808 l 6.62174,-5.82971 3.43277,9.58846 3.31019,-1.25291 -3.64121,-9.45384 h 8.92394 z"
         id="path985"
         sodipodi:nodetypes="cccccccc" />
      <path
         d="m 108.53934,215.96224 c 0,9.22591 0,18.45182 0,27.67773 0.59169,0.42381 1.12042,0.42821 1.55445,-0.19819 1.78718,-1.57326 3.57437,-3.14652 5.36156,-4.71978 1.05664,2.95182 2.11328,5.90365 3.16992,8.85547 0.55391,0.47306 1.13485,0.17785 1.71424,-0.0732 0.75503,-0.33891 1.65604,-0.52288 2.32279,-0.95552 0.47697,-0.55636 0.027,-1.1377 -0.16572,-1.71212 -0.97794,-2.5382 -1.95587,-5.0764 -2.93381,-7.61461 2.71745,0 5.4349,0 8.15235,0 0.4207,-0.59498 0.42378,-1.12383 -0.2093,-1.55195 -6.01487,-6.68711 -12.02974,-13.37422 -18.04461,-20.06133 -0.30729,0.11784 -0.61458,0.23568 -0.92187,0.35352 z"
         style="opacity:1;fill:none;fill-opacity:1;stroke:#000000;stroke-width:1.5;stroke-linecap:butt;stroke-linejoin:round;stroke-miterlimit:4;stroke-dasharray:none;stroke-opacity:1"
         id="path995" />
    </g>
  </g>
</svg>
