<?xml version="1.0" encoding="UTF-8" standalone="no"?>
<svg
   xmlns:dc="http://purl.org/dc/elements/1.1/"
   xmlns:cc="http://creativecommons.org/ns#"
   xmlns:rdf="http://www.w3.org/1999/02/22-rdf-syntax-ns#"
   xmlns:svg="http://www.w3.org/2000/svg"
   xmlns="http://www.w3.org/2000/svg"
   xmlns:xlink="http://www.w3.org/1999/xlink"
   xmlns:sodipodi="http://sodipodi.sourceforge.net/DTD/sodipodi-0.dtd"
   xmlns:inkscape="http://www.inkscape.org/namespaces/inkscape"
   inkscape:export-ydpi="37.912502"
   inkscape:export-xdpi="37.912502"
   inkscape:export-filename="G:\OneDrive - University of Bristol\Projects\TreeViewer\src\TreeViewer\Assets\PlotActionTemplate.png"
   inkscape:version="1.0 (4035a4fb49, 2020-05-01)"
   sodipodi:docname="PlotActionTemplate.svg"
   id="svg8"
   version="1.1"
   viewBox="0 0 81.249054 85.755356"
   height="85.755356mm"
   width="81.249054mm">
  <defs
     id="defs2">
    <linearGradient
       id="linearGradient925"
       inkscape:collect="always">
      <stop
         id="stop921"
         offset="0"
         style="stop-color:#e7f65f;stop-opacity:1;" />
      <stop
         id="stop923"
         offset="1"
         style="stop-color:#e7f65f;stop-opacity:0;" />
    </linearGradient>
    <linearGradient
       id="linearGradient915"
       inkscape:collect="always">
      <stop
         id="stop911"
         offset="0"
         style="stop-color:#90a300;stop-opacity:1;" />
      <stop
         id="stop913"
         offset="1"
         style="stop-color:#90a300;stop-opacity:0;" />
    </linearGradient>
    <filter
       height="1.0759552"
       y="-0.037977576"
       width="1.045511"
       x="-0.036427855"
       id="filter887"
       style="color-interpolation-filters:sRGB"
       inkscape:collect="always">
      <feGaussianBlur
         id="feGaussianBlur889"
         stdDeviation="0.37030029"
         inkscape:collect="always" />
    </filter>
    <linearGradient
       gradientUnits="userSpaceOnUse"
       y2="225.35353"
       x2="57.875927"
       y1="246.06693"
       x1="67.917717"
       id="linearGradient917"
       xlink:href="#linearGradient915"
       inkscape:collect="always" />
    <linearGradient
       gradientUnits="userSpaceOnUse"
       y2="231.76801"
       x2="68.165802"
       y1="213.05914"
       x1="44.798904"
       id="linearGradient927"
       xlink:href="#linearGradient925"
       inkscape:collect="always" />
    <filter
       height="1.0982881"
       y="-0.04914407"
       width="1.093816"
       x="-0.046907986"
       id="filter933"
       style="color-interpolation-filters:sRGB"
       inkscape:collect="always">
      <feGaussianBlur
         id="feGaussianBlur935"
         stdDeviation="0.58207671"
         inkscape:collect="always" />
    </filter>
  </defs>
  <sodipodi:namedview
     inkscape:window-maximized="1"
     inkscape:window-y="-8"
     inkscape:window-x="-8"
     inkscape:window-height="1377"
     inkscape:window-width="2560"
     showgrid="false"
     inkscape:document-rotation="0"
     inkscape:current-layer="layer1"
     inkscape:document-units="mm"
     inkscape:cy="194.06375"
     inkscape:cx="92.514005"
     inkscape:zoom="1.979899"
     inkscape:pageshadow="2"
     inkscape:pageopacity="0.0"
     borderopacity="1.0"
     bordercolor="#666666"
     pagecolor="#ffffff"
     id="base" />
  <metadata
     id="metadata5">
    <rdf:RDF>
      <cc:Work
         rdf:about="">
        <dc:format>image/svg+xml</dc:format>
        <dc:type
           rdf:resource="http://purl.org/dc/dcmitype/StillImage" />
        <dc:title></dc:title>
      </cc:Work>
    </rdf:RDF>
  </metadata>
  <g
     transform="translate(-24.530551,-166.06757)"
     id="layer1"
     inkscape:groupmode="layer"
     inkscape:label="Livello 1">
    <path
       mask="none"
       sodipodi:nodetypes="ccccccccccccccccccccccccccccccccccccccccccccc"
       d="m 87.999376,216.26724 -4.561229,8.28224 12.003249,-2.52068 m -48.85322,0.72019 11.042989,6.36172 -9.602589,19.68534 m -6.241696,-46.45258 5.761566,2.16058 -1.680456,3.96107 m 3.721006,-11.88321 -2.04055,7.92214 9.842642,0.24006 m 25.927028,-0.24006 -9.12246,-4.4412 m -16.804568,4.68127 16.804568,-4.68127 3.240881,-8.04217 m -10.56287,-0.7202 -11.16303,0.96026 m 19.445269,-10.20279 -10.202781,2.04055 6.361743,3.60101 m -0.600181,-10.32283 -5.761562,6.72182 -9.242488,8.16224 m -13.203567,-4.20114 13.203567,4.20114 m -19.565287,-6.6018 3.72102,11.16304 -12.84348,-1.56043 m 28.687747,-3.00081 -15.844267,4.56124 -11.76319,9.12246 m 15.1241,-29.76808 11.523107,2.64071 m 5.161389,-7.92214 -5.161389,7.92214 12.12328,-5.04136 m -16.804541,-4.68127 4.681261,9.72263 0.96025,13.44367 1.680451,12.48338 0.240077,24.36659 25.806982,-4.56123 10.682881,7.80211"
       style="fill:none;fill-opacity:1;stroke:#000000;stroke-width:2.34324;stroke-linecap:round;stroke-linejoin:round;stroke-miterlimit:4;stroke-dasharray:none;stroke-opacity:0.2;filter:url(#filter887)"
       id="path885" />
    <path
       id="path957-9-5"
       style="fill:none;stroke:#2b65a3;stroke-width:2.34324;stroke-linecap:round;stroke-linejoin:round;stroke-miterlimit:4;stroke-dasharray:none;stroke-opacity:1"
       d="m 87.999376,215.2089 -4.561229,8.28224 12.003249,-2.52068 m -48.85322,0.72019 11.042989,6.36172 -9.602589,19.68534 m -6.241696,-46.45258 5.761566,2.16058 -1.680456,3.96107 m 3.721006,-11.88321 -2.04055,7.92214 9.842642,0.24006 m 25.927028,-0.24006 -9.12246,-4.4412 m -16.804568,4.68127 16.804568,-4.68127 3.240881,-8.04217 m -10.56287,-0.7202 -11.16303,0.96026 m 19.445269,-10.20279 -10.202781,2.04055 6.361743,3.60101 m -0.600181,-10.32283 -5.761562,6.72182 -9.242488,8.16224 m -13.203567,-4.20114 13.203567,4.20114 m -19.565287,-6.6018 3.72102,11.16304 -12.84348,-1.56043 m 28.687747,-3.00081 -15.844267,4.56124 -11.76319,9.12246 m 15.1241,-29.76808 11.523107,2.64071 m 5.161389,-7.92214 -5.161389,7.92214 12.12328,-5.04136 m -16.804541,-4.68127 4.681261,9.72263 0.96025,13.44367 1.680451,12.48338 0.240077,24.36659 25.806982,-4.56123 10.682881,7.80211"
       sodipodi:nodetypes="ccccccccccccccccccccccccccccccccccccccccccccc"
       mask="none" />
    <path
       inkscape:transform-center-x="1.4750459"
       transform="rotate(-41.114564,57.68507,229.49621)"
       inkscape:transform-center-y="-2.078735"
       d="m 57.805607,243.70936 -3.527317,-10.93235 -11.483905,0.27954 9.307281,-6.73296 -3.814578,-10.83546 9.279533,6.77115 9.126366,-6.97622 -3.572214,10.91776 9.454982,6.52392 -11.487282,-0.0236 z"
       inkscape:randomized="0"
       inkscape:rounded="0"
       inkscape:flatsided="false"
       sodipodi:arg2="2.1879738"
       sodipodi:arg1="1.5596553"
       sodipodi:r2="5.793447"
       sodipodi:r1="15.657965"
       sodipodi:cy="228.05237"
       sodipodi:cx="57.631165"
       sodipodi:sides="5"
       id="path907"
       style="opacity:1;fill:#bbcc33;fill-opacity:1;stroke:none;stroke-width:2;stroke-linecap:butt;stroke-linejoin:round;stroke-miterlimit:4;stroke-dasharray:none;stroke-opacity:1"
       sodipodi:type="star" />
    <path
       inkscape:transform-center-x="1.4750459"
       transform="rotate(-41.114564,57.68507,229.49621)"
       sodipodi:type="star"
       style="opacity:1;fill:url(#linearGradient917);fill-opacity:1;stroke:none;stroke-width:2;stroke-linecap:butt;stroke-linejoin:round;stroke-miterlimit:4;stroke-dasharray:none;stroke-opacity:1"
       id="path909"
       sodipodi:sides="5"
       sodipodi:cx="57.631165"
       sodipodi:cy="228.05237"
       sodipodi:r1="15.657965"
       sodipodi:r2="5.793447"
       sodipodi:arg1="1.5596553"
       sodipodi:arg2="2.1879738"
       inkscape:flatsided="false"
       inkscape:rounded="0"
       inkscape:randomized="0"
       d="m 57.805607,243.70936 -3.527317,-10.93235 -11.483905,0.27954 9.307281,-6.73296 -3.814578,-10.83546 9.279533,6.77115 9.126366,-6.97622 -3.572214,10.91776 9.454982,6.52392 -11.487282,-0.0236 z"
       inkscape:transform-center-y="-2.078735" />
    <path
       inkscape:transform-center-x="1.4750459"
       transform="rotate(-41.114564,57.68507,229.49621)"
       inkscape:transform-center-y="-2.078735"
       d="m 57.805607,243.70936 -3.527317,-10.93235 -11.483905,0.27954 9.307281,-6.73296 -3.814578,-10.83546 9.279533,6.77115 9.126366,-6.97622 -3.572214,10.91776 9.454982,6.52392 -11.487282,-0.0236 z"
       inkscape:randomized="0"
       inkscape:rounded="0"
       inkscape:flatsided="false"
       sodipodi:arg2="2.1879738"
       sodipodi:arg1="1.5596553"
       sodipodi:r2="5.793447"
       sodipodi:r1="15.657965"
       sodipodi:cy="228.05237"
       sodipodi:cx="57.631165"
       sodipodi:sides="5"
       id="path919"
       style="opacity:1;fill:url(#linearGradient927);fill-opacity:1;stroke:none;stroke-width:2;stroke-linecap:butt;stroke-linejoin:round;stroke-miterlimit:4;stroke-dasharray:none;stroke-opacity:1"
       sodipodi:type="star" />
    <path
       inkscape:transform-center-x="1.4750459"
       transform="rotate(-41.114564,57.68507,229.49621)"
       inkscape:transform-center-y="-2.078735"
       d="m 58.334774,244.76768 -3.527317,-10.93235 -11.483905,0.27954 9.307281,-6.73296 -3.814578,-10.83546 9.279533,6.77115 9.126367,-6.97622 -3.572215,10.91776 9.454983,6.52392 -11.487283,-0.0236 z"
       inkscape:randomized="0"
       inkscape:rounded="0"
       inkscape:flatsided="false"
       sodipodi:arg2="2.1879738"
       sodipodi:arg1="1.5596553"
       sodipodi:r2="5.793447"
       sodipodi:r1="15.657965"
       sodipodi:cy="229.11069"
       sodipodi:cx="58.160332"
       sodipodi:sides="5"
       id="path931"
       style="opacity:0.2;fill:#000000;fill-opacity:1;stroke:#000000;stroke-width:2;stroke-linecap:butt;stroke-linejoin:round;stroke-miterlimit:4;stroke-dasharray:none;stroke-opacity:1;filter:url(#filter933)"
       sodipodi:type="star" />
    <path
       inkscape:transform-center-x="1.4750459"
       transform="rotate(-41.114564,57.68507,229.49621)"
       sodipodi:type="star"
       style="opacity:1;fill:none;fill-opacity:1;stroke:#ffffff;stroke-width:2;stroke-linecap:butt;stroke-linejoin:round;stroke-miterlimit:4;stroke-dasharray:none;stroke-opacity:1"
       id="path929"
       sodipodi:sides="5"
       sodipodi:cx="57.631165"
       sodipodi:cy="228.05237"
       sodipodi:r1="15.657965"
       sodipodi:r2="5.793447"
       sodipodi:arg1="1.5596553"
       sodipodi:arg2="2.1879738"
       inkscape:flatsided="false"
       inkscape:rounded="0"
       inkscape:randomized="0"
       d="m 57.805607,243.70936 -3.527317,-10.93235 -11.483905,0.27954 9.307281,-6.73296 -3.814578,-10.83546 9.279533,6.77115 9.126366,-6.97622 -3.572214,10.91776 9.454982,6.52392 -11.487282,-0.0236 z"
       inkscape:transform-center-y="-2.078735" />
  </g>
</svg>
