<?xml version="1.0" encoding="UTF-8" standalone="no"?>
<svg
   xmlns:dc="http://purl.org/dc/elements/1.1/"
   xmlns:cc="http://creativecommons.org/ns#"
   xmlns:rdf="http://www.w3.org/1999/02/22-rdf-syntax-ns#"
   xmlns:svg="http://www.w3.org/2000/svg"
   xmlns="http://www.w3.org/2000/svg"
   xmlns:xlink="http://www.w3.org/1999/xlink"
   xmlns:sodipodi="http://sodipodi.sourceforge.net/DTD/sodipodi-0.dtd"
   xmlns:inkscape="http://www.inkscape.org/namespaces/inkscape"
   inkscape:export-ydpi="13.518528"
   inkscape:export-xdpi="13.518528"
   inkscape:export-filename="O:\Projects\TreeViewer\BranchScores.png"
   sodipodi:docname="BranchScores.svg"
   inkscape:version="1.0 (4035a4fb49, 2020-05-01)"
   id="svg930"
   version="1.1"
   viewBox="0 0 68.701676 78.913916"
   height="78.913918mm"
   width="68.701675mm">
  <defs
     id="defs924">
    <linearGradient
       id="linearGradient1588"
       inkscape:collect="always">
      <stop
         id="stop1584"
         offset="0"
         style="stop-color:#030303;stop-opacity:0.2" />
      <stop
         style="stop-color:#030303;stop-opacity:0.60000002"
         offset="0.41888624"
         id="stop1592" />
      <stop
         id="stop1594"
         offset="0.57194614"
         style="stop-color:#030303;stop-opacity:0.1" />
      <stop
         id="stop1586"
         offset="1"
         style="stop-color:#030303;stop-opacity:0;" />
    </linearGradient>
    <linearGradient
       id="linearGradient1527-8"
       inkscape:collect="always">
      <stop
         id="stop1523"
         offset="0"
         style="stop-color:#955400;stop-opacity:1" />
      <stop
         id="stop1525"
         offset="1"
         style="stop-color:#ae7700;stop-opacity:0" />
    </linearGradient>
    <linearGradient
       y2="135.52879"
       x2="111.80212"
       y1="134.80119"
       x1="112.69025"
       gradientUnits="userSpaceOnUse"
       id="linearGradient1533"
       xlink:href="#linearGradient1527-8"
       inkscape:collect="always" />
    <linearGradient
       gradientUnits="userSpaceOnUse"
       y2="0.071400329"
       x2="20.097427"
       y1="20.804068"
       x1="0.024381559"
       id="linearGradient1590"
       xlink:href="#linearGradient1588"
       inkscape:collect="always" />
    <clipPath
       clipPathUnits="userSpaceOnUse"
       id="clipPath2011">
      <path
         id="path2013"
         style="opacity:1;fill:#ffffff;fill-opacity:1;stroke:none;stroke-width:1.2;stroke-miterlimit:4;stroke-dasharray:none;stroke-opacity:0.3"
         d="m -21.122381,115.15856 v 72.54855 h 66.493099 v -72.54855 z m 25.1669394,5.75521 c 4.1618694,-0.0419 8.6528226,2.29346 12.2137246,4.49223 5.29476,3.26938 9.413079,8.59956 12.110371,14.2074 3.461472,7.19661 6.055156,15.6815 4.541843,23.5226 -1.277284,6.61813 -4.610891,14.70209 -10.94662,17.00206 -7.72052,2.80267 -17.6663478,-1.57753 -23.522593,-7.33651 -3.2645376,-3.2103 -5.0620797,-8.52643 -4.3087819,-13.04261 0.8340805,-5.00048 8.5495421,-7.08315 9.1994382,-12.11089 0.845566,-6.54147 -8.1205229,-11.70981 -7.5690466,-18.2826 0.2566326,-3.05872 2.0455282,-6.65021 4.89065626,-7.80211 1.08616754,-0.43976 2.22568554,-0.63783 3.39100844,-0.64957 z" />
    </clipPath>
    <filter
       height="1.1321715"
       y="-0.071569085"
       width="1.1259263"
       x="-0.062963128"
       id="filter852"
       style="color-interpolation-filters:sRGB"
       inkscape:collect="always">
      <feGaussianBlur
         id="feGaussianBlur854"
         stdDeviation="0.32679824"
         inkscape:collect="always" />
    </filter>
  </defs>
  <sodipodi:namedview
     inkscape:window-maximized="1"
     inkscape:window-y="-8"
     inkscape:window-x="-8"
     inkscape:window-height="1377"
     inkscape:window-width="2560"
     inkscape:snap-global="false"
     showgrid="false"
     inkscape:document-rotation="0"
     inkscape:current-layer="layer1"
     inkscape:document-units="mm"
     inkscape:cy="24.598258"
     inkscape:cx="290.83689"
     inkscape:zoom="1.3845464"
     inkscape:pageshadow="2"
     inkscape:pageopacity="0.0"
     borderopacity="1.0"
     bordercolor="#666666"
     pagecolor="#ffffff"
     id="base" />
  <metadata
     id="metadata927">
    <rdf:RDF>
      <cc:Work
         rdf:about="">
        <dc:format>image/svg+xml</dc:format>
        <dc:type
           rdf:resource="http://purl.org/dc/dcmitype/StillImage" />
        <dc:title></dc:title>
      </cc:Work>
    </rdf:RDF>
  </metadata>
  <g
     transform="translate(43.734086,-99.071676)"
     id="layer1"
     inkscape:groupmode="layer"
     inkscape:label="Livello 1">
    <path
       id="path850"
       style="fill:none;stroke:#000000;stroke-width:6;stroke-linecap:round;stroke-linejoin:round;stroke-miterlimit:4;stroke-dasharray:none;stroke-opacity:0.2;filter:url(#filter852)"
       d="m 15.003982,151.23294 -4.561223,8.28224 m -36.849904,-1.80049 11.04296,6.36172 -9.60257,9.68511 m 35.289484,-34.29177 -9.122446,-4.4412 m -16.804536,4.68127 16.804536,-4.68127 3.2408761,-8.04217 m -12.4833909,-7.92218 6.3617308,3.60101 m -0.6001714,-10.32283 -5.7615508,6.72182 -9.2424888,8.16224 m -21.565485,-3.60156 5.72124,8.1628 m 15.844245,-4.56124 -15.844245,4.56124 -6.76325,9.12246 m 26.80863,-35.04951 -5.161388,7.92214 m -4.68125,-9.72263 4.68125,9.72263 0.960361,13.44367 1.680523,12.48338 0.239982,24.36659 25.806944,-4.56123 10.682864,7.80211"
       sodipodi:nodetypes="ccccccccccccccccccccccccccccc"
       mask="none" />
    <path
       mask="none"
       sodipodi:nodetypes="ccccccccccccccccccccccccccccc"
       d="m 14.474815,149.64543 -4.5612226,8.28224 m -36.8499044,-1.80049 11.04296,6.36172 -9.60257,9.68511 m 35.2894844,-34.29177 -9.1224461,-4.4412 m -16.8045363,4.68127 16.8045363,-4.68127 3.2408761,-8.04217 m -12.4833909,-7.92218 6.3617308,3.60101 m -0.6001714,-10.32283 -5.7615508,6.72182 -9.2424891,8.16224 m -21.565485,-3.60156 5.72124,8.1628 m 15.844245,-4.56124 -15.844245,4.56124 -6.76325,9.12246 m 26.80863,-35.04951 -5.161388,7.92214 m -4.68125,-9.72263 4.68125,9.72263 0.960361,13.44367 1.680523,12.48338 0.239982,24.36659 25.8069444,-4.56123 10.6828636,7.80211"
       style="fill:none;stroke:#440154;stroke-width:6;stroke-linecap:round;stroke-linejoin:round;stroke-miterlimit:4;stroke-dasharray:none;stroke-opacity:1"
       id="path957-9-5" />
    <path
       id="path846"
       style="fill:none;stroke:#21908d;stroke-width:3.5;stroke-linecap:round;stroke-linejoin:round;stroke-miterlimit:4;stroke-dasharray:none;stroke-opacity:1"
       d="m 14.474815,149.64543 -4.5612226,8.28224 m -36.8499044,-1.80049 11.04296,6.36172 -9.60257,9.68511 m 35.2894844,-34.29177 -9.1224461,-4.4412 m -16.8045363,4.68127 16.8045363,-4.68127 3.2408761,-8.04217 m -12.4833909,-7.92218 6.3617308,3.60101 m -0.6001714,-10.32283 -5.7615508,6.72182 -9.2424891,8.16224 m -21.565485,-3.60156 5.72124,8.1628 m 15.844245,-4.56124 -15.844245,4.56124 -6.76325,9.12246 m 26.80863,-35.04951 -5.161388,7.92214 m -4.68125,-9.72263 4.68125,9.72263 0.960361,13.44367 1.680523,12.48338 0.239982,24.36659 25.8069444,-4.56123 10.6828636,7.80211"
       sodipodi:nodetypes="ccccccccccccccccccccccccccccc"
       mask="none" />
    <path
       mask="none"
       sodipodi:nodetypes="ccccccccccccccccccccccccccccc"
       d="m 14.474815,149.64543 -4.5612226,8.28224 m -36.8499044,-1.80049 11.04296,6.36172 -9.60257,9.68511 m 35.2894844,-34.29177 -9.1224461,-4.4412 m -16.8045363,4.68127 16.8045363,-4.68127 3.2408761,-8.04217 m -12.4833909,-7.92218 6.3617308,3.60101 m -0.6001714,-10.32283 -5.7615508,6.72182 -9.2424891,8.16224 m -21.565485,-3.60156 5.72124,8.1628 m 15.844245,-4.56124 -15.844245,4.56124 -6.76325,9.12246 m 26.80863,-35.04951 -5.161388,7.92214 m -4.68125,-9.72263 4.68125,9.72263 0.960361,13.44367 1.680523,12.48338 0.239982,24.36659 25.8069444,-4.56123 10.6828636,7.80211"
       style="fill:none;stroke:#fde725;stroke-width:1;stroke-linecap:round;stroke-linejoin:round;stroke-miterlimit:4;stroke-dasharray:none;stroke-opacity:1"
       id="path848" />
  </g>
</svg>
