<?xml version="1.0" encoding="UTF-8" standalone="no"?>
<svg
   xmlns:dc="http://purl.org/dc/elements/1.1/"
   xmlns:cc="http://creativecommons.org/ns#"
   xmlns:rdf="http://www.w3.org/1999/02/22-rdf-syntax-ns#"
   xmlns:svg="http://www.w3.org/2000/svg"
   xmlns="http://www.w3.org/2000/svg"
   xmlns:sodipodi="http://sodipodi.sourceforge.net/DTD/sodipodi-0.dtd"
   xmlns:inkscape="http://www.inkscape.org/namespaces/inkscape"
   inkscape:export-ydpi="93.949814"
   inkscape:export-xdpi="93.949814"
   inkscape:export-filename="C:\Users\Giorgio\OneDrive - University of Bristol\Projects\TreeViewer\CircularStyle.png"
   inkscape:version="1.0 (4035a4fb49, 2020-05-01)"
   sodipodi:docname="CircularStyle.svg"
   id="svg44"
   viewBox="0 0 11.31314 11.354488"
   version="1.1"
   height="42.916531"
   width="42.757782">
  <metadata
     id="metadata50">
    <rdf:RDF>
      <cc:Work
         rdf:about="">
        <dc:format>image/svg+xml</dc:format>
        <dc:type
           rdf:resource="http://purl.org/dc/dcmitype/StillImage" />
      </cc:Work>
    </rdf:RDF>
  </metadata>
  <defs
     id="defs48">
    <filter
       height="1.0739831"
       y="-0.043438435"
       width="1.0699898"
       x="-0.038946509"
       id="filter984"
       style="color-interpolation-filters:sRGB"
       inkscape:collect="always">
      <feGaussianBlur
         id="feGaussianBlur986"
         stdDeviation="0.052865112"
         inkscape:collect="always" />
    </filter>
  </defs>
  <sodipodi:namedview
     inkscape:current-layer="svg44"
     inkscape:window-maximized="1"
     inkscape:window-y="-8"
     inkscape:window-x="-8"
     inkscape:cy="22.774243"
     inkscape:cx="20.112558"
     inkscape:zoom="15.76"
     showgrid="false"
     id="namedview46"
     inkscape:window-height="1017"
     inkscape:window-width="1920"
     inkscape:pageshadow="2"
     inkscape:pageopacity="0"
     guidetolerance="10"
     gridtolerance="10"
     objecttolerance="10"
     borderopacity="1"
     bordercolor="#666666"
     pagecolor="#ffffff" />
  <path
     d="M 4.1113195,3.5711012 A 2.7284263,2.7284263 0 0 1 7.4918532,3.9522327 M 2.0974776,3.7036535 A 4.092575,4.092575 0 0 1 5.1049388,1.8145414 M 4.2106002,9.7442959 A 4.0925751,4.0925751 0 0 1 1.6995038,7.2327305 M 5.5624757,5.8815048 4.198327,5.881357 M 5.7158682,4.5258635 5.8688222,3.1702222 m -0.154243,4.0669239 0.152657,1.3556413 M 4.1113195,3.5711012 3.3856898,2.4159123 M 3.6331005,7.8106222 2.6683871,8.775168 M 7.8723662,7.3331766 9.0274392,8.0590125 M 5.1048807,1.8145809 4.9523404,0.45893977 M 2.0975148,3.7037393 0.94250635,2.9778003 M 1.6994716,7.2327635 0.41178645,7.6832045 M 4.2105725,9.7442509 3.7599123,11.031865 M 7.7395992,9.3468524 8.4653322,10.501983 M 9.6292732,6.3398732 10.984915,6.4926455 M 7.4921112,3.9522585 9.4213572,2.0230122 m 0.207916,4.316861 A 4.092575,4.092575 0 0 1 7.7395992,9.3469813 M 7.8723662,7.3331766 A 2.7284263,2.7284263 0 0 1 5.8675842,8.5927487 2.7284263,2.7284263 0 0 1 3.6328427,7.8105964 M 5.7145792,7.2371461 A 1.3641487,1.3641487 0 0 1 4.4067583,6.6072376 1.3641487,1.3641487 0 0 1 4.4068533,5.1556947 1.3641487,1.3641487 0 0 1 5.7146742,4.5259666"
     style="fill:none;stroke:#000000;stroke-width:0.361005;stroke-linecap:round;stroke-miterlimit:4;stroke-dasharray:none;stroke-opacity:0.2;filter:url(#filter984)"
     id="path959" />
  <g
     style="stroke:#2b65a3;stroke-width:0.280066;stroke-miterlimit:4;stroke-dasharray:none;stroke-opacity:1"
     id="g42"
     stroke-width=".41854"
     stroke-linecap="round"
     stroke="#000"
     fill="none"
     transform="matrix(1.289,0,0,1.289,-7.4191678,-1.5129638)">
    <path
       style="stroke:#2b65a3;stroke-width:0.280066;stroke-miterlimit:4;stroke-dasharray:none;stroke-opacity:1"
       id="path2"
       d="M 10.097,6.6041 A 1.0583,1.0583 0 0 1 9.0824,6.11542 1.0583,1.0583 0 0 1 9.0824737,4.98932 1.0583,1.0583 0 0 1 10.097074,4.50078" />
    <path
       style="stroke:#2b65a3;stroke-width:0.280066;stroke-miterlimit:4;stroke-dasharray:none;stroke-opacity:1"
       id="path4"
       d="M 11.771,6.6786 A 2.1167,2.1167 0 0 1 10.2157,7.65577 2.1167,2.1167 0 0 1 8.482,7.04898" />
    <path
       style="stroke:#2b65a3;stroke-width:0.280066;stroke-miterlimit:4;stroke-dasharray:none;stroke-opacity:1"
       id="path6"
       d="M 13.134,5.908 A 3.175,3.175 0 0 1 11.668,8.2409" />
    <g
       style="stroke:#2b65a3;stroke-width:0.280066;stroke-miterlimit:4;stroke-dasharray:none;stroke-opacity:1"
       id="g34">
      <path
         style="stroke:#2b65a3;stroke-width:0.280066;stroke-miterlimit:4;stroke-dasharray:none;stroke-opacity:1"
         id="path8"
         d="M 11.476,4.0557 12.9727,2.559" />
      <path
         style="stroke:#2b65a3;stroke-width:0.280066;stroke-miterlimit:4;stroke-dasharray:none;stroke-opacity:1"
         id="path10"
         d="m 13.134,5.908 1.0517,0.11852" />
      <path
         style="stroke:#2b65a3;stroke-width:0.280066;stroke-miterlimit:4;stroke-dasharray:none;stroke-opacity:1"
         id="path12"
         d="m 11.668,8.2408 0.56302,0.89614" />
      <path
         style="stroke:#2b65a3;stroke-width:0.280066;stroke-miterlimit:4;stroke-dasharray:none;stroke-opacity:1"
         id="path14"
         d="M 8.9302,8.5491 8.58058,9.54802" />
      <path
         style="stroke:#2b65a3;stroke-width:0.280066;stroke-miterlimit:4;stroke-dasharray:none;stroke-opacity:1"
         id="path16"
         d="M 6.9821,6.6007 5.98312,6.95015" />
      <path
         style="stroke:#2b65a3;stroke-width:0.280066;stroke-miterlimit:4;stroke-dasharray:none;stroke-opacity:1"
         id="path18"
         d="M 7.2909,3.8629 6.39485,3.29972" />
      <path
         style="stroke:#2b65a3;stroke-width:0.280066;stroke-miterlimit:4;stroke-dasharray:none;stroke-opacity:1"
         id="path20"
         d="M 9.624,2.3973 9.50566,1.3456" />
      <path
         style="stroke:#2b65a3;stroke-width:0.280066;stroke-miterlimit:4;stroke-dasharray:none;stroke-opacity:1"
         id="path22"
         d="m 11.771,6.6786 0.8961,0.5631" />
      <path
         style="stroke:#2b65a3;stroke-width:0.280066;stroke-miterlimit:4;stroke-dasharray:none;stroke-opacity:1"
         id="path24"
         d="M 8.4822,7.049 7.73378,7.79729" />
      <path
         style="stroke:#2b65a3;stroke-width:0.280066;stroke-miterlimit:4;stroke-dasharray:none;stroke-opacity:1"
         id="path26"
         d="M 8.8532,3.76 8.29026,2.86381" />
      <path
         style="stroke:#2b65a3;stroke-width:0.280066;stroke-miterlimit:4;stroke-dasharray:none;stroke-opacity:1"
         id="path28"
         d="m 10.097,6.6041 0.11843,1.0517" />
      <path
         style="stroke:#2b65a3;stroke-width:0.280066;stroke-miterlimit:4;stroke-dasharray:none;stroke-opacity:1"
         id="path30"
         d="M 10.098,4.5007 10.21666,3.449" />
      <path
         style="stroke:#2b65a3;stroke-width:0.280066;stroke-miterlimit:4;stroke-dasharray:none;stroke-opacity:1"
         id="path32"
         d="M 9.979,5.5524 8.9207,5.5522853" />
    </g>
    <path
       style="stroke:#2b65a3;stroke-width:0.280066;stroke-miterlimit:4;stroke-dasharray:none;stroke-opacity:1"
       id="path36"
       d="m 6.3471,-10.609 a 3.175,3.175 0 0 1 -1.466,2.3329"
       transform="rotate(102.86)" />
    <path
       style="stroke:#2b65a3;stroke-width:0.280066;stroke-miterlimit:4;stroke-dasharray:none;stroke-opacity:1"
       id="path38"
       d="m -8.2449,-0.31608 a 3.175,3.175 0 0 1 -1.466,2.3329"
       transform="rotate(-154.28)" />
    <path
       style="stroke:#2b65a3;stroke-width:0.280066;stroke-miterlimit:4;stroke-dasharray:none;stroke-opacity:1"
       id="path40"
       d="m 8.8532,3.76 a 2.1167,2.1167 0 0 1 2.6226,0.29568" />
  </g>
  <g
     transform="matrix(1.289,0,0,1.289,-7.4191678,-1.5129638)"
     style="fill:none;stroke:#2b65a3;stroke-width:0.280066;stroke-linecap:round;stroke-miterlimit:4;stroke-dasharray:none;stroke-opacity:1"
     id="g953" />
</svg>
