<?xml version="1.0" encoding="UTF-8" standalone="no"?>
<svg
   xmlns:dc="http://purl.org/dc/elements/1.1/"
   xmlns:cc="http://creativecommons.org/ns#"
   xmlns:rdf="http://www.w3.org/1999/02/22-rdf-syntax-ns#"
   xmlns:svg="http://www.w3.org/2000/svg"
   xmlns="http://www.w3.org/2000/svg"
   xmlns:xlink="http://www.w3.org/1999/xlink"
   xmlns:sodipodi="http://sodipodi.sourceforge.net/DTD/sodipodi-0.dtd"
   xmlns:inkscape="http://www.inkscape.org/namespaces/inkscape"
   width="83.278961mm"
   height="83.559814mm"
   viewBox="0 0 83.278961 83.559814"
   version="1.1"
   id="svg930"
   inkscape:version="1.0 (4035a4fb49, 2020-05-01)"
   sodipodi:docname="Lasso.svg"
   inkscape:export-filename="O:\Projects\TreeViewer\Lasso.png"
   inkscape:export-xdpi="12.766903"
   inkscape:export-ydpi="12.766903">
  <defs
     id="defs924">
    <linearGradient
       id="linearGradient1716"
       inkscape:collect="always">
      <stop
         id="stop1712"
         offset="0"
         style="stop-color:#ffffff;stop-opacity:0.40000001" />
      <stop
         id="stop1714"
         offset="1"
         style="stop-color:#ffffff;stop-opacity:0;" />
    </linearGradient>
    <linearGradient
       id="linearGradient1706"
       inkscape:collect="always">
      <stop
         id="stop1702"
         offset="0"
         style="stop-color:#2b65a3;stop-opacity:0.2" />
      <stop
         id="stop1704"
         offset="1"
         style="stop-color:#2b65a3;stop-opacity:0" />
    </linearGradient>
    <linearGradient
       inkscape:collect="always"
       id="linearGradient1588">
      <stop
         style="stop-color:#030303;stop-opacity:0.2"
         offset="0"
         id="stop1584" />
      <stop
         id="stop1592"
         offset="0.41888624"
         style="stop-color:#030303;stop-opacity:0.60000002" />
      <stop
         style="stop-color:#030303;stop-opacity:0.1"
         offset="0.57194614"
         id="stop1594" />
      <stop
         style="stop-color:#030303;stop-opacity:0;"
         offset="1"
         id="stop1586" />
    </linearGradient>
    <linearGradient
       inkscape:collect="always"
       id="linearGradient1527-8">
      <stop
         style="stop-color:#955400;stop-opacity:1"
         offset="0"
         id="stop1523" />
      <stop
         style="stop-color:#ae7700;stop-opacity:0"
         offset="1"
         id="stop1525" />
    </linearGradient>
    <linearGradient
       inkscape:collect="always"
       xlink:href="#linearGradient1527-8"
       id="linearGradient1533"
       gradientUnits="userSpaceOnUse"
       x1="112.69025"
       y1="134.80119"
       x2="111.80212"
       y2="135.52879" />
    <linearGradient
       inkscape:collect="always"
       xlink:href="#linearGradient1588"
       id="linearGradient1590"
       x1="0.024381559"
       y1="20.804068"
       x2="20.097427"
       y2="0.071400329"
       gradientUnits="userSpaceOnUse" />
    <filter
       height="1.0223012"
       y="-0.011150602"
       width="1.0259789"
       x="-0.012989474"
       id="filter1247-4"
       style="color-interpolation-filters:sRGB"
       inkscape:collect="always">
      <feGaussianBlur
         id="feGaussianBlur1249-7"
         stdDeviation="0.38143385"
         inkscape:collect="always" />
    </filter>
    <linearGradient
       gradientUnits="userSpaceOnUse"
       y2="131.39658"
       x2="3.4237857"
       y1="186.59406"
       x1="32.390575"
       id="linearGradient1708"
       xlink:href="#linearGradient1706"
       inkscape:collect="always" />
    <linearGradient
       gradientUnits="userSpaceOnUse"
       y2="151.54248"
       x2="21.124243"
       y1="125.69051"
       x1="-7.4354525"
       id="linearGradient1718"
       xlink:href="#linearGradient1716"
       inkscape:collect="always" />
    <filter
       height="1.0574116"
       y="-0.028705761"
       width="1.087589"
       x="-0.043794505"
       id="filter1971"
       style="color-interpolation-filters:sRGB"
       inkscape:collect="always">
      <feGaussianBlur
         id="feGaussianBlur1973"
         stdDeviation="0.71876969"
         inkscape:collect="always" />
    </filter>
    <clipPath
       id="clipPath2011"
       clipPathUnits="userSpaceOnUse">
      <path
         d="m -21.122381,115.15856 v 72.54855 h 66.493099 v -72.54855 z m 25.1669394,5.75521 c 4.1618694,-0.0419 8.6528226,2.29346 12.2137246,4.49223 5.29476,3.26938 9.413079,8.59956 12.110371,14.2074 3.461472,7.19661 6.055156,15.6815 4.541843,23.5226 -1.277284,6.61813 -4.610891,14.70209 -10.94662,17.00206 -7.72052,2.80267 -17.6663478,-1.57753 -23.522593,-7.33651 -3.2645376,-3.2103 -5.0620797,-8.52643 -4.3087819,-13.04261 0.8340805,-5.00048 8.5495421,-7.08315 9.1994382,-12.11089 0.845566,-6.54147 -8.1205229,-11.70981 -7.5690466,-18.2826 0.2566326,-3.05872 2.0455282,-6.65021 4.89065626,-7.80211 1.08616754,-0.43976 2.22568554,-0.63783 3.39100844,-0.64957 z"
         style="opacity:1;fill:#ffffff;fill-opacity:1;stroke:none;stroke-width:1.2;stroke-miterlimit:4;stroke-dasharray:none;stroke-opacity:0.3"
         id="path2013" />
    </clipPath>
  </defs>
  <sodipodi:namedview
     id="base"
     pagecolor="#ffffff"
     bordercolor="#666666"
     borderopacity="1.0"
     inkscape:pageopacity="0.0"
     inkscape:pageshadow="2"
     inkscape:zoom="1.6065957"
     inkscape:cx="119.66837"
     inkscape:cy="144.94515"
     inkscape:document-units="mm"
     inkscape:current-layer="layer1"
     inkscape:document-rotation="0"
     showgrid="false"
     inkscape:snap-global="false"
     inkscape:window-width="1920"
     inkscape:window-height="1017"
     inkscape:window-x="-8"
     inkscape:window-y="-8"
     inkscape:window-maximized="1" />
  <metadata
     id="metadata927">
    <rdf:RDF>
      <cc:Work
         rdf:about="">
        <dc:format>image/svg+xml</dc:format>
        <dc:type
           rdf:resource="http://purl.org/dc/dcmitype/StillImage" />
        <dc:title></dc:title>
      </cc:Work>
    </rdf:RDF>
  </metadata>
  <g
     inkscape:label="Livello 1"
     inkscape:groupmode="layer"
     id="layer1"
     transform="translate(47.673215,-101.30101)">
    <path
       sodipodi:nodetypes="ccccccccccccccccccccccccccccccccccccccccccccc"
       d="m 74.506734,68.688227 -4.698356,8.531259 12.36414,-2.596468 m -50.322073,0.741848 11.375023,6.552996 -9.891312,20.277198 m -6.429367,-47.849241 5.934797,2.225546 -1.730985,4.080167 m 3.832891,-12.240501 -2.101906,8.160334 10.138583,0.247271 m 26.706562,-0.247271 -9.396742,-4.574734 m -17.30982,4.822016 17.30982,-4.822016 3.33832,-8.283976 m -10.880453,-0.741849 -11.49867,0.989131 m 20.029919,-10.509523 -10.509531,2.101905 6.553016,3.709244 m -0.618221,-10.633165 -5.934795,6.923921 -9.520388,8.407618 M 27.646631,39.632486 41.247186,43.959937 M 21.09364,37.159659 24.926532,48.658313 11.6969,47.050975 m 29.550286,-3.091038 -16.320654,4.698376 -12.116867,9.39675 M 28.3885,27.391982 40.258068,30.112096 m 5.316578,-8.160336 -5.316578,8.160336 12.487788,-5.19294 m -17.309793,-4.822018 4.822005,10.014958 0.989118,13.847841 1.730983,12.85871 0.247299,25.099215 26.58291,-4.698376 11.004077,8.036695"
       style="fill:none;stroke:#000000;stroke-width:2.41369;stroke-linecap:round;stroke-linejoin:round;stroke-miterlimit:4;stroke-dasharray:none;stroke-opacity:0.2;filter:url(#filter1247-4)"
       id="path962-5-0"
       mask="none"
       transform="matrix(0.97081097,0,0,0.97081097,-57.856605,84.760021)" />
    <path
       id="path957-9-5"
       style="fill:none;stroke:#2b65a3;stroke-width:2.34324;stroke-linecap:round;stroke-linejoin:round;stroke-miterlimit:4;stroke-dasharray:none;stroke-opacity:1"
       d="m 14.474891,149.64543 -4.5612302,8.28224 12.0032502,-2.52068 m -48.85322,0.72019 11.04299,6.36172 -9.60259,19.68533 m -6.241696,-46.45257 5.761566,2.16058 -1.680456,3.96107 m 3.721006,-11.88321 -2.04055,7.92214 9.84264,0.24006 m 25.9270298,-0.24006 -9.12246003,-4.4412 m -16.80456977,4.68127 16.80456977,-4.68127 3.24088003,-8.04217 m -10.56287,-0.7202 -11.1630298,0.96026 m 19.4452698,-10.20279 -10.20278,2.04055 6.36174,3.60101 m -0.60018,-10.32283 -5.76156,6.72182 -9.2424898,8.16224 m -13.203566,-4.20114 13.203566,4.20114 m -19.565286,-6.6018 3.72102,11.16304 -12.84348,-1.56043 m 28.687746,-3.00081 -15.844266,4.56124 -11.76319,9.12246 m 15.1241,-29.76808 11.523106,2.64071 m 5.16139,-7.92214 -5.16139,7.92214 12.1232798,-5.04136 m -16.8045398,-4.68127 4.68126,9.72263 0.96025,13.44367 1.68045,12.48338 0.24008,24.36659 25.8069798,-4.56123 10.6828802,7.80211"
       sodipodi:nodetypes="ccccccccccccccccccccccccccccccccccccccccccccc"
       mask="none" />
    <path
       clip-path="url(#clipPath2011)"
       style="opacity:1;fill:none;stroke:#000000;stroke-width:1.2;stroke-linecap:butt;stroke-linejoin:miter;stroke-miterlimit:4;stroke-dasharray:none;stroke-opacity:0.3;filter:url(#filter1971)"
       d="m -5.3383647,160.81744 c -0.7532988,4.51618 1.0441262,9.83213 4.3086634,13.04244 5.856247,5.75897 15.8024553,10.13904 23.5229763,7.33637 6.335727,-2.29997 9.669048,-10.38361 10.946334,-17.00175 1.513313,-7.8411 -1.080093,-16.32637 -4.541562,-23.52298 -2.697295,-5.60784 -6.816081,-10.93757 -12.110839,-14.20695 -4.557954,-2.81442 -10.639014,-5.85316 -15.6043518,-3.84285 -2.8451287,1.1519 -4.6342802,4.74344 -4.890915,7.80216 -0.5514748,6.57279 8.4148401,11.74125 7.5692747,18.28272 -0.6498975,5.02774 -8.3654995,7.11036 -9.1995806,12.11084 z"
       id="path1725"
       sodipodi:nodetypes="aaaaaaaaaa" />
    <g
       style="opacity:0.4"
       id="g1723">
      <path
         sodipodi:nodetypes="aaaaaaaaaa"
         id="path1698"
         d="m -5.8675314,159.7591 c -0.7532988,4.51618 1.0441262,9.83213 4.3086634,13.04244 5.856247,5.75897 15.802455,10.13904 23.522976,7.33637 6.335727,-2.29997 9.669048,-10.38361 10.946334,-17.00175 1.513313,-7.8411 -1.080093,-16.32637 -4.541562,-23.52298 -2.697295,-5.60784 -6.816081,-10.93757 -12.110839,-14.20695 -4.557954,-2.81442 -10.6390137,-5.85316 -15.60435142,-3.84285 -2.84512878,1.1519 -4.63428028,4.74344 -4.89091508,7.80216 -0.5514748,6.57279 8.4148401,11.74125 7.5692747,18.28272 -0.6498975,5.02774 -8.3654995,7.11036 -9.1995806,12.11084 z"
         style="fill:#d0e5fb;fill-opacity:1;stroke:none;stroke-width:1.2;stroke-linecap:butt;stroke-linejoin:miter;stroke-miterlimit:4;stroke-dasharray:none;stroke-opacity:1" />
      <path
         style="fill:url(#linearGradient1708);fill-opacity:1;stroke:none;stroke-width:1.2;stroke-linecap:butt;stroke-linejoin:miter;stroke-miterlimit:4;stroke-dasharray:none;stroke-opacity:1"
         d="m -5.8675314,159.7591 c -0.7532988,4.51618 1.0441262,9.83213 4.3086634,13.04244 5.856247,5.75897 15.802455,10.13904 23.522976,7.33637 6.335727,-2.29997 9.669048,-10.38361 10.946334,-17.00175 1.513313,-7.8411 -1.080093,-16.32637 -4.541562,-23.52298 -2.697295,-5.60784 -6.816081,-10.93757 -12.110839,-14.20695 -4.557954,-2.81442 -10.6390137,-5.85316 -15.60435142,-3.84285 -2.84512878,1.1519 -4.63428028,4.74344 -4.89091508,7.80216 -0.5514748,6.57279 8.4148401,11.74125 7.5692747,18.28272 -0.6498975,5.02774 -8.3654995,7.11036 -9.1995806,12.11084 z"
         id="path1700"
         sodipodi:nodetypes="aaaaaaaaaa" />
      <path
         sodipodi:nodetypes="aaaaaaaaaa"
         id="path1710"
         d="m -5.8675314,159.7591 c -0.7532988,4.51618 1.0441262,9.83213 4.3086634,13.04244 5.856247,5.75897 15.802455,10.13904 23.522976,7.33637 6.335727,-2.29997 9.669048,-10.38361 10.946334,-17.00175 1.513313,-7.8411 -1.080093,-16.32637 -4.541562,-23.52298 -2.697295,-5.60784 -6.816081,-10.93757 -12.110839,-14.20695 -4.557954,-2.81442 -10.6390137,-5.85316 -15.60435142,-3.84285 -2.84512878,1.1519 -4.63428028,4.74344 -4.89091508,7.80216 -0.5514748,6.57279 8.4148401,11.74125 7.5692747,18.28272 -0.6498975,5.02774 -8.3654995,7.11036 -9.1995806,12.11084 z"
         style="fill:url(#linearGradient1718);fill-opacity:1;stroke:none;stroke-width:1.2;stroke-linecap:butt;stroke-linejoin:miter;stroke-miterlimit:4;stroke-dasharray:none;stroke-opacity:1" />
    </g>
    <path
       sodipodi:nodetypes="aaaaaaaaaa"
       id="path1696"
       d="m -5.8675314,159.7591 c -0.7532988,4.51618 1.0441262,9.83213 4.3086634,13.04244 5.856247,5.75897 15.802455,10.13904 23.522976,7.33637 6.335727,-2.29997 9.669048,-10.38361 10.946334,-17.00175 1.513313,-7.8411 -1.080093,-16.32637 -4.541562,-23.52298 -2.697295,-5.60784 -6.816081,-10.93757 -12.110839,-14.20695 -4.557954,-2.81442 -10.6390137,-5.85316 -15.60435142,-3.84285 -2.84512878,1.1519 -4.63428028,4.74344 -4.89091508,7.80216 -0.5514748,6.57279 8.4148401,11.74125 7.5692747,18.28272 -0.6498975,5.02774 -8.3654995,7.11036 -9.1995806,12.11084 z"
       style="fill:none;stroke:#a7cef7;stroke-width:1.2;stroke-linecap:butt;stroke-linejoin:miter;stroke-miterlimit:4;stroke-dasharray:none;stroke-opacity:1" />
  </g>
</svg>
