<?xml version="1.0" encoding="UTF-8" standalone="no"?>
<svg
   xmlns:dc="http://purl.org/dc/elements/1.1/"
   xmlns:cc="http://creativecommons.org/ns#"
   xmlns:rdf="http://www.w3.org/1999/02/22-rdf-syntax-ns#"
   xmlns:svg="http://www.w3.org/2000/svg"
   xmlns="http://www.w3.org/2000/svg"
   xmlns:xlink="http://www.w3.org/1999/xlink"
   xmlns:sodipodi="http://sodipodi.sourceforge.net/DTD/sodipodi-0.dtd"
   xmlns:inkscape="http://www.inkscape.org/namespaces/inkscape"
   width="81.404594"
   height="48.356869"
   viewBox="0 0 21.538298 12.794422"
   version="1.1"
   id="svg2590"
   inkscape:version="1.0 (4035a4fb49, 2020-05-01)"
   sodipodi:docname="PruneNode.svg"
   inkscape:export-filename="G:\OneDrive - University of Bristol\Projects\TreeViewer\PruneNode.png"
   inkscape:export-xdpi="83.380089"
   inkscape:export-ydpi="83.380089">
  <defs
     id="defs2584">
    <linearGradient
       inkscape:collect="always"
       id="linearGradient2019">
      <stop
         style="stop-color:#fefefe;stop-opacity:0.55844158"
         offset="0"
         id="stop2015" />
      <stop
         style="stop-color:#ffffff;stop-opacity:0"
         offset="1"
         id="stop2017" />
    </linearGradient>
    <linearGradient
       id="linearGradient2001"
       inkscape:collect="always">
      <stop
         id="stop1997"
         offset="0"
         style="stop-color:#000000;stop-opacity:0.5" />
      <stop
         id="stop1999"
         offset="1"
         style="stop-color:#000000;stop-opacity:0;" />
    </linearGradient>
    <linearGradient
       inkscape:collect="always"
       id="linearGradient1991">
      <stop
         style="stop-color:#ffff6e;stop-opacity:0.50196081"
         offset="0"
         id="stop1987" />
      <stop
         style="stop-color:#ffff6e;stop-opacity:0"
         offset="1"
         id="stop1989" />
    </linearGradient>
    <linearGradient
       id="linearGradient1979"
       inkscape:collect="always">
      <stop
         id="stop1975"
         offset="0"
         style="stop-color:#c3ba00;stop-opacity:0.5" />
      <stop
         id="stop1977"
         offset="1"
         style="stop-color:#c3ba00;stop-opacity:0" />
    </linearGradient>
    <linearGradient
       gradientUnits="userSpaceOnUse"
       y2="7.9443049"
       x2="-11.089404"
       y1="12.976112"
       x1="-8.0899324"
       id="linearGradient1981"
       xlink:href="#linearGradient1979"
       inkscape:collect="always" />
    <linearGradient
       y2="9.5743275"
       x2="-9.5302525"
       y1="6.2434115"
       x1="-12.696517"
       gradientUnits="userSpaceOnUse"
       id="linearGradient1985"
       xlink:href="#linearGradient1991"
       inkscape:collect="always" />
    <linearGradient
       gradientUnits="userSpaceOnUse"
       y2="-0.00061233435"
       x2="-17.566105"
       y1="6.4486065"
       x1="-8.5100765"
       id="linearGradient2003"
       xlink:href="#linearGradient2001"
       inkscape:collect="always" />
    <linearGradient
       y2="-1.5597641"
       x2="-10.597169"
       y1="-4.6308208"
       x1="-17.487011"
       gradientUnits="userSpaceOnUse"
       id="linearGradient2013"
       xlink:href="#linearGradient2019"
       inkscape:collect="always" />
    <linearGradient
       y2="-0.00061233435"
       x2="-17.566105"
       y1="6.4486065"
       x1="-8.5100765"
       gradientUnits="userSpaceOnUse"
       id="linearGradient2054"
       xlink:href="#linearGradient2001"
       inkscape:collect="always" />
    <linearGradient
       y2="-1.5597641"
       x2="-10.597169"
       y1="-4.6308208"
       x1="-17.487011"
       gradientUnits="userSpaceOnUse"
       id="linearGradient2056"
       xlink:href="#linearGradient2019"
       inkscape:collect="always" />
    <linearGradient
       y2="7.9443049"
       x2="-11.089404"
       y1="12.976112"
       x1="-8.0899324"
       gradientUnits="userSpaceOnUse"
       id="linearGradient2058"
       xlink:href="#linearGradient1979"
       inkscape:collect="always" />
    <linearGradient
       y2="9.5743275"
       x2="-9.5302525"
       y1="6.2434115"
       x1="-12.696517"
       gradientUnits="userSpaceOnUse"
       id="linearGradient2060"
       xlink:href="#linearGradient1991"
       inkscape:collect="always" />
    <filter
       height="1.0770471"
       y="-0.038523544"
       width="1.1273195"
       x="-0.063659742"
       id="filter2213"
       style="color-interpolation-filters:sRGB"
       inkscape:collect="always">
      <feGaussianBlur
         id="feGaussianBlur2215"
         stdDeviation="1.1717578"
         inkscape:collect="always" />
    </filter>
    <filter
       height="1.2622901"
       y="-0.086925149"
       width="1.0853912"
       x="-0.0439924"
       id="filter2219"
       style="color-interpolation-filters:sRGB"
       inkscape:collect="always">
      <feGaussianBlur
         id="feGaussianBlur2221"
         stdDeviation="0.077390772"
         inkscape:collect="always" />
    </filter>
    <linearGradient
       y2="-0.00061233435"
       x2="-17.566105"
       y1="6.4486065"
       x1="-8.5100765"
       gradientUnits="userSpaceOnUse"
       id="linearGradient2229"
       xlink:href="#linearGradient2001"
       inkscape:collect="always" />
    <linearGradient
       y2="-1.5597641"
       x2="-10.597169"
       y1="-4.6308208"
       x1="-17.487011"
       gradientUnits="userSpaceOnUse"
       id="linearGradient2231"
       xlink:href="#linearGradient2019"
       inkscape:collect="always" />
    <linearGradient
       y2="9.5743275"
       x2="-9.5302525"
       y1="6.2434115"
       x1="-12.696517"
       gradientUnits="userSpaceOnUse"
       id="linearGradient2233"
       xlink:href="#linearGradient1991"
       inkscape:collect="always" />
  </defs>
  <sodipodi:namedview
     inkscape:snap-global="false"
     inkscape:object-paths="true"
     id="base"
     pagecolor="#ffffff"
     bordercolor="#666666"
     borderopacity="1.0"
     inkscape:pageopacity="0"
     inkscape:pageshadow="2"
     inkscape:zoom="7.9195959"
     inkscape:cx="0.22316944"
     inkscape:cy="19.805799"
     inkscape:document-units="mm"
     inkscape:current-layer="layer1"
     inkscape:document-rotation="0"
     showgrid="false"
     units="px"
     inkscape:window-width="2560"
     inkscape:window-height="1377"
     inkscape:window-x="-8"
     inkscape:window-y="-8"
     inkscape:window-maximized="1" />
  <metadata
     id="metadata2587">
    <rdf:RDF>
      <cc:Work
         rdf:about="">
        <dc:format>image/svg+xml</dc:format>
        <dc:type
           rdf:resource="http://purl.org/dc/dcmitype/StillImage" />
        <dc:title></dc:title>
      </cc:Work>
    </rdf:RDF>
  </metadata>
  <g
     inkscape:label="Livello 1"
     inkscape:groupmode="layer"
     id="layer1"
     transform="translate(0.68404796,0.44099837)">
    <path
       sodipodi:nodetypes="ccc"
       id="path2277"
       d="M 5.3919602,8.8518399 V 11.395985 H 11.346483"
       style="fill:none;stroke:#000000;stroke-width:0.361;stroke-linecap:round;stroke-linejoin:round;stroke-miterlimit:4;stroke-dasharray:none;stroke-opacity:0.3;filter:url(#filter2219)" />
    <path
       id="path2130"
       style="opacity:0.3;fill:#000000;fill-opacity:1;stroke:#000000;stroke-width:1;stroke-linejoin:round;stroke-miterlimit:4;stroke-dasharray:none;stroke-opacity:1;filter:url(#filter2213)"
       d="m -54.494141,-22.615234 c 0,0 -4.692471,1.926319 -2.779297,9.535156 2.640243,10.5004619 5.57165,20.7220797 8.107422,29.675781 l -2.564453,9.333985 4.771485,2.332031 c 0.15237,-0.572227 0.354297,-1.27431 0.515625,-1.869141 0.161327,0.594831 0.363254,1.296914 0.515625,1.869141 l 4.771484,-2.332031 -2.564453,-9.333985 c 0.673653,-2.378641 1.346535,-4.748749 2.066406,-7.298828 1.989874,-7.0489515 4.10218,-14.6660445 6.041016,-22.376953 1.913174,-7.608837 -2.779297,-9.535156 -2.779297,-9.535156 L -46.443359,6.6875 Z m 2.236329,48.289062 -0.720704,2.751953 c 0,0 -0.22086,-0.107192 -0.583984,-0.269531 -1.089373,-0.487016 -3.463339,-1.462891 -5.021484,-1.462891 -5.492958,0 -9.947266,6.726969 -9.947266,12.22461 -4e-6,5.497648 4.454304,11.466797 9.947266,11.466797 5.492953,0 8.329866,-5.369327 9.945312,-11.466797 0.822595,-3.104888 1.532307,-8.041428 2.164063,-10.416016 z m 11.628906,0 -5.783203,2.828125 c 0.631755,2.374588 1.341467,7.311128 2.164062,10.416016 1.615446,6.09747 4.452358,11.466797 9.945313,11.466797 5.492959,0 9.94727,-5.969149 9.947265,-11.466797 0,-5.497641 -4.45431,-12.22461 -9.947265,-12.22461 -2.077529,0 -5.605469,1.732422 -5.605469,1.732422 z m -18.109375,5.462891 c 0.02763,-2.03e-4 0.05639,-2.03e-4 0.08398,0 3.094284,0.04537 5.578405,4.834383 5.578125,7.93164 -5.3e-5,3.129351 -2.535423,7.181584 -5.662109,7.181641 -3.126682,-5.7e-5 -5.6601,-4.05229 -5.660157,-7.181641 5.7e-5,-3.12935 2.533475,-7.931587 5.660157,-7.93164 z m 24.505859,0 c 0.02763,-2.03e-4 0.05636,-2.03e-4 0.08398,0 3.126685,5.3e-5 5.660103,4.80229 5.660157,7.93164 -5.4e-5,3.129351 -2.533472,7.181584 -5.660157,7.181641 -3.126685,-5.7e-5 -5.662056,-4.05229 -5.662109,-7.181641 -2.8e-4,-3.097257 2.483841,-7.88627 5.578125,-7.93164 z"
       transform="matrix(0.11326069,0,0,0.11326069,14.546401,6.3282955)" />
    <path
       id="path2297"
       d="M 9.1152929,11.112497 H 11.157491"
       style="fill:none;stroke:#2b65a3;stroke-width:0.361;stroke-linecap:round;stroke-linejoin:round;stroke-miterlimit:4;stroke-dasharray:none;stroke-opacity:1" />
    <g
       transform="matrix(0.42807191,0,0,0.42807191,14.478072,6.1891549)"
       id="g2032">
      <path
         style="fill:#c7c7c7;fill-opacity:1;stroke:none;stroke-width:0.0264583;stroke-linejoin:round;stroke-miterlimit:4;stroke-dasharray:none"
         d="M -11.069639,6.6803093 -14.598716,-6.164277 c 0,0 -1.241549,0.509672 -0.735355,2.5228434 1.025967,4.08035582 2.236002,8.0622219 3.001865,10.9384145 z"
         id="path1938"
         sodipodi:nodetypes="ccscc" />
      <path
         sodipodi:nodetypes="ccscc"
         id="path1995"
         d="M -11.069639,6.6803093 -14.598716,-6.164277 c 0,0 -1.241549,0.509672 -0.735355,2.5228434 1.025967,4.08035582 2.236002,8.0622219 3.001865,10.9384145 z"
         style="fill:url(#linearGradient2229);fill-opacity:1;stroke:none;stroke-width:0.0264583;stroke-linejoin:round;stroke-miterlimit:4;stroke-dasharray:none" />
      <path
         style="fill:url(#linearGradient2231);fill-opacity:1;stroke:none;stroke-width:0.0264583;stroke-linejoin:round;stroke-miterlimit:4;stroke-dasharray:none"
         d="M -11.069639,6.6803093 -14.598716,-6.164277 c 0,0 -1.241549,0.509672 -0.735355,2.5228434 1.025967,4.08035582 2.236002,8.0622219 3.001865,10.9384145 z"
         id="path2011"
         sodipodi:nodetypes="ccscc" />
      <path
         sodipodi:nodetypes="ccscc"
         id="path2021"
         d="M -11.069639,6.6803093 -14.598716,-6.164277 c 0,0 -1.241549,0.509672 -0.735355,2.5228434 1.025967,4.08035582 2.236002,8.0622219 3.001865,10.9384145 z"
         style="fill:none;fill-opacity:1;stroke:#ffffff;stroke-width:0.264583;stroke-linejoin:round;stroke-miterlimit:4;stroke-dasharray:none;stroke-opacity:1" />
      <g
         id="g2009">
        <path
           d="m -10.930432,6.612215 -1.52985,0.748342 c 0.167152,0.6282765 0.354717,1.9343824 0.572362,2.755884 0.42742,1.613289 1.178023,3.03421 2.6313672,3.03421 1.4533456,0 2.6319939,-1.579624 2.6319927,-3.03421 0,-1.4545842 -1.1786483,-3.2340959 -2.6319927,-3.2340959 -0.5496794,0 -1.4828832,0.4581559 -1.4828832,0.4581559 z m 1.6926659,1.4452902 c 0.00731,-5.37e-5 0.01461,-5.37e-5 0.021918,0 0.8272685,1.41e-5 1.4978985,1.2710738 1.4979127,2.0990478 -1.42e-5,0.827974 -0.6706442,1.899775 -1.4979127,1.89979 -0.8272689,-1.5e-5 -1.4978989,-1.071816 -1.4979129,-1.89979 -7.4e-5,-0.8194828 0.657299,-2.0870435 1.4759949,-2.0990478 z"
           style="fill:#f0e442;fill-opacity:1;stroke:none;stroke-width:0.0264583;stroke-linejoin:round;stroke-miterlimit:4;stroke-dasharray:none"
           id="path1910"
           sodipodi:nodetypes="ccsssscccccccc" />
        <path
           sodipodi:nodetypes="ccsssscccccccc"
           id="path1973"
           style="fill:url(#linearGradient1981);fill-opacity:1;stroke:none;stroke-width:0.0264583;stroke-linejoin:round;stroke-miterlimit:4;stroke-dasharray:none"
           d="m -10.930432,6.612215 -1.52985,0.748342 c 0.167152,0.6282765 0.354717,1.9343824 0.572362,2.755884 0.42742,1.613289 1.178023,3.03421 2.6313672,3.03421 1.4533456,0 2.6319939,-1.579624 2.6319927,-3.03421 0,-1.4545842 -1.1786483,-3.2340959 -2.6319927,-3.2340959 -0.5496794,0 -1.4828832,0.4581559 -1.4828832,0.4581559 z m 1.6926659,1.4452902 c 0.00731,-5.37e-5 0.01461,-5.37e-5 0.021918,0 0.8272685,1.41e-5 1.4978985,1.2710738 1.4979127,2.0990478 -1.42e-5,0.827974 -0.6706442,1.899775 -1.4979127,1.89979 -0.8272689,-1.5e-5 -1.4978989,-1.071816 -1.4979129,-1.89979 -7.4e-5,-0.8194828 0.657299,-2.0870435 1.4759949,-2.0990478 z" />
        <path
           d="m -10.930432,6.612215 -1.52985,0.748342 c 0.167152,0.6282765 0.354717,1.9343824 0.572362,2.755884 0.42742,1.613289 1.178023,3.03421 2.6313672,3.03421 1.4533456,0 2.6319939,-1.579624 2.6319927,-3.03421 0,-1.4545842 -1.1786483,-3.2340959 -2.6319927,-3.2340959 -0.5496794,0 -1.4828832,0.4581559 -1.4828832,0.4581559 z m 1.6926659,1.4452902 c 0.00731,-5.37e-5 0.01461,-5.37e-5 0.021918,0 0.8272685,1.41e-5 1.4978985,1.2710738 1.4979127,2.0990478 -1.42e-5,0.827974 -0.6706442,1.899775 -1.4979127,1.89979 -0.8272689,-1.5e-5 -1.4978989,-1.071816 -1.4979129,-1.89979 -7.4e-5,-0.8194828 0.657299,-2.0870435 1.4759949,-2.0990478 z"
           style="fill:url(#linearGradient2233);fill-opacity:1;stroke:none;stroke-width:0.0264583;stroke-linejoin:round;stroke-miterlimit:4;stroke-dasharray:none"
           id="path1983"
           sodipodi:nodetypes="ccsssscccccccc" />
        <path
           sodipodi:nodetypes="ccsssscccccccc"
           id="path1993"
           style="fill:none;fill-opacity:1;stroke:#ffffff;stroke-width:0.264583;stroke-linejoin:round;stroke-miterlimit:4;stroke-dasharray:none;stroke-opacity:1"
           d="m -10.930432,6.612215 -1.52985,0.748342 c 0.167152,0.6282765 0.354717,1.9343824 0.572362,2.755884 0.42742,1.613289 1.178023,3.03421 2.6313672,3.03421 1.4533456,0 2.6319939,-1.579624 2.6319927,-3.03421 0,-1.4545842 -1.1786483,-3.2340959 -2.6319927,-3.2340959 -0.5496794,0 -1.4828832,0.4581559 -1.4828832,0.4581559 z m 1.6926659,1.4452902 c 0.00731,-5.37e-5 0.01461,-5.37e-5 0.021918,0 0.8272685,1.41e-5 1.4978985,1.2710738 1.4979127,2.0990478 -1.42e-5,0.827974 -0.6706442,1.899775 -1.4979127,1.89979 -0.8272689,-1.5e-5 -1.4978989,-1.071816 -1.4979129,-1.89979 -7.4e-5,-0.8194828 0.657299,-2.0870435 1.4759949,-2.0990478 z" />
      </g>
    </g>
    <path
       d="M 2.6693991,3.5246278 V 0.28355482 l 6.7059664,-7.555e-5 M 15.664902,5.8399791 v 1.8519181 l 4.36784,-8.19e-5 M 5.3919602,8.6179791 V 5.8399792 l 10.2729418,-1e-7 V 3.988061 l 3.165127,-8.19e-5 M 0.188929,3.5246278 h 2.4804701 v 5.0933513 h 2.7225611"
       style="fill:none;stroke:#000000;stroke-width:0.361;stroke-linecap:round;stroke-linejoin:round;stroke-miterlimit:4;stroke-dasharray:none;stroke-opacity:0.3;filter:url(#filter2219)"
       id="path2217" />
    <path
       id="path2259"
       d="M 5.2029722,8.3344971 V 11.112497 H 9.1152929"
       style="fill:none;stroke:#2b65a3;stroke-width:0.361;stroke-linecap:round;stroke-linejoin:round;stroke-miterlimit:4;stroke-dasharray:none;stroke-opacity:1" />
    <path
       id="path2263"
       d="M -5.9085673e-5,3.2411458 H 2.4804111 V 8.3344971 H 5.2029722 V 5.5564972 l 10.2729378,-1e-7 V 3.704579 l 3.165127,-8.19e-5"
       style="fill:none;stroke:#2b65a3;stroke-width:0.361;stroke-linecap:round;stroke-linejoin:round;stroke-miterlimit:4;stroke-dasharray:none;stroke-opacity:1" />
    <path
       id="path2261"
       d="m 15.47591,5.5564971 v 1.8519181 l 4.36784,-8.19e-5"
       style="fill:none;stroke:#2b65a3;stroke-width:0.361;stroke-linecap:round;stroke-linejoin:round;stroke-miterlimit:4;stroke-dasharray:none;stroke-opacity:1" />
    <path
       id="path3159"
       d="M 2.4804111,3.2411458 V 7.2690546e-5 L 9.1863775,-2.8593269e-6"
       style="fill:none;stroke:#2b65a3;stroke-width:0.361;stroke-linecap:round;stroke-linejoin:round;stroke-miterlimit:4;stroke-dasharray:none;stroke-opacity:1" />
    <g
       id="g2052"
       transform="matrix(-0.42807191,0,0,0.42807191,3.8030638,6.1891549)">
      <path
         sodipodi:nodetypes="ccscc"
         id="path2034"
         d="M -11.069639,6.6803093 -14.598716,-6.164277 c 0,0 -1.241549,0.509672 -0.735355,2.5228434 1.025967,4.08035582 2.236002,8.0622219 3.001865,10.9384145 z"
         style="fill:#c7c7c7;fill-opacity:1;stroke:none;stroke-width:0.0264583;stroke-linejoin:round;stroke-miterlimit:4;stroke-dasharray:none" />
      <path
         style="fill:url(#linearGradient2054);fill-opacity:1;stroke:none;stroke-width:0.0264583;stroke-linejoin:round;stroke-miterlimit:4;stroke-dasharray:none"
         d="M -11.069639,6.6803093 -14.598716,-6.164277 c 0,0 -1.241549,0.509672 -0.735355,2.5228434 1.025967,4.08035582 2.236002,8.0622219 3.001865,10.9384145 z"
         id="path2036"
         sodipodi:nodetypes="ccscc" />
      <path
         sodipodi:nodetypes="ccscc"
         id="path2038"
         d="M -11.069639,6.6803093 -14.598716,-6.164277 c 0,0 -1.241549,0.509672 -0.735355,2.5228434 1.025967,4.08035582 2.236002,8.0622219 3.001865,10.9384145 z"
         style="fill:url(#linearGradient2056);fill-opacity:1;stroke:none;stroke-width:0.0264583;stroke-linejoin:round;stroke-miterlimit:4;stroke-dasharray:none" />
      <path
         style="fill:none;fill-opacity:1;stroke:#ffffff;stroke-width:0.264583;stroke-linejoin:round;stroke-miterlimit:4;stroke-dasharray:none;stroke-opacity:1"
         d="M -11.069639,6.6803093 -14.598716,-6.164277 c 0,0 -1.241549,0.509672 -0.735355,2.5228434 1.025967,4.08035582 2.236002,8.0622219 3.001865,10.9384145 z"
         id="path2040"
         sodipodi:nodetypes="ccscc" />
      <g
         id="g2050">
        <path
           sodipodi:nodetypes="ccsssscccccccc"
           id="path2042"
           style="fill:#f0e442;fill-opacity:1;stroke:none;stroke-width:0.0264583;stroke-linejoin:round;stroke-miterlimit:4;stroke-dasharray:none"
           d="m -10.930432,6.612215 -1.52985,0.748342 c 0.167152,0.6282765 0.354717,1.9343824 0.572362,2.755884 0.42742,1.613289 1.178023,3.03421 2.6313672,3.03421 1.4533456,0 2.6319939,-1.579624 2.6319927,-3.03421 0,-1.4545842 -1.1786483,-3.2340959 -2.6319927,-3.2340959 -0.5496794,0 -1.4828832,0.4581559 -1.4828832,0.4581559 z m 1.6926659,1.4452902 c 0.00731,-5.37e-5 0.01461,-5.37e-5 0.021918,0 0.8272685,1.41e-5 1.4978985,1.2710738 1.4979127,2.0990478 -1.42e-5,0.827974 -0.6706442,1.899775 -1.4979127,1.89979 -0.8272689,-1.5e-5 -1.4978989,-1.071816 -1.4979129,-1.89979 -7.4e-5,-0.8194828 0.657299,-2.0870435 1.4759949,-2.0990478 z" />
        <path
           d="m -10.930432,6.612215 -1.52985,0.748342 c 0.167152,0.6282765 0.354717,1.9343824 0.572362,2.755884 0.42742,1.613289 1.178023,3.03421 2.6313672,3.03421 1.4533456,0 2.6319939,-1.579624 2.6319927,-3.03421 0,-1.4545842 -1.1786483,-3.2340959 -2.6319927,-3.2340959 -0.5496794,0 -1.4828832,0.4581559 -1.4828832,0.4581559 z m 1.6926659,1.4452902 c 0.00731,-5.37e-5 0.01461,-5.37e-5 0.021918,0 0.8272685,1.41e-5 1.4978985,1.2710738 1.4979127,2.0990478 -1.42e-5,0.827974 -0.6706442,1.899775 -1.4979127,1.89979 -0.8272689,-1.5e-5 -1.4978989,-1.071816 -1.4979129,-1.89979 -7.4e-5,-0.8194828 0.657299,-2.0870435 1.4759949,-2.0990478 z"
           style="fill:url(#linearGradient2058);fill-opacity:1;stroke:none;stroke-width:0.0264583;stroke-linejoin:round;stroke-miterlimit:4;stroke-dasharray:none"
           id="path2044"
           sodipodi:nodetypes="ccsssscccccccc" />
        <path
           sodipodi:nodetypes="ccsssscccccccc"
           id="path2046"
           style="fill:url(#linearGradient2060);fill-opacity:1;stroke:none;stroke-width:0.0264583;stroke-linejoin:round;stroke-miterlimit:4;stroke-dasharray:none"
           d="m -10.930432,6.612215 -1.52985,0.748342 c 0.167152,0.6282765 0.354717,1.9343824 0.572362,2.755884 0.42742,1.613289 1.178023,3.03421 2.6313672,3.03421 1.4533456,0 2.6319939,-1.579624 2.6319927,-3.03421 0,-1.4545842 -1.1786483,-3.2340959 -2.6319927,-3.2340959 -0.5496794,0 -1.4828832,0.4581559 -1.4828832,0.4581559 z m 1.6926659,1.4452902 c 0.00731,-5.37e-5 0.01461,-5.37e-5 0.021918,0 0.8272685,1.41e-5 1.4978985,1.2710738 1.4979127,2.0990478 -1.42e-5,0.827974 -0.6706442,1.899775 -1.4979127,1.89979 -0.8272689,-1.5e-5 -1.4978989,-1.071816 -1.4979129,-1.89979 -7.4e-5,-0.8194828 0.657299,-2.0870435 1.4759949,-2.0990478 z" />
        <path
           d="m -10.930432,6.612215 -1.52985,0.748342 c 0.167152,0.6282765 0.354717,1.9343824 0.572362,2.755884 0.42742,1.613289 1.178023,3.03421 2.6313672,3.03421 1.4533456,0 2.6319939,-1.579624 2.6319927,-3.03421 0,-1.4545842 -1.1786483,-3.2340959 -2.6319927,-3.2340959 -0.5496794,0 -1.4828832,0.4581559 -1.4828832,0.4581559 z m 1.6926659,1.4452902 c 0.00731,-5.37e-5 0.01461,-5.37e-5 0.021918,0 0.8272685,1.41e-5 1.4978985,1.2710738 1.4979127,2.0990478 -1.42e-5,0.827974 -0.6706442,1.899775 -1.4979127,1.89979 -0.8272689,-1.5e-5 -1.4978989,-1.071816 -1.4979129,-1.89979 -7.4e-5,-0.8194828 0.657299,-2.0870435 1.4759949,-2.0990478 z"
           style="fill:none;fill-opacity:1;stroke:#ffffff;stroke-width:0.264583;stroke-linejoin:round;stroke-miterlimit:4;stroke-dasharray:none;stroke-opacity:1"
           id="path2048"
           sodipodi:nodetypes="ccsssscccccccc" />
      </g>
    </g>
    <circle
       style="fill:#ffffff;fill-opacity:0.556863;stroke:none;stroke-width:0.113261;stroke-linejoin:round;stroke-miterlimit:4;stroke-dasharray:none;stroke-opacity:1"
       id="path2066"
       cx="9.1380596"
       cy="7.9949794"
       r="0.19213866" />
  </g>
</svg>
