<?xml version="1.0" encoding="UTF-8" standalone="no"?>
<svg
   xmlns:dc="http://purl.org/dc/elements/1.1/"
   xmlns:cc="http://creativecommons.org/ns#"
   xmlns:rdf="http://www.w3.org/1999/02/22-rdf-syntax-ns#"
   xmlns:svg="http://www.w3.org/2000/svg"
   xmlns="http://www.w3.org/2000/svg"
   xmlns:xlink="http://www.w3.org/1999/xlink"
   xmlns:sodipodi="http://sodipodi.sourceforge.net/DTD/sodipodi-0.dtd"
   xmlns:inkscape="http://www.inkscape.org/namespaces/inkscape"
   inkscape:export-ydpi="12.766901"
   inkscape:export-xdpi="12.766901"
   inkscape:export-filename="O:\Projects\TreeViewer\Search.png"
   sodipodi:docname="Search.svg"
   inkscape:version="1.0 (4035a4fb49, 2020-05-01)"
   id="svg930"
   version="1.1"
   viewBox="0 0 96.626236 83.559814"
   height="83.559814mm"
   width="96.626236mm">
  <defs
     id="defs924">
    <linearGradient
       id="linearGradient1622"
       inkscape:collect="always">
      <stop
         id="stop1618"
         offset="0"
         style="stop-color:#ffffff;stop-opacity:0.69999999" />
      <stop
         id="stop1620"
         offset="1"
         style="stop-color:#ffffff;stop-opacity:0;" />
    </linearGradient>
    <linearGradient
       id="linearGradient1612"
       inkscape:collect="always">
      <stop
         id="stop1608"
         offset="0"
         style="stop-color:#ffffff;stop-opacity:0.60000002" />
      <stop
         id="stop1610"
         offset="1"
         style="stop-color:#ffffff;stop-opacity:0;" />
    </linearGradient>
    <linearGradient
       id="linearGradient1602"
       inkscape:collect="always">
      <stop
         id="stop1598"
         offset="0"
         style="stop-color:#ffffff;stop-opacity:0.2" />
      <stop
         id="stop1600"
         offset="1"
         style="stop-color:#ffffff;stop-opacity:0;" />
    </linearGradient>
    <linearGradient
       id="linearGradient1588"
       inkscape:collect="always">
      <stop
         id="stop1584"
         offset="0"
         style="stop-color:#030303;stop-opacity:0.2" />
      <stop
         style="stop-color:#030303;stop-opacity:0.60000002"
         offset="0.41888624"
         id="stop1592" />
      <stop
         id="stop1594"
         offset="0.57194614"
         style="stop-color:#030303;stop-opacity:0.1" />
      <stop
         id="stop1586"
         offset="1"
         style="stop-color:#030303;stop-opacity:0;" />
    </linearGradient>
    <linearGradient
       id="linearGradient1566"
       inkscape:collect="always">
      <stop
         id="stop1562"
         offset="0"
         style="stop-color:#000000;stop-opacity:0.11" />
      <stop
         id="stop1564"
         offset="1"
         style="stop-color:#000000;stop-opacity:0;" />
    </linearGradient>
    <linearGradient
       inkscape:collect="always"
       id="linearGradient1527">
      <stop
         style="stop-color:#955400;stop-opacity:1"
         offset="0"
         id="stop1555" />
      <stop
         style="stop-color:#ae7700;stop-opacity:0"
         offset="1"
         id="stop1557" />
    </linearGradient>
    <linearGradient
       id="linearGradient1527-8"
       inkscape:collect="always">
      <stop
         id="stop1523"
         offset="0"
         style="stop-color:#955400;stop-opacity:1" />
      <stop
         id="stop1525"
         offset="1"
         style="stop-color:#ae7700;stop-opacity:0" />
    </linearGradient>
    <linearGradient
       gradientUnits="userSpaceOnUse"
       y2="135.00789"
       x2="112.86873"
       y1="135.76857"
       x1="111.99572"
       id="linearGradient1529"
       xlink:href="#linearGradient1527-8"
       inkscape:collect="always" />
    <linearGradient
       y2="135.52879"
       x2="111.80212"
       y1="134.80119"
       x1="112.69025"
       gradientUnits="userSpaceOnUse"
       id="linearGradient1533"
       xlink:href="#linearGradient1527-8"
       inkscape:collect="always" />
    <linearGradient
       gradientUnits="userSpaceOnUse"
       y2="135.76857"
       x2="112.00883"
       y1="135.02443"
       x1="112.88869"
       id="linearGradient1543"
       xlink:href="#linearGradient1527"
       inkscape:collect="always" />
    <linearGradient
       gradientUnits="userSpaceOnUse"
       y2="129.45164"
       x2="108.55271"
       y1="137.65373"
       x1="114.4183"
       id="linearGradient1568"
       xlink:href="#linearGradient1566"
       inkscape:collect="always" />
    <linearGradient
       gradientUnits="userSpaceOnUse"
       y2="0.071400329"
       x2="20.097427"
       y1="20.804068"
       x1="0.024381559"
       id="linearGradient1590"
       xlink:href="#linearGradient1588"
       inkscape:collect="always" />
    <linearGradient
       gradientUnits="userSpaceOnUse"
       y2="24.996914"
       x2="-5.6235833"
       y1="0.001953125"
       x1="9.9863281"
       id="linearGradient1604"
       xlink:href="#linearGradient1602"
       inkscape:collect="always" />
    <linearGradient
       gradientUnits="userSpaceOnUse"
       y2="133.11157"
       x2="109.96433"
       y1="128.66821"
       x1="107.88689"
       id="linearGradient1614"
       xlink:href="#linearGradient1612"
       inkscape:collect="always" />
    <radialGradient
       gradientTransform="matrix(0.74158629,0,0,0.78856823,28.144854,27.491334)"
       gradientUnits="userSpaceOnUse"
       r="2.4886599"
       fy="130.05426"
       fx="108.17285"
       cy="130.05426"
       cx="108.17285"
       id="radialGradient1624"
       xlink:href="#linearGradient1622"
       inkscape:collect="always" />
    <filter
       height="1.0527819"
       y="-0.026390949"
       width="1.0552757"
       x="-0.027637826"
       id="filter1693"
       style="color-interpolation-filters:sRGB"
       inkscape:collect="always">
      <feGaussianBlur
         id="feGaussianBlur1695"
         stdDeviation="0.22993286"
         inkscape:collect="always" />
    </filter>
    <filter
       height="1.0512849"
       y="-0.025642456"
       width="1.0570186"
       x="-0.028509319"
       id="filter1706"
       style="color-interpolation-filters:sRGB"
       inkscape:collect="always">
      <feGaussianBlur
         id="feGaussianBlur1708"
         stdDeviation="0.15314942"
         inkscape:collect="always" />
    </filter>
    <filter
       inkscape:collect="always"
       style="color-interpolation-filters:sRGB"
       id="filter1247-4"
       x="-0.012989474"
       width="1.0259789"
       y="-0.011150602"
       height="1.0223012">
      <feGaussianBlur
         inkscape:collect="always"
         stdDeviation="0.38143385"
         id="feGaussianBlur1249-7" />
    </filter>
    <linearGradient
       y2="0.071400329"
       x2="20.097427"
       y1="20.804068"
       x1="0.024381559"
       gradientUnits="userSpaceOnUse"
       id="linearGradient1777"
       xlink:href="#linearGradient1588"
       inkscape:collect="always" />
  </defs>
  <sodipodi:namedview
     inkscape:window-maximized="1"
     inkscape:window-y="-8"
     inkscape:window-x="-8"
     inkscape:window-height="1377"
     inkscape:window-width="2560"
     inkscape:snap-global="true"
     showgrid="false"
     inkscape:document-rotation="0"
     inkscape:current-layer="layer1"
     inkscape:document-units="mm"
     inkscape:cy="107.42379"
     inkscape:cx="113.68605"
     inkscape:zoom="1.1360347"
     inkscape:pageshadow="2"
     inkscape:pageopacity="0.0"
     borderopacity="1.0"
     bordercolor="#666666"
     pagecolor="#ffffff"
     id="base" />
  <metadata
     id="metadata927">
    <rdf:RDF>
      <cc:Work
         rdf:about="">
        <dc:format>image/svg+xml</dc:format>
        <dc:type
           rdf:resource="http://purl.org/dc/dcmitype/StillImage" />
        <dc:title></dc:title>
      </cc:Work>
    </rdf:RDF>
  </metadata>
  <g
     transform="translate(47.673215,-101.30101)"
     id="layer1"
     inkscape:groupmode="layer"
     inkscape:label="Livello 1">
    <path
       transform="matrix(0.97081097,0,0,0.97081097,-57.856605,84.760021)"
       mask="none"
       id="path962-5-0"
       style="fill:none;stroke:#000000;stroke-width:2.41369;stroke-linecap:round;stroke-linejoin:round;stroke-miterlimit:4;stroke-dasharray:none;stroke-opacity:0.2;filter:url(#filter1247-4)"
       d="m 74.506734,68.688227 -4.698356,8.531259 12.36414,-2.596468 m -50.322073,0.741848 11.375023,6.552996 -9.891312,20.277198 m -6.429367,-47.849241 5.934797,2.225546 -1.730985,4.080167 m 3.832891,-12.240501 -2.101906,8.160334 10.138583,0.247271 m 26.706562,-0.247271 -9.396742,-4.574734 m -17.30982,4.822016 17.30982,-4.822016 3.33832,-8.283976 m -10.880453,-0.741849 -11.49867,0.989131 m 20.029919,-10.509523 -10.509531,2.101905 6.553016,3.709244 m -0.618221,-10.633165 -5.934795,6.923921 -9.520388,8.407618 M 27.646631,39.632486 41.247186,43.959937 M 21.09364,37.159659 24.926532,48.658313 11.6969,47.050975 m 29.550286,-3.091038 -16.320654,4.698376 -12.116867,9.39675 M 28.3885,27.391982 40.258068,30.112096 m 5.316578,-8.160336 -5.316578,8.160336 12.487788,-5.19294 m -17.309793,-4.822018 4.822005,10.014958 0.989118,13.847841 1.730983,12.85871 0.247299,25.099215 26.58291,-4.698376 11.004077,8.036695"
       sodipodi:nodetypes="ccccccccccccccccccccccccccccccccccccccccccccc" />
    <path
       mask="none"
       sodipodi:nodetypes="ccccccccccccccccccccccccccccccccccccccccccccc"
       d="m 14.474891,149.64543 -4.5612302,8.28224 12.0032502,-2.52068 m -48.85322,0.72019 11.04299,6.36172 -9.60259,19.68533 m -6.241696,-46.45257 5.761566,2.16058 -1.680456,3.96107 m 3.721006,-11.88321 -2.04055,7.92214 9.84264,0.24006 m 25.9270298,-0.24006 -9.12246003,-4.4412 m -16.80456977,4.68127 16.80456977,-4.68127 3.24088003,-8.04217 m -10.56287,-0.7202 -11.1630298,0.96026 m 19.4452698,-10.20279 -10.20278,2.04055 6.36174,3.60101 m -0.60018,-10.32283 -5.76156,6.72182 -9.2424898,8.16224 m -13.203566,-4.20114 13.203566,4.20114 m -19.565286,-6.6018 3.72102,11.16304 -12.84348,-1.56043 m 28.687746,-3.00081 -15.844266,4.56124 -11.76319,9.12246 m 15.1241,-29.76808 11.523106,2.64071 m 5.16139,-7.92214 -5.16139,7.92214 12.1232798,-5.04136 m -16.8045398,-4.68127 4.68126,9.72263 0.96025,13.44367 1.68045,12.48338 0.24008,24.36659 25.8069798,-4.56123 10.6828802,7.80211"
       style="fill:none;stroke:#2b65a3;stroke-width:2.34324;stroke-linecap:round;stroke-linejoin:round;stroke-miterlimit:4;stroke-dasharray:none;stroke-opacity:1"
       id="path957-9-5" />
    <g
       transform="matrix(8.166645,0,0,8.166645,-884.2672,-939.25735)"
       id="g1775">
      <path
         id="path1697"
         style="fill:#000000;fill-opacity:0.4;stroke:none;stroke-width:3.46078;stroke-linecap:butt;stroke-linejoin:miter;stroke-miterlimit:4;stroke-dasharray:none;stroke-opacity:1;filter:url(#filter1706)"
         d="m 19.533203,18.318359 c -1.329638,0.54206 -2.588965,1.323657 -3.40625,2.748047 3.816794,4.660649 5.669875,6.925024 9.486328,11.585938 h 0.002 c 1.715112,-0.345449 2.966212,-1.191059 3.404297,-2.75 C 25.203163,25.241355 23.34993,22.979122 19.53325,18.318359 Z"
         transform="matrix(0.26458333,0,0,0.26458333,106.49682,128.80247)" />
      <g
         id="g1629"
         style="opacity:0.5">
        <circle
           style="fill:#85deff;fill-opacity:1;stroke:none;stroke-width:0.260495"
           id="path841"
           cx="109.17117"
           cy="131.36931"
           r="2.4886599" />
        <circle
           r="2.4886599"
           cy="131.36931"
           cx="109.17117"
           id="circle1606"
           style="fill:url(#linearGradient1614);fill-opacity:1;stroke:none;stroke-width:0.260495" />
        <circle
           style="fill:url(#radialGradient1624);fill-opacity:1;stroke:none;stroke-width:0.260495"
           id="circle1616"
           cx="109.17117"
           cy="131.36931"
           r="2.4886599" />
      </g>
      <path
         sodipodi:nodetypes="cccccc"
         d="m 111.69819,133.57462 c -0.3518,0.14342 -0.68512,0.35042 -0.90136,0.72729 1.00986,1.23313 1.50021,1.83209 2.50998,3.06529 h 6.1e-4 c 0.45379,-0.0914 0.78485,-0.31482 0.90076,-0.72729 -1.00976,-1.23322 -1.50016,-1.83213 -2.50999,-3.06529 z"
         style="fill:#e69f00;fill-opacity:1;stroke:none;stroke-width:0.915665;stroke-linecap:butt;stroke-linejoin:miter;stroke-miterlimit:4;stroke-dasharray:none;stroke-opacity:1"
         id="path1519" />
      <path
         id="path1651"
         style="fill:#000000;fill-opacity:0.2;stroke:none;stroke-width:0.188976;stroke-linecap:butt;stroke-linejoin:miter;stroke-miterlimit:4;stroke-dasharray:none;stroke-opacity:1;filter:url(#filter1693)"
         d="m 9.9863281,0.00195313 c -5.506507,0 -9.98828123,4.47396167 -9.98828123,9.98046877 0,5.5065071 4.48177423,9.9804691 9.98828123,9.9804691 1.7781519,0 3.4439639,-0.471878 4.8906249,-1.289063 L 16.75,20.912109 c 0.199181,-0.05934 0.389601,-0.125203 0.572266,-0.201171 0.182551,-0.07597 0.35681,-0.162128 0.521484,-0.25586 0.164787,-0.09373 0.321172,-0.196342 0.466797,-0.308594 0.145512,-0.112252 0.281223,-0.233328 0.40625,-0.365234 0.124724,-0.131528 0.238994,-0.27392 0.341797,-0.425781 0.102803,-0.151937 0.193689,-0.313339 0.273437,-0.486328 l -1.896484,-2.265625 c 1.568628,-1.76353 2.529297,-4.078402 2.529297,-6.6210941 0,-5.5065071 -4.472047,-9.98046877 -9.9785159,-9.98046877 z m 0,1.56445307 c 4.2628649,0 7.7885939,2.8450957 8.6464839,6.6308594 2.88e-4,0.0014 0.0017,0.0025 0.002,0.00391 0.117426,0.5752124 0.179687,1.1708704 0.179687,1.78125 0,0.6090514 -0.06276,1.2032944 -0.179687,1.7773444 -2.78e-4,0.0012 2.78e-4,0.0027 0,0.0039 -0.856883,3.787037 -4.384616,6.632812 -8.6484379,6.632812 -4.089902,0 -7.5033209,-2.620003 -8.5332031,-6.175781 C 1.2662257,11.504693 1.15625,10.757733 1.15625,9.9824219 1.15625,9.2102763 1.2657469,8.4653292 1.4511719,7.7519531 2.4781221,4.1919375 5.8932352,1.5664063 9.9863281,1.5664062 Z"
         transform="matrix(0.26458333,0,0,0.26458333,106.52163,128.86036)" />
      <path
         id="path1535"
         style="fill:url(#linearGradient1543);fill-opacity:1;stroke:none;stroke-width:0.915665;stroke-linecap:butt;stroke-linejoin:miter;stroke-miterlimit:4;stroke-dasharray:none;stroke-opacity:1"
         d="m 111.69819,133.57462 c -0.3518,0.14342 -0.68512,0.35042 -0.90136,0.72729 1.00986,1.23313 1.50021,1.83209 2.50998,3.06529 h 6.1e-4 c 0.45379,-0.0914 0.78485,-0.31482 0.90076,-0.72729 -1.00976,-1.23322 -1.50016,-1.83213 -2.50999,-3.06529 z"
         sodipodi:nodetypes="cccccc" />
      <path
         id="path867"
         style="fill:#c7c7c7;fill-opacity:1;stroke:none;stroke-width:0.188976;stroke-linecap:butt;stroke-linejoin:miter;stroke-miterlimit:4;stroke-dasharray:none;stroke-opacity:1"
         d="m 9.9863281,0.00195313 c -5.506507,0 -9.98828123,4.47396167 -9.98828123,9.98046877 0,5.5065071 4.48177423,9.9804691 9.98828123,9.9804691 1.7781519,0 3.4439639,-0.471878 4.8906249,-1.289063 L 16.75,20.912109 c 0.199181,-0.05934 0.389601,-0.125203 0.572266,-0.201171 0.182551,-0.07597 0.35681,-0.162128 0.521484,-0.25586 0.164787,-0.09373 0.321172,-0.196342 0.466797,-0.308594 0.145512,-0.112252 0.281223,-0.233328 0.40625,-0.365234 0.124724,-0.131528 0.238994,-0.27392 0.341797,-0.425781 0.102803,-0.151937 0.193689,-0.313339 0.273437,-0.486328 l -1.896484,-2.265625 c 1.568628,-1.76353 2.529297,-4.078402 2.529297,-6.6210941 0,-5.5065071 -4.472047,-9.98046877 -9.9785159,-9.98046877 z m 0,1.56445307 c 4.2628649,0 7.7885939,2.8450957 8.6464839,6.6308594 2.88e-4,0.0014 0.0017,0.0025 0.002,0.00391 0.117426,0.5752124 0.179687,1.1708704 0.179687,1.78125 0,0.6090514 -0.06276,1.2032944 -0.179687,1.7773444 -2.78e-4,0.0012 2.78e-4,0.0027 0,0.0039 -0.856883,3.787037 -4.384616,6.632812 -8.6484379,6.632812 -4.089902,0 -7.5033209,-2.620003 -8.5332031,-6.175781 C 1.2662257,11.504693 1.15625,10.757733 1.15625,9.9824219 1.15625,9.2102763 1.2657469,8.4653292 1.4511719,7.7519531 2.4781221,4.1919375 5.8932352,1.5664063 9.9863281,1.5664062 Z"
         transform="matrix(0.26458333,0,0,0.26458333,106.5299,128.72804)" />
      <path
         transform="matrix(0.26458333,0,0,0.26458333,106.5299,128.72804)"
         d="m 9.9863281,0.00195313 c -5.506507,0 -9.98828123,4.47396167 -9.98828123,9.98046877 0,5.5065071 4.48177423,9.9804691 9.98828123,9.9804691 1.7781519,0 3.4439639,-0.471878 4.8906249,-1.289063 L 16.75,20.912109 c 0.199181,-0.05934 0.389601,-0.125203 0.572266,-0.201171 0.182551,-0.07597 0.35681,-0.162128 0.521484,-0.25586 0.164787,-0.09373 0.321172,-0.196342 0.466797,-0.308594 0.145512,-0.112252 0.281223,-0.233328 0.40625,-0.365234 0.124724,-0.131528 0.238994,-0.27392 0.341797,-0.425781 0.102803,-0.151937 0.193689,-0.313339 0.273437,-0.486328 l -1.896484,-2.265625 c 1.568628,-1.76353 2.529297,-4.078402 2.529297,-6.6210941 0,-5.5065071 -4.472047,-9.98046877 -9.9785159,-9.98046877 z m 0,1.56445307 c 4.2628649,0 7.7885939,2.8450957 8.6464839,6.6308594 2.88e-4,0.0014 0.0017,0.0025 0.002,0.00391 0.117426,0.5752124 0.179687,1.1708704 0.179687,1.78125 0,0.6090514 -0.06276,1.2032944 -0.179687,1.7773444 -2.78e-4,0.0012 2.78e-4,0.0027 0,0.0039 -0.856883,3.787037 -4.384616,6.632812 -8.6484379,6.632812 -4.089902,0 -7.5033209,-2.620003 -8.5332031,-6.175781 C 1.2662257,11.504693 1.15625,10.757733 1.15625,9.9824219 1.15625,9.2102763 1.2657469,8.4653292 1.4511719,7.7519531 2.4781221,4.1919375 5.8932352,1.5664063 9.9863281,1.5664062 Z"
         style="fill:url(#linearGradient1777);fill-opacity:1;stroke:none;stroke-width:0.188976;stroke-linecap:butt;stroke-linejoin:miter;stroke-miterlimit:4;stroke-dasharray:none;stroke-opacity:1"
         id="path1582" />
      <path
         transform="matrix(0.26458333,0,0,0.26458333,106.5299,128.72804)"
         d="m 9.9863281,0.00195313 c -5.506507,0 -9.98828123,4.47396167 -9.98828123,9.98046877 0,5.5065071 4.48177423,9.9804691 9.98828123,9.9804691 1.7781519,0 3.4439639,-0.471878 4.8906249,-1.289063 L 16.75,20.912109 c 0.199181,-0.05934 0.389601,-0.125203 0.572266,-0.201171 0.182551,-0.07597 0.35681,-0.162128 0.521484,-0.25586 0.164787,-0.09373 0.321172,-0.196342 0.466797,-0.308594 0.145512,-0.112252 0.281223,-0.233328 0.40625,-0.365234 0.124724,-0.131528 0.238994,-0.27392 0.341797,-0.425781 0.102803,-0.151937 0.193689,-0.313339 0.273437,-0.486328 l -1.896484,-2.265625 c 1.568628,-1.76353 2.529297,-4.078402 2.529297,-6.6210941 0,-5.5065071 -4.472047,-9.98046877 -9.9785159,-9.98046877 z m 0,1.56445307 c 4.2628649,0 7.7885939,2.8450957 8.6464839,6.6308594 2.88e-4,0.0014 0.0017,0.0025 0.002,0.00391 0.117426,0.5752124 0.179687,1.1708704 0.179687,1.78125 0,0.6090514 -0.06276,1.2032944 -0.179687,1.7773444 -2.78e-4,0.0012 2.78e-4,0.0027 0,0.0039 -0.856883,3.787037 -4.384616,6.632812 -8.6484379,6.632812 -4.089902,0 -7.5033209,-2.620003 -8.5332031,-6.175781 C 1.2662257,11.504693 1.15625,10.757733 1.15625,9.9824219 1.15625,9.2102763 1.2657469,8.4653292 1.4511719,7.7519531 2.4781221,4.1919375 5.8932352,1.5664063 9.9863281,1.5664062 Z"
         style="fill:url(#linearGradient1604);fill-opacity:1;stroke:none;stroke-width:0.188976;stroke-linecap:butt;stroke-linejoin:miter;stroke-miterlimit:4;stroke-dasharray:none;stroke-opacity:1"
         id="path1596" />
      <path
         id="path1515"
         style="fill:#e69f00;fill-opacity:1;stroke:none;stroke-width:0.915665;stroke-linecap:butt;stroke-linejoin:miter;stroke-miterlimit:4;stroke-dasharray:none;stroke-opacity:1"
         d="m 111.69819,133.57462 c -0.24861,0.2982 -0.5551,0.54545 -0.90136,0.72729 1.00986,1.23313 1.50021,1.83209 2.50998,3.06529 h 6.1e-4 c 0.45379,-0.0914 0.78485,-0.31482 0.90076,-0.72729 -1.00976,-1.23322 -1.50016,-1.83213 -2.50999,-3.06529 z"
         sodipodi:nodetypes="cccccc" />
      <path
         sodipodi:nodetypes="cccccc"
         d="m 111.69819,133.57462 c -0.24861,0.2982 -0.5551,0.54545 -0.90136,0.72729 1.00986,1.23313 1.50021,1.83209 2.50998,3.06529 h 6.1e-4 c 0.45379,-0.0914 0.78485,-0.31482 0.90076,-0.72729 -1.00976,-1.23322 -1.50016,-1.83213 -2.50999,-3.06529 z"
         style="fill:url(#linearGradient1529);fill-opacity:1;stroke:none;stroke-width:0.915665;stroke-linecap:butt;stroke-linejoin:miter;stroke-miterlimit:4;stroke-dasharray:none;stroke-opacity:1"
         id="path1521" />
      <path
         id="path1560"
         style="fill:url(#linearGradient1568);fill-opacity:1;stroke:none;stroke-width:0.915665;stroke-linecap:butt;stroke-linejoin:miter;stroke-miterlimit:4;stroke-dasharray:none;stroke-opacity:1"
         d="m 111.69819,133.57462 c -0.24861,0.2982 -0.5551,0.54545 -0.90136,0.72729 1.00986,1.23313 1.50021,1.83209 2.50998,3.06529 h 6.1e-4 c 0.45379,-0.0914 0.78485,-0.31482 0.90076,-0.72729 -1.00976,-1.23322 -1.50016,-1.83213 -2.50999,-3.06529 z"
         sodipodi:nodetypes="cccccc" />
    </g>
  </g>
</svg>
