<?xml version="1.0" encoding="UTF-8" standalone="no"?>
<svg
   xmlns:dc="http://purl.org/dc/elements/1.1/"
   xmlns:cc="http://creativecommons.org/ns#"
   xmlns:rdf="http://www.w3.org/1999/02/22-rdf-syntax-ns#"
   xmlns:svg="http://www.w3.org/2000/svg"
   xmlns="http://www.w3.org/2000/svg"
   xmlns:xlink="http://www.w3.org/1999/xlink"
   xmlns:sodipodi="http://sodipodi.sourceforge.net/DTD/sodipodi-0.dtd"
   xmlns:inkscape="http://www.inkscape.org/namespaces/inkscape"
   width="65.141541mm"
   height="75.748802mm"
   viewBox="0 0 65.141541 75.748801"
   version="1.1"
   id="svg930"
   inkscape:version="1.0 (4035a4fb49, 2020-05-01)"
   sodipodi:docname="UnrootedStyle.svg"
   inkscape:export-filename="O:\Projects\TreeViewer\Unrooted.png"
   inkscape:export-xdpi="14.083391"
   inkscape:export-ydpi="14.083391">
  <defs
     id="defs924">
    <linearGradient
       inkscape:collect="always"
       id="linearGradient1588">
      <stop
         style="stop-color:#030303;stop-opacity:0.2"
         offset="0"
         id="stop1584" />
      <stop
         id="stop1592"
         offset="0.41888624"
         style="stop-color:#030303;stop-opacity:0.60000002" />
      <stop
         style="stop-color:#030303;stop-opacity:0.1"
         offset="0.57194614"
         id="stop1594" />
      <stop
         style="stop-color:#030303;stop-opacity:0;"
         offset="1"
         id="stop1586" />
    </linearGradient>
    <linearGradient
       inkscape:collect="always"
       id="linearGradient1527-8">
      <stop
         style="stop-color:#955400;stop-opacity:1"
         offset="0"
         id="stop1523" />
      <stop
         style="stop-color:#ae7700;stop-opacity:0"
         offset="1"
         id="stop1525" />
    </linearGradient>
    <linearGradient
       inkscape:collect="always"
       xlink:href="#linearGradient1527-8"
       id="linearGradient1533"
       gradientUnits="userSpaceOnUse"
       x1="112.69025"
       y1="134.80119"
       x2="111.80212"
       y2="135.52879" />
    <linearGradient
       inkscape:collect="always"
       xlink:href="#linearGradient1588"
       id="linearGradient1590"
       x1="0.024381559"
       y1="20.804068"
       x2="20.097427"
       y2="0.071400329"
       gradientUnits="userSpaceOnUse" />
    <filter
       height="1.0867605"
       y="-0.050632715"
       width="1.0675899"
       x="-0.031454086"
       id="filter1247-4"
       style="color-interpolation-filters:sRGB"
       inkscape:collect="always">
      <feGaussianBlur
         id="feGaussianBlur1249-7"
         stdDeviation="0.38143385"
         inkscape:collect="always" />
    </filter>
    <clipPath
       id="clipPath2011"
       clipPathUnits="userSpaceOnUse">
      <path
         d="m -21.122381,115.15856 v 72.54855 h 66.493099 v -72.54855 z m 25.1669394,5.75521 c 4.1618694,-0.0419 8.6528226,2.29346 12.2137246,4.49223 5.29476,3.26938 9.413079,8.59956 12.110371,14.2074 3.461472,7.19661 6.055156,15.6815 4.541843,23.5226 -1.277284,6.61813 -4.610891,14.70209 -10.94662,17.00206 -7.72052,2.80267 -17.6663478,-1.57753 -23.522593,-7.33651 -3.2645376,-3.2103 -5.0620797,-8.52643 -4.3087819,-13.04261 0.8340805,-5.00048 8.5495421,-7.08315 9.1994382,-12.11089 0.845566,-6.54147 -8.1205229,-11.70981 -7.5690466,-18.2826 0.2566326,-3.05872 2.0455282,-6.65021 4.89065626,-7.80211 1.08616754,-0.43976 2.22568554,-0.63783 3.39100844,-0.64957 z"
         style="opacity:1;fill:#ffffff;fill-opacity:1;stroke:none;stroke-width:1.2;stroke-miterlimit:4;stroke-dasharray:none;stroke-opacity:0.3"
         id="path2013" />
    </clipPath>
  </defs>
  <sodipodi:namedview
     id="base"
     pagecolor="#ffffff"
     bordercolor="#666666"
     borderopacity="1.0"
     inkscape:pageopacity="0.0"
     inkscape:pageshadow="2"
     inkscape:zoom="1.9580443"
     inkscape:cx="52.137367"
     inkscape:cy="150.57163"
     inkscape:document-units="mm"
     inkscape:current-layer="layer1"
     inkscape:document-rotation="0"
     showgrid="false"
     inkscape:snap-global="false"
     inkscape:window-width="958"
     inkscape:window-height="1008"
     inkscape:window-x="953"
     inkscape:window-y="0"
     inkscape:window-maximized="0" />
  <metadata
     id="metadata927">
    <rdf:RDF>
      <cc:Work
         rdf:about="">
        <dc:format>image/svg+xml</dc:format>
        <dc:type
           rdf:resource="http://purl.org/dc/dcmitype/StillImage" />
        <dc:title></dc:title>
      </cc:Work>
    </rdf:RDF>
  </metadata>
  <g
     inkscape:label="Livello 1"
     inkscape:groupmode="layer"
     id="layer1"
     transform="translate(42.339619,-100.74137)">
    <path
       clip-path="none"
       sodipodi:nodetypes="ccccccccccccccccccccccccccccc"
       d="m 74.506734,68.688227 -4.698356,8.531259 m -37.957933,-1.85462 11.375023,6.552996 -9.891312,9.976432 M 69.684731,56.571365 60.287989,51.996631 m -17.30982,4.822016 17.30982,-4.822016 3.33832,-8.283976 m -12.858735,-8.160336 6.553016,3.709244 m -0.618221,-10.633165 -5.934795,6.923921 -9.520388,8.407618 m -22.213376,-3.709725 5.892722,8.408101 m 16.320654,-4.698376 -16.320654,4.698376 -6.966051,9.396601 M 45.574646,21.95176 40.258068,30.112096 m -4.822005,-10.014958 4.822005,10.014958 0.989118,13.847841 1.730983,12.85871 0.247299,25.099215 26.58291,-4.698376 11.004077,8.036695"
       style="fill:none;stroke:#000000;stroke-width:2.41369;stroke-linecap:round;stroke-linejoin:round;stroke-miterlimit:4;stroke-dasharray:none;stroke-opacity:0.2;filter:url(#filter1247-4)"
       id="path962-5-0"
       mask="none"
       transform="matrix(0.97081097,0,0,0.97081097,-57.856605,84.760021)" />
    <path
       id="path957-9-5"
       style="fill:none;stroke:#2b65a3;stroke-width:2.34324;stroke-linecap:round;stroke-linejoin:round;stroke-miterlimit:4;stroke-dasharray:none;stroke-opacity:1"
       d="m 14.474815,149.64543 -4.5612226,8.28224 m -36.8499044,-1.80049 11.04296,6.36172 -9.60257,9.68511 m 35.2894844,-34.29177 -9.1224461,-4.4412 m -16.8045363,4.68127 16.8045363,-4.68127 3.2408761,-8.04217 m -12.4833909,-7.92218 6.3617308,3.60101 m -0.6001714,-10.32283 -5.7615508,6.72182 -9.2424891,8.16224 m -21.565485,-3.60156 5.72124,8.1628 m 15.844245,-4.56124 -15.844245,4.56124 -6.76325,9.12246 m 26.80863,-35.04951 -5.161388,7.92214 m -4.68125,-9.72263 4.68125,9.72263 0.960361,13.44367 1.680523,12.48338 0.239982,24.36659 25.8069444,-4.56123 10.6828636,7.80211"
       sodipodi:nodetypes="ccccccccccccccccccccccccccccc"
       mask="none" />
  </g>
</svg>
