<?xml version="1.0" encoding="UTF-8" standalone="no"?>
<svg
   xmlns:dc="http://purl.org/dc/elements/1.1/"
   xmlns:cc="http://creativecommons.org/ns#"
   xmlns:rdf="http://www.w3.org/1999/02/22-rdf-syntax-ns#"
   xmlns:svg="http://www.w3.org/2000/svg"
   xmlns="http://www.w3.org/2000/svg"
   xmlns:xlink="http://www.w3.org/1999/xlink"
   xmlns:sodipodi="http://sodipodi.sourceforge.net/DTD/sodipodi-0.dtd"
   xmlns:inkscape="http://www.inkscape.org/namespaces/inkscape"
   sodipodi:docname="WindowTree.svg"
   inkscape:version="1.0 (4035a4fb49, 2020-05-01)"
   width="500"
   height="66"
   viewBox="0 0 132.29166 17.4625"
   version="1.1"
   id="svg8">
  <defs
     id="defs2">
    <filter
       height="1.0446225"
       y="-0.022311253"
       width="1.016414"
       x="-0.0082070651"
       id="filter1235"
       style="color-interpolation-filters:sRGB"
       inkscape:collect="always">
      <feGaussianBlur
         id="feGaussianBlur1237"
         stdDeviation="0.88616576"
         inkscape:collect="always" />
    </filter>
    <radialGradient
       r="531.41406"
       fy="-615.00433"
       fx="1562.0206"
       cy="-615.00433"
       cx="1562.0206"
       gradientTransform="matrix(-0.072392,-0.27017063,0.77630867,-0.20801128,1084.2797,430.90277)"
       gradientUnits="userSpaceOnUse"
       id="radialGradient1315"
       xlink:href="#linearGradient1191-1"
       inkscape:collect="always" />
    <linearGradient
       id="linearGradient1191-1"
       inkscape:collect="always">
      <stop
         id="stop1187"
         offset="0"
         style="stop-color:#00639b;stop-opacity:0.2" />
      <stop
         id="stop1189"
         offset="1"
         style="stop-color:#00639b;stop-opacity:0" />
    </linearGradient>
    <mask
       maskUnits="userSpaceOnUse"
       id="mask1132">
      <path
         style="fill:#ffffff;fill-opacity:1;stroke:none;stroke-width:0.1;stroke-linecap:round;stroke-miterlimit:4;stroke-dasharray:none;stroke-opacity:1"
         d="m 73.270097,119.62215 v 2.64584 2.64583 c -16.182758,-3.67715 -32.483293,-5.49618 -45.583264,-14.92785 -1.305999,-0.91076 -0.25065,-6.101 -0.25065,-6.101 0,0 0.865807,-1.85325 1.904296,-3.915362 C 36.97927,86.786003 47.593448,75.736106 57.589917,67.616544 70.336997,57.262816 85.490095,52.061938 95.561243,52.061938 c 0.0716,0 0.145965,0.0031 0.218074,0.0036 V 35.917187 L 59.861979,0 H 7.9375 C 3.540125,0 0,3.540125 0,7.9375 v 119.59166 c 0,4.39738 3.540125,7.9375 7.9375,7.9375 h 79.904167 c 4.397375,0 7.9375,-3.54012 7.9375,-7.9375 v -1.25522 c -0.07252,5.3e-4 -0.14504,0.001 -0.217559,0.001 -7.922483,2.3e-4 -15.181287,-2.9224 -20.812702,-7.77667"
         id="path1134"
         sodipodi:nodetypes="ccccccsscccssssssccc" />
    </mask>
    <clipPath
       id="clipPath1273"
       clipPathUnits="userSpaceOnUse">
      <path
         id="path1275"
         style="fill:#ffffff;fill-opacity:1;stroke:none;stroke-width:0.964312;stroke-linecap:round;stroke-opacity:1"
         d="m 362.00001,135.75 v 346.24998 c 0,16.62002 -13.38,30 -30,30 H 30 C 13.38,511.99998 -5.9127449e-7,498.62 -5.9127449e-7,481.99998 V 30.000017 C -5.9127449e-7,13.380017 13.38,1.7730124e-5 30,1.7730124e-5 h 196.25 z"
         sodipodi:nodetypes="csssssscc" />
    </clipPath>
    <mask
       id="mask1303"
       maskUnits="userSpaceOnUse">
      <path
         id="path1305"
         style="fill:#ffffff;fill-opacity:1;stroke:none;stroke-width:0.964312;stroke-linecap:round;stroke-opacity:1"
         d="m 95.779167,35.917188 v 91.611972 c 0,4.39738 -3.540124,7.9375 -7.9375,7.9375 H 7.9374998 c -4.3973749,0 -7.93749995644137,-3.54012 -7.93749995644137,-7.9375 V 7.9375045 C -1.5644137e-7,3.5401295 3.5401249,4.6910952e-6 7.9374998,4.6910952e-6 H 59.861979 Z"
         sodipodi:nodetypes="csssssscc" />
    </mask>
    <pattern
       id="EMFhbasepattern"
       patternUnits="userSpaceOnUse"
       width="6"
       height="6"
       x="0"
       y="0" />
    <pattern
       id="EMFhbasepattern-7"
       patternUnits="userSpaceOnUse"
       width="6"
       height="6"
       x="0"
       y="0" />
    <mask
       maskUnits="userSpaceOnUse"
       id="mask1132-5">
      <path
         style="fill:#ffffff;fill-opacity:1;stroke:none;stroke-width:0.1;stroke-linecap:round;stroke-miterlimit:4;stroke-dasharray:none;stroke-opacity:1"
         d="m 73.270097,119.62215 v 2.64584 2.64583 c -16.182758,-3.67715 -32.483293,-5.49618 -45.583264,-14.92785 -1.305999,-0.91076 -0.25065,-6.101 -0.25065,-6.101 0,0 0.865807,-1.85325 1.904296,-3.915362 C 36.97927,86.786003 47.593448,75.736106 57.589917,67.616544 70.336997,57.262816 85.490095,52.061938 95.561243,52.061938 c 0.0716,0 0.145965,0.0031 0.218074,0.0036 V 35.917187 L 59.861979,0 H 7.9375 C 3.540125,0 0,3.540125 0,7.9375 v 119.59166 c 0,4.39738 3.540125,7.9375 7.9375,7.9375 h 79.904167 c 4.397375,0 7.9375,-3.54012 7.9375,-7.9375 v -1.25522 c -0.07252,5.3e-4 -0.14504,0.001 -0.217559,0.001 -7.922483,2.3e-4 -15.181287,-2.9224 -20.812702,-7.77667"
         id="path1134-9"
         sodipodi:nodetypes="ccccccsscccssssssccc" />
    </mask>
    <mask
       maskUnits="userSpaceOnUse"
       id="mask1136">
      <path
         sodipodi:nodetypes="ccccccsscccssssssccc"
         id="path1138"
         d="m 73.270097,119.62215 v 2.64584 2.64583 c -16.182758,-3.67715 -32.483293,-5.49618 -45.583264,-14.92785 -1.305999,-0.91076 -0.25065,-6.101 -0.25065,-6.101 0,0 0.865807,-1.85325 1.904296,-3.915362 C 36.97927,86.786003 47.593448,75.736106 57.589917,67.616544 70.336997,57.262816 85.490095,52.061938 95.561243,52.061938 c 0.0716,0 0.145965,0.0031 0.218074,0.0036 V 35.917187 L 59.861979,0 H 7.9375 C 3.540125,0 0,3.540125 0,7.9375 v 119.59166 c 0,4.39738 3.540125,7.9375 7.9375,7.9375 h 79.904167 c 4.397375,0 7.9375,-3.54012 7.9375,-7.9375 v -1.25522 c -0.07252,5.3e-4 -0.14504,0.001 -0.217559,0.001 -7.922483,2.3e-4 -15.181287,-2.9224 -20.812702,-7.77667"
         style="fill:#ffffff;fill-opacity:1;stroke:none;stroke-width:0.1;stroke-linecap:round;stroke-miterlimit:4;stroke-dasharray:none;stroke-opacity:1" />
    </mask>
    <clipPath
       id="clipPath1273-4"
       clipPathUnits="userSpaceOnUse">
      <path
         id="path1275-5"
         style="fill:#ffffff;fill-opacity:1;stroke:none;stroke-width:0.964312;stroke-linecap:round;stroke-opacity:1"
         d="m 362.00001,135.75 v 346.24998 c 0,16.62002 -13.38,30 -30,30 H 30 C 13.38,511.99998 -5.9127449e-7,498.62 -5.9127449e-7,481.99998 V 30.000017 C -5.9127449e-7,13.380017 13.38,1.7730124e-5 30,1.7730124e-5 h 196.25 z"
         sodipodi:nodetypes="csssssscc" />
    </clipPath>
    <mask
       id="mask1303-3"
       maskUnits="userSpaceOnUse">
      <path
         id="path1305-3"
         style="fill:#ffffff;fill-opacity:1;stroke:none;stroke-width:0.964312;stroke-linecap:round;stroke-opacity:1"
         d="m 95.779167,35.917188 v 91.611972 c 0,4.39738 -3.540124,7.9375 -7.9375,7.9375 H 7.9374998 c -4.3973749,0 -7.93749995644137,-3.54012 -7.93749995644137,-7.9375 V 7.9375045 C -1.5644137e-7,3.5401295 3.5401249,4.6910952e-6 7.9374998,4.6910952e-6 H 59.861979 Z"
         sodipodi:nodetypes="csssssscc" />
    </mask>
    <linearGradient
       y2="52.047314"
       x2="39.460712"
       y1="1.9654751"
       x1="2.8348188"
       gradientUnits="userSpaceOnUse"
       id="linearGradient1465"
       xlink:href="#linearGradient884"
       inkscape:collect="always" />
    <linearGradient
       id="linearGradient884"
       inkscape:collect="always">
      <stop
         id="stop880"
         offset="0"
         style="stop-color:#79bffe;stop-opacity:0.2" />
      <stop
         id="stop882"
         offset="1"
         style="stop-color:#77bcf9;stop-opacity:0" />
    </linearGradient>
    <filter
       height="1.0788841"
       y="-0.039442047"
       width="1.0410506"
       x="-0.020525275"
       id="filter1285"
       style="color-interpolation-filters:sRGB"
       inkscape:collect="always">
      <feGaussianBlur
         id="feGaussianBlur1287"
         stdDeviation="1.1326661"
         inkscape:collect="always" />
    </filter>
    <linearGradient
       inkscape:collect="always"
       xlink:href="#linearGradient1072"
       id="linearGradient1074"
       x1="104.94875"
       y1="128.23151"
       x2="81.110832"
       y2="55.172665"
       gradientUnits="userSpaceOnUse" />
    <linearGradient
       inkscape:collect="always"
       id="linearGradient1072">
      <stop
         style="stop-color:#77bbf9;stop-opacity:0.30000001"
         offset="0"
         id="stop1068" />
      <stop
         style="stop-color:#79befc;stop-opacity:0"
         offset="1"
         id="stop1070" />
    </linearGradient>
    <linearGradient
       inkscape:collect="always"
       xlink:href="#linearGradient1082"
       id="linearGradient1148"
       gradientUnits="userSpaceOnUse"
       x1="104.80307"
       y1="130.93242"
       x2="87.128555"
       y2="69.59893" />
    <linearGradient
       inkscape:collect="always"
       id="linearGradient1082">
      <stop
         style="stop-color:#78bdfb;stop-opacity:0.5"
         offset="0"
         id="stop1078" />
      <stop
         style="stop-color:#7ac0ff;stop-opacity:0"
         offset="1"
         id="stop1080" />
    </linearGradient>
    <mask
       maskUnits="userSpaceOnUse"
       id="mask1132-3">
      <path
         style="fill:#ffffff;fill-opacity:1;stroke:none;stroke-width:0.1;stroke-linecap:round;stroke-miterlimit:4;stroke-dasharray:none;stroke-opacity:1"
         d="m 73.270097,119.62215 v 2.64584 2.64583 c -16.182758,-3.67715 -32.483293,-5.49618 -45.583264,-14.92785 -1.305999,-0.91076 -0.25065,-6.101 -0.25065,-6.101 0,0 0.865807,-1.85325 1.904296,-3.915362 C 36.97927,86.786003 47.593448,75.736106 57.589917,67.616544 70.336997,57.262816 85.490095,52.061938 95.561243,52.061938 c 0.0716,0 0.145965,0.0031 0.218074,0.0036 V 35.917187 L 59.861979,0 H 7.9375 C 3.540125,0 0,3.540125 0,7.9375 v 119.59166 c 0,4.39738 3.540125,7.9375 7.9375,7.9375 h 79.904167 c 4.397375,0 7.9375,-3.54012 7.9375,-7.9375 v -1.25522 c -0.07252,5.3e-4 -0.14504,0.001 -0.217559,0.001 -7.922483,2.3e-4 -15.181287,-2.9224 -20.812702,-7.77667"
         id="path1134-2"
         sodipodi:nodetypes="ccccccsscccssssssccc" />
    </mask>
    <mask
       maskUnits="userSpaceOnUse"
       id="mask1136-1">
      <path
         sodipodi:nodetypes="ccccccsscccssssssccc"
         id="path1138-4"
         d="m 73.270097,119.62215 v 2.64584 2.64583 c -16.182758,-3.67715 -32.483293,-5.49618 -45.583264,-14.92785 -1.305999,-0.91076 -0.25065,-6.101 -0.25065,-6.101 0,0 0.865807,-1.85325 1.904296,-3.915362 C 36.97927,86.786003 47.593448,75.736106 57.589917,67.616544 70.336997,57.262816 85.490095,52.061938 95.561243,52.061938 c 0.0716,0 0.145965,0.0031 0.218074,0.0036 V 35.917187 L 59.861979,0 H 7.9375 C 3.540125,0 0,3.540125 0,7.9375 v 119.59166 c 0,4.39738 3.540125,7.9375 7.9375,7.9375 h 79.904167 c 4.397375,0 7.9375,-3.54012 7.9375,-7.9375 v -1.25522 c -0.07252,5.3e-4 -0.14504,0.001 -0.217559,0.001 -7.922483,2.3e-4 -15.181287,-2.9224 -20.812702,-7.77667"
         style="fill:#ffffff;fill-opacity:1;stroke:none;stroke-width:0.1;stroke-linecap:round;stroke-miterlimit:4;stroke-dasharray:none;stroke-opacity:1" />
    </mask>
    <clipPath
       id="clipPath1273-3"
       clipPathUnits="userSpaceOnUse">
      <path
         id="path1275-9"
         style="fill:#ffffff;fill-opacity:1;stroke:none;stroke-width:0.964312;stroke-linecap:round;stroke-opacity:1"
         d="m 362.00001,135.75 v 346.24998 c 0,16.62002 -13.38,30 -30,30 H 30 C 13.38,511.99998 -5.9127449e-7,498.62 -5.9127449e-7,481.99998 V 30.000017 C -5.9127449e-7,13.380017 13.38,1.7730124e-5 30,1.7730124e-5 h 196.25 z"
         sodipodi:nodetypes="csssssscc" />
    </clipPath>
    <mask
       id="mask1303-4"
       maskUnits="userSpaceOnUse">
      <path
         id="path1305-2"
         style="fill:#ffffff;fill-opacity:1;stroke:none;stroke-width:0.964312;stroke-linecap:round;stroke-opacity:1"
         d="m 95.779167,35.917188 v 91.611972 c 0,4.39738 -3.540124,7.9375 -7.9375,7.9375 H 7.9374998 c -4.3973749,0 -7.93749995644137,-3.54012 -7.93749995644137,-7.9375 V 7.9375045 C -1.5644137e-7,3.5401295 3.5401249,4.6910952e-6 7.9374998,4.6910952e-6 H 59.861979 Z"
         sodipodi:nodetypes="csssssscc" />
    </mask>
    <linearGradient
       y2="52.047314"
       x2="39.460712"
       y1="1.9654751"
       x1="2.8348188"
       gradientUnits="userSpaceOnUse"
       id="linearGradient1465-5"
       xlink:href="#linearGradient884"
       inkscape:collect="always" />
  </defs>
  <sodipodi:namedview
     inkscape:snap-smooth-nodes="true"
     inkscape:window-maximized="1"
     inkscape:window-y="-8"
     inkscape:window-x="-8"
     inkscape:window-height="1377"
     inkscape:window-width="2560"
     units="px"
     fit-margin-top="0"
     showgrid="false"
     inkscape:document-rotation="0"
     inkscape:current-layer="g1463"
     inkscape:document-units="mm"
     inkscape:cy="28.223893"
     inkscape:cx="264.61638"
     inkscape:zoom="2.8"
     inkscape:pageshadow="2"
     inkscape:pageopacity="0.0"
     borderopacity="1.0"
     bordercolor="#666666"
     pagecolor="#ffffff"
     id="base" />
  <metadata
     id="metadata5">
    <rdf:RDF>
      <cc:Work
         rdf:about="">
        <dc:format>image/svg+xml</dc:format>
        <dc:type
           rdf:resource="http://purl.org/dc/dcmitype/StillImage" />
        <dc:title></dc:title>
      </cc:Work>
    </rdf:RDF>
  </metadata>
  <g
     id="layer1"
     inkscape:groupmode="layer"
     inkscape:label="Livello 1">
    <g
       style="stroke-width:1.03116"
       transform="matrix(0.96972988,0,0,0.96972988,-161.48651,23.7787)"
       id="g1463">
      <path
         d="M 244.15522,-6.5133602 V -8.7643093"
         stroke="#000000"
         stroke-opacity="1"
         stroke-width="0.912976"
         stroke-linecap="square"
         stroke-linejoin="miter"
         fill="none"
         id="68d2fe1c-acdf-48b4-981f-41b2e7779a02"
         style="stroke:#00649c;stroke-width:1.40038997;stroke-linecap:round;stroke-linejoin:round;stroke-miterlimit:4;stroke-dasharray:none;stroke-opacity:1" />
      <path
         sodipodi:nodetypes="ccc"
         d="M 244.15522,-8.7643093 H 216.63529 V -11.015258"
         stroke="#000000"
         stroke-opacity="1"
         stroke-width="0.912976"
         stroke-linecap="square"
         stroke-linejoin="miter"
         fill="none"
         id="0a78d21b-20bc-48d0-a2a9-7ef6f10df7b0"
         style="stroke:#00649c;stroke-width:1.40038997;stroke-linecap:round;stroke-linejoin:round;stroke-miterlimit:4;stroke-dasharray:none;stroke-opacity:1" />
      <path
         sodipodi:nodetypes="ccc"
         d="m 193.33872,-19.118675 h -5.13219 v -5.402277"
         stroke="#000000"
         stroke-opacity="1"
         stroke-width="0.912976"
         stroke-linecap="square"
         stroke-linejoin="miter"
         fill="none"
         id="9f73bcbc-23ba-40fc-bb79-7d11b36ccada"
         style="stroke:#00649c;stroke-width:1.40038997;stroke-linecap:round;stroke-linejoin:round;stroke-miterlimit:4;stroke-dasharray:none;stroke-opacity:1" />
      <path
         sodipodi:nodetypes="ccc"
         d="m 193.33872,-19.118675 h 5.13219 v -2.701139"
         stroke="#000000"
         stroke-opacity="1"
         stroke-width="0.912976"
         stroke-linecap="square"
         stroke-linejoin="miter"
         fill="none"
         id="06abfed6-84ef-4a07-b1dc-bc5943ce1144"
         style="stroke:#00649c;stroke-width:1.40038997;stroke-linecap:round;stroke-linejoin:round;stroke-miterlimit:4;stroke-dasharray:none;stroke-opacity:1" />
      <path
         sodipodi:nodetypes="ccc"
         d="m 198.47091,-21.819814 h -3.42145 v -2.701138"
         stroke="#000000"
         stroke-opacity="1"
         stroke-width="0.912976"
         stroke-linecap="square"
         stroke-linejoin="miter"
         fill="none"
         id="dc178e65-4a21-4d8a-a327-bac8b9970a75"
         style="stroke:#00649c;stroke-width:1.40038997;stroke-linecap:round;stroke-linejoin:round;stroke-miterlimit:4;stroke-dasharray:none;stroke-opacity:1" />
      <path
         sodipodi:nodetypes="ccc"
         d="m 198.47091,-21.819814 h 3.42145 v -2.701138"
         stroke="#000000"
         stroke-opacity="1"
         stroke-width="0.912976"
         stroke-linecap="square"
         stroke-linejoin="miter"
         fill="none"
         id="ffe3fac0-1c77-4467-b0bd-a53f44f83623"
         style="stroke:#00649c;stroke-width:1.40038997;stroke-linecap:round;stroke-linejoin:round;stroke-miterlimit:4;stroke-dasharray:none;stroke-opacity:1" />
      <path
         sodipodi:nodetypes="ccccc"
         d="m 239.93185,-13.266208 v 2.25095 h -23.29656 -23.29657 v -8.103417"
         style="fill:none;stroke:#00649c;stroke-width:1.40038997;stroke-linecap:round;stroke-linejoin:round;stroke-miterlimit:4;stroke-dasharray:none;stroke-opacity:1"
         id="e9fd0a0b-84a7-40c8-a4a1-9507001ff846" />
      <path
         d="m 239.93185,-13.266208 h -8.76749 v -2.250949"
         stroke="#000000"
         stroke-opacity="1"
         stroke-width="0.912976"
         stroke-linecap="square"
         stroke-linejoin="miter"
         fill="none"
         id="b5775f72-3d0a-4e2e-b1a0-883239ea53c9"
         style="stroke:#00649c;stroke-width:1.40038997;stroke-linecap:round;stroke-linejoin:round;stroke-miterlimit:4;stroke-dasharray:none;stroke-opacity:1" />
      <path
         d="m 231.16436,-15.517157 h -7.27062 v -2.250949"
         stroke="#000000"
         stroke-opacity="1"
         stroke-width="0.912976"
         stroke-linecap="square"
         stroke-linejoin="miter"
         fill="none"
         id="6ed15779-7337-416d-8c53-e0d3834900e7"
         style="stroke:#00649c;stroke-width:1.40038997;stroke-linecap:round;stroke-linejoin:round;stroke-miterlimit:4;stroke-dasharray:none;stroke-opacity:1" />
      <path
         d="m 223.89374,-17.768106 h -7.69828 v -2.250949"
         stroke="#000000"
         stroke-opacity="1"
         stroke-width="0.912976"
         stroke-linecap="square"
         stroke-linejoin="miter"
         fill="none"
         id="c75ad05e-d9e3-4beb-918c-d62b81fc607a"
         style="stroke:#00649c;stroke-width:1.40038997;stroke-linecap:round;stroke-linejoin:round;stroke-miterlimit:4;stroke-dasharray:none;stroke-opacity:1" />
      <path
         d="m 216.19546,-20.019055 h -5.1322 v -4.501897"
         stroke="#000000"
         stroke-opacity="1"
         stroke-width="0.912976"
         stroke-linecap="square"
         stroke-linejoin="miter"
         fill="none"
         id="c2cc2c81-1218-4444-b6b1-b31666fd0aa2"
         style="stroke:#00649c;stroke-width:1.40038997;stroke-linecap:round;stroke-linejoin:round;stroke-miterlimit:4;stroke-dasharray:none;stroke-opacity:1" />
      <path
         d="m 216.19546,-20.019055 h 5.13218 v -2.250948"
         stroke="#000000"
         stroke-opacity="1"
         stroke-width="0.912976"
         stroke-linecap="square"
         stroke-linejoin="miter"
         fill="none"
         id="e4797da7-41aa-4863-8aef-84a6bb80d2e6"
         style="stroke:#00649c;stroke-width:1.40038997;stroke-linecap:round;stroke-linejoin:round;stroke-miterlimit:4;stroke-dasharray:none;stroke-opacity:1" />
      <path
         d="m 221.32764,-22.270003 h -3.42145 v -2.250949"
         stroke="#000000"
         stroke-opacity="1"
         stroke-width="0.912976"
         stroke-linecap="square"
         stroke-linejoin="miter"
         fill="none"
         id="192c9159-bad5-4ae1-8eca-0bf45d3c4182"
         style="stroke:#00649c;stroke-width:1.40038997;stroke-linecap:round;stroke-linejoin:round;stroke-miterlimit:4;stroke-dasharray:none;stroke-opacity:1" />
      <path
         d="m 221.32764,-22.270003 h 3.42147 v -2.250949"
         stroke="#000000"
         stroke-opacity="1"
         stroke-width="0.912976"
         stroke-linecap="square"
         stroke-linejoin="miter"
         fill="none"
         id="5380b12a-e5f4-4775-86fb-871a38956e98"
         style="stroke:#00649c;stroke-width:1.40038997;stroke-linecap:round;stroke-linejoin:round;stroke-miterlimit:4;stroke-dasharray:none;stroke-opacity:1" />
      <path
         d="m 223.89374,-17.768106 h 7.6983 v -6.752846"
         stroke="#000000"
         stroke-opacity="1"
         stroke-width="0.912976"
         stroke-linecap="square"
         stroke-linejoin="miter"
         fill="none"
         id="a953a619-c9fb-44af-9bdf-d5a7b092c7cc"
         style="stroke:#00649c;stroke-width:1.40038997;stroke-linecap:round;stroke-linejoin:round;stroke-miterlimit:4;stroke-dasharray:none;stroke-opacity:1" />
      <path
         d="m 231.16436,-15.517157 h 7.2706 v -9.003795"
         stroke="#000000"
         stroke-opacity="1"
         stroke-width="0.912976"
         stroke-linecap="square"
         stroke-linejoin="miter"
         fill="none"
         id="934c289d-97a1-4fbe-a543-11454c293a65"
         style="stroke:#00649c;stroke-width:1.40038997;stroke-linecap:round;stroke-linejoin:round;stroke-miterlimit:4;stroke-dasharray:none;stroke-opacity:1" />
      <path
         d="m 239.93185,-13.266208 h 8.76751 v -5.627372"
         stroke="#000000"
         stroke-opacity="1"
         stroke-width="0.912976"
         stroke-linecap="square"
         stroke-linejoin="miter"
         fill="none"
         id="533899be-4b0a-4177-9527-07c07775a3ee"
         style="stroke:#00649c;stroke-width:1.40038997;stroke-linecap:round;stroke-linejoin:round;stroke-miterlimit:4;stroke-dasharray:none;stroke-opacity:1" />
      <path
         d="m 248.69936,-18.89358 h -3.42148 v -5.627372"
         stroke="#000000"
         stroke-opacity="1"
         stroke-width="0.912976"
         stroke-linecap="square"
         stroke-linejoin="miter"
         fill="none"
         id="724a949c-dca8-4acc-bee4-4b1b8ad04e82"
         style="stroke:#00649c;stroke-width:1.40038997;stroke-linecap:round;stroke-linejoin:round;stroke-miterlimit:4;stroke-dasharray:none;stroke-opacity:1" />
      <path
         d="m 248.69936,-18.89358 h 3.42145 v -5.627372"
         stroke="#000000"
         stroke-opacity="1"
         stroke-width="0.912976"
         stroke-linecap="square"
         stroke-linejoin="miter"
         fill="none"
         id="51cfbb09-0606-4bd1-9b34-edd95acef400"
         style="stroke:#00649c;stroke-width:1.40038997;stroke-linecap:round;stroke-linejoin:round;stroke-miterlimit:4;stroke-dasharray:none;stroke-opacity:1" />
      <path
         d="m 244.15522,-8.7643093 h 33.84041 v -2.6261077"
         stroke="#000000"
         stroke-opacity="1"
         stroke-width="0.912976"
         stroke-linecap="square"
         stroke-linejoin="miter"
         fill="none"
         id="1c4db05e-e367-4689-88d5-d0b3bbe9a5b0"
         style="stroke:#00649c;stroke-width:1.40038997;stroke-linecap:round;stroke-linejoin:round;stroke-miterlimit:4;stroke-dasharray:none;stroke-opacity:1" />
      <path
         d="m 277.99563,-11.390417 h -15.61044 v -6.565268"
         stroke="#000000"
         stroke-opacity="1"
         stroke-width="0.912976"
         stroke-linecap="square"
         stroke-linejoin="miter"
         fill="none"
         id="d1aaff61-bc3a-4784-bb60-1dea3791ee0f"
         style="stroke:#00649c;stroke-width:1.40038997;stroke-linecap:round;stroke-linejoin:round;stroke-miterlimit:4;stroke-dasharray:none;stroke-opacity:1" />
      <path
         d="m 262.38519,-17.955685 h -3.42145 v -6.565267"
         stroke="#000000"
         stroke-opacity="1"
         stroke-width="0.912976"
         stroke-linecap="square"
         stroke-linejoin="miter"
         fill="none"
         id="1f5a9377-67e8-4c02-8880-23731860adf7"
         style="stroke:#00649c;stroke-width:1.40038997;stroke-linecap:round;stroke-linejoin:round;stroke-miterlimit:4;stroke-dasharray:none;stroke-opacity:1" />
      <path
         d="m 262.38519,-17.955685 h 3.42147 v -6.565267"
         stroke="#000000"
         stroke-opacity="1"
         stroke-width="0.912976"
         stroke-linecap="square"
         stroke-linejoin="miter"
         fill="none"
         id="265d9a57-8263-449c-b356-c89195a0b9a1"
         style="stroke:#00649c;stroke-width:1.40038997;stroke-linecap:round;stroke-linejoin:round;stroke-miterlimit:4;stroke-dasharray:none;stroke-opacity:1" />
      <path
         d="m 277.99563,-11.390417 h 15.61042 v -2.626107"
         stroke="#000000"
         stroke-opacity="1"
         stroke-width="0.912976"
         stroke-linecap="square"
         stroke-linejoin="miter"
         fill="none"
         id="578f6835-75d3-407f-ba71-5f01878c2de7"
         style="stroke:#00649c;stroke-width:1.40038997;stroke-linecap:round;stroke-linejoin:round;stroke-miterlimit:4;stroke-dasharray:none;stroke-opacity:1" />
      <path
         sodipodi:nodetypes="ccc"
         d="m 293.60605,-14.016524 h -8.97368 v -2.626107"
         stroke="#000000"
         stroke-opacity="1"
         stroke-width="0.912976"
         stroke-linecap="square"
         stroke-linejoin="miter"
         fill="none"
         id="6ea1e016-d73b-4fb7-855f-d24b25109e11"
         style="stroke:#00649c;stroke-width:1.40038997;stroke-linecap:round;stroke-linejoin:round;stroke-miterlimit:4;stroke-dasharray:none;stroke-opacity:1" />
      <path
         sodipodi:nodetypes="ccc"
         d="m 284.63237,-16.642631 h -7.45887 v -5.252215"
         stroke="#000000"
         stroke-opacity="1"
         stroke-width="0.912976"
         stroke-linecap="square"
         stroke-linejoin="miter"
         fill="none"
         id="092b7f71-3436-4eac-b958-db946ecbb3e2"
         style="stroke:#00649c;stroke-width:1.40038997;stroke-linecap:round;stroke-linejoin:round;stroke-miterlimit:4;stroke-dasharray:none;stroke-opacity:1" />
      <path
         d="m 277.1735,-21.894846 h -3.42146 v -2.626106"
         stroke="#000000"
         stroke-opacity="1"
         stroke-width="0.912976"
         stroke-linecap="square"
         stroke-linejoin="miter"
         fill="none"
         id="b9e00e6c-b629-4f72-8292-7eb19a69c351"
         style="stroke:#00649c;stroke-width:1.40038997;stroke-linecap:round;stroke-linejoin:round;stroke-miterlimit:4;stroke-dasharray:none;stroke-opacity:1" />
      <path
         d="m 277.1735,-21.894846 h 3.42147 v -2.626106"
         stroke="#000000"
         stroke-opacity="1"
         stroke-width="0.912976"
         stroke-linecap="square"
         stroke-linejoin="miter"
         fill="none"
         id="c5022ed8-17e4-4d20-964b-c1b44abfdc52"
         style="stroke:#00649c;stroke-width:1.40038997;stroke-linecap:round;stroke-linejoin:round;stroke-miterlimit:4;stroke-dasharray:none;stroke-opacity:1" />
      <path
         sodipodi:nodetypes="ccc"
         d="m 284.63237,-16.642631 h 6.09993 v -7.878321"
         stroke="#000000"
         stroke-opacity="1"
         stroke-width="0.912976"
         stroke-linecap="square"
         stroke-linejoin="miter"
         fill="none"
         id="7db38be8-c7f9-420a-94d5-732801961ff2"
         style="stroke:#00649c;stroke-width:1.40038997;stroke-linecap:round;stroke-linejoin:round;stroke-miterlimit:4;stroke-dasharray:none;stroke-opacity:1" />
      <path
         d="m 293.60605,-14.016524 h 6.41523 v -10.504428"
         stroke="#000000"
         stroke-opacity="1"
         stroke-width="0.912976"
         stroke-linecap="square"
         stroke-linejoin="miter"
         fill="none"
         id="b69b1bbb-d6ac-42e4-aa74-47b0ffdcb642"
         style="stroke:#00649c;stroke-width:1.40038997;stroke-linecap:round;stroke-linejoin:round;stroke-miterlimit:4;stroke-dasharray:none;stroke-opacity:1" />
    </g>
  </g>
</svg>
