<?xml version="1.0" encoding="UTF-8" standalone="no"?>
<svg
   xmlns:dc="http://purl.org/dc/elements/1.1/"
   xmlns:cc="http://creativecommons.org/ns#"
   xmlns:rdf="http://www.w3.org/1999/02/22-rdf-syntax-ns#"
   xmlns:svg="http://www.w3.org/2000/svg"
   xmlns="http://www.w3.org/2000/svg"
   xmlns:xlink="http://www.w3.org/1999/xlink"
   xmlns:sodipodi="http://sodipodi.sourceforge.net/DTD/sodipodi-0.dtd"
   xmlns:inkscape="http://www.inkscape.org/namespaces/inkscape"
   width="620"
   height="620"
   viewBox="0 0 164.04166 164.04167"
   version="1.1"
   id="svg8"
   inkscape:version="1.0 (4035a4fb49, 2020-05-01)"
   sodipodi:docname="QuestionMark.svg"
   inkscape:export-filename="O:\Projects\TreeViewer\src\TreeViewer\Assets\QuestionMark.png"
   inkscape:export-xdpi="79.27742"
   inkscape:export-ydpi="79.27742">
  <defs
     id="defs2">
    <linearGradient
       id="linearGradient861"
       inkscape:collect="always">
      <stop
         id="stop857"
         offset="0"
         style="stop-color:#b9e6ff;stop-opacity:0.2" />
      <stop
         id="stop859"
         offset="1"
         style="stop-color:#0072b2;stop-opacity:0" />
    </linearGradient>
    <linearGradient
       inkscape:collect="always"
       xlink:href="#linearGradient861"
       id="linearGradient855"
       gradientUnits="userSpaceOnUse"
       x1="115.62803"
       y1="115.62803"
       x2="58.230629"
       y2="57.063934" />
  </defs>
  <sodipodi:namedview
     id="base"
     pagecolor="#ffffff"
     bordercolor="#666666"
     borderopacity="1.0"
     inkscape:pageopacity="0.0"
     inkscape:pageshadow="2"
     inkscape:zoom="1.4"
     inkscape:cx="547.33045"
     inkscape:cy="276.03547"
     inkscape:document-units="mm"
     inkscape:current-layer="layer1"
     inkscape:document-rotation="0"
     showgrid="false"
     units="px"
     fit-margin-right="0.1"
     inkscape:window-width="3440"
     inkscape:window-height="1377"
     inkscape:window-x="2552"
     inkscape:window-y="-8"
     inkscape:window-maximized="1" />
  <metadata
     id="metadata5">
    <rdf:RDF>
      <cc:Work
         rdf:about="">
        <dc:format>image/svg+xml</dc:format>
        <dc:type
           rdf:resource="http://purl.org/dc/dcmitype/StillImage" />
        <dc:title />
      </cc:Work>
    </rdf:RDF>
  </metadata>
  <g
     inkscape:label="Livello 1"
     inkscape:groupmode="layer"
     id="layer1"
     transform="translate(9.5174554,12.117554)">
    <path
       sodipodi:type="star"
       style="fill:#0072b2;fill-opacity:1;stroke-width:0.105674;stroke-linecap:round;stroke-linejoin:round"
       id="path835"
       sodipodi:sides="8"
       sodipodi:cx="67.73333"
       sodipodi:cy="67.73333"
       sodipodi:r1="67.733337"
       sodipodi:r2="62.57745"
       sodipodi:arg1="0"
       sodipodi:arg2="0.39269908"
       inkscape:flatsided="true"
       inkscape:rounded="0"
       inkscape:randomized="0"
       inkscape:transform-center-x="-3.324066"
       inkscape:transform-center-y="5.2327591"
       transform="matrix(1.0803684,0.00488577,-0.00488576,1.0803684,-0.34264239,-3.6045993)"
       d="m 135.46667,67.73333 -19.83864,47.8947 -47.8947,19.83864 L 19.838628,115.62803 -7.6293945e-6,67.73333 19.838628,19.838628 67.73333,-7.6293945e-6 115.62803,19.838628 Z" />
    <g
       aria-label="?"
       id="text839"
       style="font-size:100.809px;line-height:1.25;font-family:'Open Sans';-inkscape-font-specification:'Open Sans';fill:#ffffff;fill-opacity:1;stroke-width:2.52023"
       transform="translate(3.9442589,2.4168038)">
      <path
         d="m 59.157498,79.447698 v -3.642512 q 0,-4.725422 2.018149,-8.220265 2.018149,-3.494844 7.383472,-7.432695 5.16843,-3.691736 6.792794,-6.005224 1.673587,-2.313487 1.673587,-5.16843 0,-3.199504 -2.362711,-4.873091 -2.362711,-1.673587 -6.595902,-1.673587 -7.383471,0 -16.834315,4.823868 L 45.86725,36.475894 q 10.976761,-6.152893 23.282547,-6.152893 10.139967,0 16.095968,4.873091 6.005223,4.873091 6.005223,12.99491 0,5.414546 -2.461157,9.352397 -2.461157,3.937852 -9.352397,8.860166 -4.725422,3.494843 -6.005224,5.3161 -1.230578,1.821256 -1.230578,4.774645 v 2.953388 z m -1.57514,16.834315 q 0,-4.134744 2.215041,-6.251339 2.215042,-2.116595 6.448232,-2.116595 4.085521,0 6.300563,2.165818 2.264264,2.165819 2.264264,6.202116 0,3.888627 -2.264264,6.152897 -2.264265,2.21504 -6.300563,2.21504 -4.134744,0 -6.399008,-2.16582 -2.264265,-2.21504 -2.264265,-6.202117 z"
         style="font-weight:bold;fill:#ffffff;fill-opacity:1;stroke-width:2.52023"
         id="path863" />
    </g>
  </g>
</svg>
