<?xml version="1.0" encoding="UTF-8" standalone="no"?>
<svg
   xmlns:dc="http://purl.org/dc/elements/1.1/"
   xmlns:cc="http://creativecommons.org/ns#"
   xmlns:rdf="http://www.w3.org/1999/02/22-rdf-syntax-ns#"
   xmlns:svg="http://www.w3.org/2000/svg"
   xmlns="http://www.w3.org/2000/svg"
   xmlns:xlink="http://www.w3.org/1999/xlink"
   xmlns:sodipodi="http://sodipodi.sourceforge.net/DTD/sodipodi-0.dtd"
   xmlns:inkscape="http://www.inkscape.org/namespaces/inkscape"
   inkscape:export-ydpi="79.27742"
   inkscape:export-xdpi="79.27742"
   inkscape:export-filename="O:\Projects\TreeViewer\src\TreeViewer\Assets\QuestionMark.png"
   sodipodi:docname="QuestionMark.svg"
   inkscape:version="1.0 (4035a4fb49, 2020-05-01)"
   id="svg8"
   version="1.1"
   viewBox="0 0 164.04166 164.04167"
   height="620"
   width="620">
  <defs
     id="defs2">
    <linearGradient
       inkscape:collect="always"
       id="linearGradient861">
      <stop
         style="stop-color:#b9e6ff;stop-opacity:0.2"
         offset="0"
         id="stop857" />
      <stop
         style="stop-color:#0072b2;stop-opacity:0"
         offset="1"
         id="stop859" />
    </linearGradient>
    <linearGradient
       id="linearGradient849"
       inkscape:collect="always">
      <stop
         id="stop845"
         offset="0"
         style="stop-color:#000000;stop-opacity:0.2" />
      <stop
         id="stop847"
         offset="1"
         style="stop-color:#000000;stop-opacity:0" />
    </linearGradient>
    <linearGradient
       gradientUnits="userSpaceOnUse"
       y2="11.334212"
       x2="40.457016"
       y1="123.90184"
       x1="91.297791"
       id="linearGradient851"
       xlink:href="#linearGradient849"
       inkscape:collect="always" />
    <linearGradient
       y2="57.063934"
       x2="58.230629"
       y1="115.62803"
       x1="115.62803"
       gradientUnits="userSpaceOnUse"
       id="linearGradient855"
       xlink:href="#linearGradient861"
       inkscape:collect="always" />
    <filter
       height="1.0773087"
       y="-0.038654305"
       width="1.1266117"
       x="-0.063305855"
       id="filter878"
       style="color-interpolation-filters:sRGB"
       inkscape:collect="always">
      <feGaussianBlur
         id="feGaussianBlur880"
         stdDeviation="1.1971069"
         inkscape:collect="always" />
    </filter>
    <filter
       height="1.096"
       y="-0.048"
       width="1.096"
       x="-0.048"
       id="filter1202"
       style="color-interpolation-filters:sRGB"
       inkscape:collect="always">
      <feGaussianBlur
         id="feGaussianBlur1204"
         stdDeviation="2.7093058"
         inkscape:collect="always" />
    </filter>
    <linearGradient
       y2="57.063934"
       x2="58.230629"
       y1="115.62803"
       x1="115.62803"
       gradientUnits="userSpaceOnUse"
       id="linearGradient1222"
       xlink:href="#linearGradient861"
       inkscape:collect="always" />
  </defs>
  <sodipodi:namedview
     inkscape:window-maximized="1"
     inkscape:window-y="-8"
     inkscape:window-x="-8"
     inkscape:window-height="1377"
     inkscape:window-width="2560"
     fit-margin-right="0.1"
     units="px"
     showgrid="false"
     inkscape:document-rotation="0"
     inkscape:current-layer="layer1"
     inkscape:document-units="mm"
     inkscape:cy="319.69523"
     inkscape:cx="214.349"
     inkscape:zoom="1.4"
     inkscape:pageshadow="2"
     inkscape:pageopacity="0.0"
     borderopacity="1.0"
     bordercolor="#666666"
     pagecolor="#ffffff"
     id="base" />
  <metadata
     id="metadata5">
    <rdf:RDF>
      <cc:Work
         rdf:about="">
        <dc:format>image/svg+xml</dc:format>
        <dc:type
           rdf:resource="http://purl.org/dc/dcmitype/StillImage" />
        <dc:title></dc:title>
      </cc:Work>
    </rdf:RDF>
  </metadata>
  <g
     transform="translate(9.5174554,12.117554)"
     id="layer1"
     inkscape:groupmode="layer"
     inkscape:label="Livello 1">
    <g
       id="g1216">
      <path
         sodipodi:type="star"
         style="fill:#0072b2;fill-opacity:1;stroke-width:0.105674;stroke-linecap:round;stroke-linejoin:round"
         id="path835"
         sodipodi:sides="8"
         sodipodi:cx="67.73333"
         sodipodi:cy="67.73333"
         sodipodi:r1="67.733337"
         sodipodi:r2="62.57745"
         sodipodi:arg1="0"
         sodipodi:arg2="0.39269908"
         inkscape:flatsided="true"
         inkscape:rounded="0"
         inkscape:randomized="0"
         d="m 135.46667,67.73333 -19.83864,47.8947 -47.8947,19.83864 L 19.838628,115.62803 -7.6293945e-6,67.73333 19.838628,19.838628 67.73333,-7.6293945e-6 115.62803,19.838628 Z"
         inkscape:transform-center-x="-3.324066"
         inkscape:transform-center-y="5.2327591"
         transform="matrix(1.0803684,0.00488577,-0.00488576,1.0803684,-0.34264239,-3.6045993)" />
      <path
         transform="matrix(1.0803684,0.00488577,-0.00488576,1.0803684,-0.34264239,-3.6045993)"
         inkscape:transform-center-y="5.2327591"
         inkscape:transform-center-x="-3.324066"
         d="m 135.46667,67.73333 -19.83864,47.8947 -47.8947,19.83864 L 19.838628,115.62803 -7.6293945e-6,67.73333 19.838628,19.838628 67.73333,-7.6293945e-6 115.62803,19.838628 Z"
         inkscape:randomized="0"
         inkscape:rounded="0"
         inkscape:flatsided="true"
         sodipodi:arg2="0.39269908"
         sodipodi:arg1="0"
         sodipodi:r2="62.57745"
         sodipodi:r1="67.733337"
         sodipodi:cy="67.73333"
         sodipodi:cx="67.73333"
         sodipodi:sides="8"
         id="path843"
         style="fill:url(#linearGradient851);fill-opacity:1;stroke-width:0.105674;stroke-linecap:round;stroke-linejoin:round"
         sodipodi:type="star" />
      <path
         sodipodi:type="star"
         style="fill:url(#linearGradient1222);fill-opacity:1;stroke-width:0.105674;stroke-linecap:round;stroke-linejoin:round"
         id="path853"
         sodipodi:sides="8"
         sodipodi:cx="67.73333"
         sodipodi:cy="67.73333"
         sodipodi:r1="67.733337"
         sodipodi:r2="62.57745"
         sodipodi:arg1="0"
         sodipodi:arg2="0.39269908"
         inkscape:flatsided="true"
         inkscape:rounded="0"
         inkscape:randomized="0"
         d="m 135.46667,67.73333 -19.83864,47.8947 -47.8947,19.83864 L 19.838628,115.62803 -7.6293945e-6,67.73333 19.838628,19.838628 67.73333,-7.6293945e-6 115.62803,19.838628 Z"
         inkscape:transform-center-x="3.3240674"
         inkscape:transform-center-y="-5.2327553"
         transform="matrix(-1.0803684,-0.00488577,0.00488576,-1.0803684,145.3494,143.41116)" />
      <g
         id="g904"
         transform="translate(3.4471396,0.84699594)">
        <g
           transform="translate(-0.82578567,0.24685617)"
           aria-label="?"
           id="g872"
           style="font-size:100.809px;line-height:1.25;font-family:'Open Sans';-inkscape-font-specification:'Open Sans';fill:#000000;fill-opacity:1;stroke-width:2.52023;filter:url(#filter878)">
          <path
             d="m 59.932301,81.196444 v -3.772178 q 0,-4.893638 2.135805,-8.512891 2.135804,-3.619254 7.813918,-7.697285 5.469742,-3.823155 7.188805,-6.218999 1.771154,-2.395842 1.771154,-5.352416 0,-3.3134 -2.500453,-5.046564 -2.500454,-1.733163 -6.980434,-1.733163 -7.813918,0 -17.815733,4.995588 L 45.86725,36.694925 q 11.616691,-6.371924 24.639888,-6.371924 10.731113,0 17.034341,5.046564 6.355319,5.046564 6.355319,13.457504 0,5.607294 -2.604639,9.685325 -2.604639,4.078032 -9.897629,9.175571 -5.000908,3.619253 -6.35532,5.505343 -1.30232,1.886089 -1.30232,4.944613 v 3.058523 z m -1.666968,17.433585 q 0,-4.281933 2.344175,-6.473875 2.344176,-2.191941 6.824155,-2.191941 4.323701,0 6.667877,2.242917 2.396267,2.242918 2.396267,6.422899 0,4.027051 -2.396267,6.371931 -2.396269,2.29389 -6.667877,2.29389 -4.375794,0 -6.772062,-2.24292 -2.396268,-2.29389 -2.396268,-6.422901 z"
             style="font-weight:bold;fill:#000000;fill-opacity:0.3;stroke-width:2.63839"
             id="path870" />
        </g>
        <g
           transform="translate(-0.82578567,0.24685783)"
           style="font-size:100.809px;line-height:1.25;font-family:'Open Sans';-inkscape-font-specification:'Open Sans';fill:#ffffff;fill-opacity:1;stroke-width:2.52023"
           id="text839"
           aria-label="?">
          <path
             id="path863"
             style="font-weight:bold;fill:#ffffff;fill-opacity:1;stroke-width:2.52023"
             d="m 59.157498,79.447698 v -3.642512 q 0,-4.725422 2.018149,-8.220265 2.018149,-3.494844 7.383472,-7.432695 5.16843,-3.691736 6.792794,-6.005224 1.673587,-2.313487 1.673587,-5.16843 0,-3.199504 -2.362711,-4.873091 -2.362711,-1.673587 -6.595902,-1.673587 -7.383471,0 -16.834315,4.823868 L 45.86725,36.475894 q 10.976761,-6.152893 23.282547,-6.152893 10.139967,0 16.095968,4.873091 6.005223,4.873091 6.005223,12.99491 0,5.414546 -2.461157,9.352397 -2.461157,3.937852 -9.352397,8.860166 -4.725422,3.494843 -6.005224,5.3161 -1.230578,1.821256 -1.230578,4.774645 v 2.953388 z m -1.57514,16.834315 q 0,-4.134744 2.215041,-6.251339 2.215042,-2.116595 6.448232,-2.116595 4.085521,0 6.300563,2.165818 2.264264,2.165819 2.264264,6.202116 0,3.888627 -2.264264,6.152897 -2.264265,2.21504 -6.300563,2.21504 -4.134744,0 -6.399008,-2.16582 -2.264265,-2.21504 -2.264265,-6.202117 z" />
        </g>
      </g>
      <path
         sodipodi:type="star"
         style="fill:none;fill-opacity:1;stroke:#000000;stroke-width:11.1072087;stroke-linecap:round;stroke-linejoin:round;stroke-miterlimit:4;stroke-dasharray:none;stroke-opacity:0.3;filter:url(#filter1202)"
         id="path894"
         sodipodi:sides="8"
         sodipodi:cx="67.73333"
         sodipodi:cy="67.73333"
         sodipodi:r1="67.733337"
         sodipodi:r2="62.57745"
         sodipodi:arg1="0"
         sodipodi:arg2="0.39269908"
         inkscape:flatsided="true"
         inkscape:rounded="0"
         inkscape:randomized="0"
         d="m 135.46667,67.73333 -19.83864,47.8947 -47.8947,19.83864 L 19.838628,115.62803 -7.6293945e-6,67.73333 19.838628,19.838628 67.73333,-7.6293945e-6 115.62803,19.838628 Z"
         inkscape:transform-center-x="-3.324066"
         inkscape:transform-center-y="5.2327591"
         transform="matrix(1.0803684,0.00488577,-0.00488576,1.0803684,0.18652754,-2.5462626)" />
      <path
         transform="matrix(1.0803684,0.00488577,-0.00488576,1.0803684,-0.34264239,-3.6045993)"
         inkscape:transform-center-y="5.2327591"
         inkscape:transform-center-x="-3.324066"
         d="m 135.46667,67.73333 -19.83864,47.8947 -47.8947,19.83864 L 19.838628,115.62803 -7.6293945e-6,67.73333 19.838628,19.838628 67.73333,-7.6293945e-6 115.62803,19.838628 Z"
         inkscape:randomized="0"
         inkscape:rounded="0"
         inkscape:flatsided="true"
         sodipodi:arg2="0.39269908"
         sodipodi:arg1="0"
         sodipodi:r2="62.57745"
         sodipodi:r1="67.733337"
         sodipodi:cy="67.73333"
         sodipodi:cx="67.73333"
         sodipodi:sides="8"
         id="path841"
         style="fill:none;fill-opacity:1;stroke:#ffffff;stroke-width:11.1072087;stroke-linecap:round;stroke-linejoin:round;stroke-miterlimit:4;stroke-dasharray:none;stroke-opacity:1"
         sodipodi:type="star" />
    </g>
  </g>
</svg>
